<?xml version="1.0" encoding="utf-8" standalone="no"?>
<!DOCTYPE svg PUBLIC "-//W3C//DTD SVG 1.1//EN"
  "http://www.w3.org/Graphics/SVG/1.1/DTD/svg11.dtd">
<svg xmlns:xlink="http://www.w3.org/1999/xlink" width="421.83625pt" height="351.353125pt" viewBox="0 0 421.83625 351.353125" xmlns="http://www.w3.org/2000/svg" version="1.1">
 <metadata>
  <rdf:RDF xmlns:dc="http://purl.org/dc/elements/1.1/" xmlns:cc="http://creativecommons.org/ns#" xmlns:rdf="http://www.w3.org/1999/02/22-rdf-syntax-ns#">
   <cc:Work>
    <dc:type rdf:resource="http://purl.org/dc/dcmitype/StillImage"/>
    <dc:date>2026-02-10T16:47:25.350285</dc:date>
    <dc:format>image/svg+xml</dc:format>
    <dc:creator>
     <cc:Agent>
      <dc:title>Matplotlib v3.10.8, https://matplotlib.org/</dc:title>
     </cc:Agent>
    </dc:creator>
   </cc:Work>
  </rdf:RDF>
 </metadata>
 <defs>
  <style type="text/css">*{stroke-linejoin: round; stroke-linecap: butt}</style>
 </defs>
 <g id="figure_1">
  <g id="patch_1">
   <path d="M 0 351.353125 
L 421.83625 351.353125 
L 421.83625 0 
L 0 0 
z
" style="fill: #ffffff"/>
  </g>
  <g id="axes_1">
   <g id="patch_2">
    <path d="M 36.55625 314.796875 
L 414.63625 314.796875 
L 414.63625 37.396875 
L 36.55625 37.396875 
z
" style="fill: #ffffff"/>
   </g>
   <g id="matplotlib.axis_1">
    <g id="text_1">
     <!-- Flux $\Phi$ -->
     <g transform="translate(193.69625 339.99375) scale(0.2 -0.2)">
      <defs>
       <path id="DejaVuSans-46" d="M 628 4666 
L 3309 4666 
L 3309 4134 
L 1259 4134 
L 1259 2759 
L 3109 2759 
L 3109 2228 
L 1259 2228 
L 1259 0 
L 628 0 
L 628 4666 
z
" transform="scale(0.015625)"/>
       <path id="DejaVuSans-6c" d="M 603 4863 
L 1178 4863 
L 1178 0 
L 603 0 
L 603 4863 
z
" transform="scale(0.015625)"/>
       <path id="DejaVuSans-75" d="M 544 1381 
L 544 3500 
L 1119 3500 
L 1119 1403 
Q 1119 906 1312 657 
Q 1506 409 1894 409 
Q 2359 409 2629 706 
Q 2900 1003 2900 1516 
L 2900 3500 
L 3475 3500 
L 3475 0 
L 2900 0 
L 2900 538 
Q 2691 219 2414 64 
Q 2138 -91 1772 -91 
Q 1169 -91 856 284 
Q 544 659 544 1381 
z
M 1991 3584 
L 1991 3584 
z
" transform="scale(0.015625)"/>
       <path id="DejaVuSans-78" d="M 3513 3500 
L 2247 1797 
L 3578 0 
L 2900 0 
L 1881 1375 
L 863 0 
L 184 0 
L 1544 1831 
L 300 3500 
L 978 3500 
L 1906 2253 
L 2834 3500 
L 3513 3500 
z
" transform="scale(0.015625)"/>
       <path id="DejaVuSans-20" transform="scale(0.015625)"/>
       <path id="DejaVuSans-3a6" d="M 2206 3644 
Q 1738 3578 1431 3306 
Q 1025 2947 1025 2328 
Q 1025 1713 1431 1353 
Q 1738 1081 2206 1016 
L 2206 3644 
z
M 2838 1016 
Q 3306 1081 3613 1353 
Q 4013 1713 4013 2328 
Q 4013 2947 3613 3306 
Q 3306 3578 2838 3644 
L 2838 1016 
z
M 2206 494 
Q 1444 563 950 981 
Q 359 1481 359 2328 
Q 359 3175 950 3678 
Q 1441 4100 2206 4169 
L 2206 4666 
L 2838 4666 
L 2838 4169 
Q 3600 4097 4091 3678 
Q 4678 3175 4678 2328 
Q 4678 1484 4091 981 
Q 3600 563 2838 491 
L 2838 0 
L 2206 0 
L 2206 494 
z
" transform="scale(0.015625)"/>
      </defs>
      <use xlink:href="#DejaVuSans-46" transform="translate(0 0.015625)"/>
      <use xlink:href="#DejaVuSans-6c" transform="translate(57.519531 0.015625)"/>
      <use xlink:href="#DejaVuSans-75" transform="translate(85.302734 0.015625)"/>
      <use xlink:href="#DejaVuSans-78" transform="translate(148.681641 0.015625)"/>
      <use xlink:href="#DejaVuSans-20" transform="translate(207.861328 0.015625)"/>
      <use xlink:href="#DejaVuSans-3a6" transform="translate(239.648438 0.015625)"/>
     </g>
    </g>
   </g>
   <g id="matplotlib.axis_2">
    <g id="text_2">
     <!-- Energy $E$ -->
     <g transform="translate(22.35625 220.796875) rotate(-90) scale(0.2 -0.2)">
      <defs>
       <path id="DejaVuSans-45" d="M 628 4666 
L 3578 4666 
L 3578 4134 
L 1259 4134 
L 1259 2753 
L 3481 2753 
L 3481 2222 
L 1259 2222 
L 1259 531 
L 3634 531 
L 3634 0 
L 628 0 
L 628 4666 
z
" transform="scale(0.015625)"/>
       <path id="DejaVuSans-6e" d="M 3513 2113 
L 3513 0 
L 2938 0 
L 2938 2094 
Q 2938 2591 2744 2837 
Q 2550 3084 2163 3084 
Q 1697 3084 1428 2787 
Q 1159 2491 1159 1978 
L 1159 0 
L 581 0 
L 581 3500 
L 1159 3500 
L 1159 2956 
Q 1366 3272 1645 3428 
Q 1925 3584 2291 3584 
Q 2894 3584 3203 3211 
Q 3513 2838 3513 2113 
z
" transform="scale(0.015625)"/>
       <path id="DejaVuSans-65" d="M 3597 1894 
L 3597 1613 
L 953 1613 
Q 991 1019 1311 708 
Q 1631 397 2203 397 
Q 2534 397 2845 478 
Q 3156 559 3463 722 
L 3463 178 
Q 3153 47 2828 -22 
Q 2503 -91 2169 -91 
Q 1331 -91 842 396 
Q 353 884 353 1716 
Q 353 2575 817 3079 
Q 1281 3584 2069 3584 
Q 2775 3584 3186 3129 
Q 3597 2675 3597 1894 
z
M 3022 2063 
Q 3016 2534 2758 2815 
Q 2500 3097 2075 3097 
Q 1594 3097 1305 2825 
Q 1016 2553 972 2059 
L 3022 2063 
z
" transform="scale(0.015625)"/>
       <path id="DejaVuSans-72" d="M 2631 2963 
Q 2534 3019 2420 3045 
Q 2306 3072 2169 3072 
Q 1681 3072 1420 2755 
Q 1159 2438 1159 1844 
L 1159 0 
L 581 0 
L 581 3500 
L 1159 3500 
L 1159 2956 
Q 1341 3275 1631 3429 
Q 1922 3584 2338 3584 
Q 2397 3584 2469 3576 
Q 2541 3569 2628 3553 
L 2631 2963 
z
" transform="scale(0.015625)"/>
       <path id="DejaVuSans-67" d="M 2906 1791 
Q 2906 2416 2648 2759 
Q 2391 3103 1925 3103 
Q 1463 3103 1205 2759 
Q 947 2416 947 1791 
Q 947 1169 1205 825 
Q 1463 481 1925 481 
Q 2391 481 2648 825 
Q 2906 1169 2906 1791 
z
M 3481 434 
Q 3481 -459 3084 -895 
Q 2688 -1331 1869 -1331 
Q 1566 -1331 1297 -1286 
Q 1028 -1241 775 -1147 
L 775 -588 
Q 1028 -725 1275 -790 
Q 1522 -856 1778 -856 
Q 2344 -856 2625 -561 
Q 2906 -266 2906 331 
L 2906 616 
Q 2728 306 2450 153 
Q 2172 0 1784 0 
Q 1141 0 747 490 
Q 353 981 353 1791 
Q 353 2603 747 3093 
Q 1141 3584 1784 3584 
Q 2172 3584 2450 3431 
Q 2728 3278 2906 2969 
L 2906 3500 
L 3481 3500 
L 3481 434 
z
" transform="scale(0.015625)"/>
       <path id="DejaVuSans-79" d="M 2059 -325 
Q 1816 -950 1584 -1140 
Q 1353 -1331 966 -1331 
L 506 -1331 
L 506 -850 
L 844 -850 
Q 1081 -850 1212 -737 
Q 1344 -625 1503 -206 
L 1606 56 
L 191 3500 
L 800 3500 
L 1894 763 
L 2988 3500 
L 3597 3500 
L 2059 -325 
z
" transform="scale(0.015625)"/>
       <path id="DejaVuSans-Oblique-45" d="M 1081 4666 
L 4031 4666 
L 3928 4134 
L 1606 4134 
L 1338 2753 
L 3566 2753 
L 3463 2222 
L 1234 2222 
L 909 531 
L 3284 531 
L 3181 0 
L 172 0 
L 1081 4666 
z
" transform="scale(0.015625)"/>
      </defs>
      <use xlink:href="#DejaVuSans-45" transform="translate(0 0.09375)"/>
      <use xlink:href="#DejaVuSans-6e" transform="translate(63.183594 0.09375)"/>
      <use xlink:href="#DejaVuSans-65" transform="translate(126.5625 0.09375)"/>
      <use xlink:href="#DejaVuSans-72" transform="translate(188.085938 0.09375)"/>
      <use xlink:href="#DejaVuSans-67" transform="translate(229.199219 0.09375)"/>
      <use xlink:href="#DejaVuSans-79" transform="translate(292.675781 0.09375)"/>
      <use xlink:href="#DejaVuSans-20" transform="translate(351.855469 0.09375)"/>
      <use xlink:href="#DejaVuSans-Oblique-45" transform="translate(383.642578 0.09375)"/>
     </g>
    </g>
   </g>
   <g id="line2d_1">
    <path d="M 36.55625 6.108367 
L 43.375328 27.430956 
L 50.194406 47.970267 
L 56.255809 65.569864 
L 62.317212 82.550574 
L 68.378615 98.912398 
L 74.440018 114.655335 
L 80.50142 129.779384 
L 86.562823 144.284547 
L 92.624226 158.170823 
L 98.685629 171.438211 
L 103.989356 182.539496 
L 109.293084 193.166945 
L 114.596811 203.320559 
L 119.900539 213.000338 
L 125.204266 222.206281 
L 130.507993 230.938389 
L 135.811721 239.196661 
L 140.357773 245.898047 
L 144.903825 252.251308 
L 149.449877 258.256445 
L 153.995929 263.913459 
L 158.541981 269.222348 
L 163.088034 274.183114 
L 167.634086 278.795756 
L 172.180138 283.060273 
L 176.72619 286.976667 
L 180.514567 289.974401 
L 184.302943 292.730382 
L 188.09132 295.24461 
L 191.879697 297.517085 
L 195.668074 299.547808 
L 199.45645 301.336778 
L 203.244827 302.883996 
L 207.033204 304.18946 
L 210.821581 305.253172 
L 214.609957 306.075131 
L 218.398334 306.655338 
L 222.186711 306.993792 
L 225.975088 307.090493 
L 229.763464 306.945441 
L 233.551841 306.558637 
L 237.340218 305.93008 
L 241.128595 305.05977 
L 244.916971 303.947708 
L 248.705348 302.593892 
L 252.493725 300.998325 
L 256.282102 299.161004 
L 260.070478 297.081931 
L 263.858855 294.761105 
L 267.647232 292.198526 
L 271.435609 289.394194 
L 275.223985 286.34811 
L 279.770038 282.373696 
L 284.31609 278.051157 
L 288.862142 273.380495 
L 293.408194 268.361708 
L 297.954246 262.994798 
L 302.500298 257.279764 
L 307.04635 251.216606 
L 311.592402 244.805324 
L 316.138454 238.045918 
L 321.442182 229.719955 
L 326.745909 220.920156 
L 332.049637 211.646522 
L 337.353364 201.899053 
L 342.657092 191.677748 
L 347.960819 180.982608 
L 353.264547 169.813633 
L 358.568274 158.170823 
L 364.629677 144.284547 
L 370.69108 129.779384 
L 376.752482 114.655335 
L 382.813885 98.912398 
L 388.875288 82.550574 
L 394.936691 65.569864 
L 400.998094 47.970267 
L 407.059496 29.751782 
L 413.878575 8.516224 
L 414.63625 6.108367 
L 414.63625 6.108367 
" clip-path="url(#p907d774a6a)" style="fill: none; stroke: #000000; stroke-width: 3; stroke-linecap: square"/>
   </g>
   <g id="LineCollection_1">
    <path d="M 168.723897 279.8498 
L 282.468603 279.8498 
" clip-path="url(#p907d774a6a)" style="fill: none; stroke: #0d0887; stroke-width: 4"/>
   </g>
   <g id="LineCollection_2">
    <path d="M 127.090446 225.365997 
L 324.102054 225.365997 
" clip-path="url(#p907d774a6a)" style="fill: none; stroke: #6f00a8; stroke-width: 4"/>
   </g>
   <g id="LineCollection_3">
    <path d="M 98.425803 170.882193 
L 352.766697 170.882193 
" clip-path="url(#p907d774a6a)" style="fill: none; stroke: #b7318a; stroke-width: 4"/>
   </g>
   <g id="LineCollection_4">
    <path d="M 75.126148 116.39839 
L 376.066352 116.39839 
" clip-path="url(#p907d774a6a)" style="fill: none; stroke: #e87059; stroke-width: 4"/>
   </g>
   <g id="LineCollection_5">
    <path d="M 54.979192 61.914587 
L 396.213308 61.914587 
" clip-path="url(#p907d774a6a)" style="fill: none; stroke: #feba2c; stroke-width: 4"/>
   </g>
   <g id="patch_3">
    <path d="M 36.55625 314.796875 
L 36.55625 37.396875 
" style="fill: none; stroke: #000000; stroke-width: 3; stroke-linejoin: miter; stroke-linecap: square"/>
   </g>
   <g id="patch_4">
    <path d="M 36.55625 314.796875 
L 414.63625 314.796875 
" style="fill: none; stroke: #000000; stroke-width: 3; stroke-linejoin: miter; stroke-linecap: square"/>
   </g>
   <g id="text_3">
    <!-- Harmonic Oscillator -->
    <g transform="translate(127.168125 22.396875) scale(0.2 -0.2)">
     <defs>
      <path id="DejaVuSans-48" d="M 628 4666 
L 1259 4666 
L 1259 2753 
L 3553 2753 
L 3553 4666 
L 4184 4666 
L 4184 0 
L 3553 0 
L 3553 2222 
L 1259 2222 
L 1259 0 
L 628 0 
L 628 4666 
z
" transform="scale(0.015625)"/>
      <path id="DejaVuSans-61" d="M 2194 1759 
Q 1497 1759 1228 1600 
Q 959 1441 959 1056 
Q 959 750 1161 570 
Q 1363 391 1709 391 
Q 2188 391 2477 730 
Q 2766 1069 2766 1631 
L 2766 1759 
L 2194 1759 
z
M 3341 1997 
L 3341 0 
L 2766 0 
L 2766 531 
Q 2569 213 2275 61 
Q 1981 -91 1556 -91 
Q 1019 -91 701 211 
Q 384 513 384 1019 
Q 384 1609 779 1909 
Q 1175 2209 1959 2209 
L 2766 2209 
L 2766 2266 
Q 2766 2663 2505 2880 
Q 2244 3097 1772 3097 
Q 1472 3097 1187 3025 
Q 903 2953 641 2809 
L 641 3341 
Q 956 3463 1253 3523 
Q 1550 3584 1831 3584 
Q 2591 3584 2966 3190 
Q 3341 2797 3341 1997 
z
" transform="scale(0.015625)"/>
      <path id="DejaVuSans-6d" d="M 3328 2828 
Q 3544 3216 3844 3400 
Q 4144 3584 4550 3584 
Q 5097 3584 5394 3201 
Q 5691 2819 5691 2113 
L 5691 0 
L 5113 0 
L 5113 2094 
Q 5113 2597 4934 2840 
Q 4756 3084 4391 3084 
Q 3944 3084 3684 2787 
Q 3425 2491 3425 1978 
L 3425 0 
L 2847 0 
L 2847 2094 
Q 2847 2600 2669 2842 
Q 2491 3084 2119 3084 
Q 1678 3084 1418 2786 
Q 1159 2488 1159 1978 
L 1159 0 
L 581 0 
L 581 3500 
L 1159 3500 
L 1159 2956 
Q 1356 3278 1631 3431 
Q 1906 3584 2284 3584 
Q 2666 3584 2933 3390 
Q 3200 3197 3328 2828 
z
" transform="scale(0.015625)"/>
      <path id="DejaVuSans-6f" d="M 1959 3097 
Q 1497 3097 1228 2736 
Q 959 2375 959 1747 
Q 959 1119 1226 758 
Q 1494 397 1959 397 
Q 2419 397 2687 759 
Q 2956 1122 2956 1747 
Q 2956 2369 2687 2733 
Q 2419 3097 1959 3097 
z
M 1959 3584 
Q 2709 3584 3137 3096 
Q 3566 2609 3566 1747 
Q 3566 888 3137 398 
Q 2709 -91 1959 -91 
Q 1206 -91 779 398 
Q 353 888 353 1747 
Q 353 2609 779 3096 
Q 1206 3584 1959 3584 
z
" transform="scale(0.015625)"/>
      <path id="DejaVuSans-69" d="M 603 3500 
L 1178 3500 
L 1178 0 
L 603 0 
L 603 3500 
z
M 603 4863 
L 1178 4863 
L 1178 4134 
L 603 4134 
L 603 4863 
z
" transform="scale(0.015625)"/>
      <path id="DejaVuSans-63" d="M 3122 3366 
L 3122 2828 
Q 2878 2963 2633 3030 
Q 2388 3097 2138 3097 
Q 1578 3097 1268 2742 
Q 959 2388 959 1747 
Q 959 1106 1268 751 
Q 1578 397 2138 397 
Q 2388 397 2633 464 
Q 2878 531 3122 666 
L 3122 134 
Q 2881 22 2623 -34 
Q 2366 -91 2075 -91 
Q 1284 -91 818 406 
Q 353 903 353 1747 
Q 353 2603 823 3093 
Q 1294 3584 2113 3584 
Q 2378 3584 2631 3529 
Q 2884 3475 3122 3366 
z
" transform="scale(0.015625)"/>
      <path id="DejaVuSans-4f" d="M 2522 4238 
Q 1834 4238 1429 3725 
Q 1025 3213 1025 2328 
Q 1025 1447 1429 934 
Q 1834 422 2522 422 
Q 3209 422 3611 934 
Q 4013 1447 4013 2328 
Q 4013 3213 3611 3725 
Q 3209 4238 2522 4238 
z
M 2522 4750 
Q 3503 4750 4090 4092 
Q 4678 3434 4678 2328 
Q 4678 1225 4090 567 
Q 3503 -91 2522 -91 
Q 1538 -91 948 565 
Q 359 1222 359 2328 
Q 359 3434 948 4092 
Q 1538 4750 2522 4750 
z
" transform="scale(0.015625)"/>
      <path id="DejaVuSans-73" d="M 2834 3397 
L 2834 2853 
Q 2591 2978 2328 3040 
Q 2066 3103 1784 3103 
Q 1356 3103 1142 2972 
Q 928 2841 928 2578 
Q 928 2378 1081 2264 
Q 1234 2150 1697 2047 
L 1894 2003 
Q 2506 1872 2764 1633 
Q 3022 1394 3022 966 
Q 3022 478 2636 193 
Q 2250 -91 1575 -91 
Q 1294 -91 989 -36 
Q 684 19 347 128 
L 347 722 
Q 666 556 975 473 
Q 1284 391 1588 391 
Q 1994 391 2212 530 
Q 2431 669 2431 922 
Q 2431 1156 2273 1281 
Q 2116 1406 1581 1522 
L 1381 1569 
Q 847 1681 609 1914 
Q 372 2147 372 2553 
Q 372 3047 722 3315 
Q 1072 3584 1716 3584 
Q 2034 3584 2315 3537 
Q 2597 3491 2834 3397 
z
" transform="scale(0.015625)"/>
      <path id="DejaVuSans-74" d="M 1172 4494 
L 1172 3500 
L 2356 3500 
L 2356 3053 
L 1172 3053 
L 1172 1153 
Q 1172 725 1289 603 
Q 1406 481 1766 481 
L 2356 481 
L 2356 0 
L 1766 0 
Q 1100 0 847 248 
Q 594 497 594 1153 
L 594 3053 
L 172 3053 
L 172 3500 
L 594 3500 
L 594 4494 
L 1172 4494 
z
" transform="scale(0.015625)"/>
     </defs>
     <use xlink:href="#DejaVuSans-48"/>
     <use xlink:href="#DejaVuSans-61" transform="translate(75.195312 0)"/>
     <use xlink:href="#DejaVuSans-72" transform="translate(136.474609 0)"/>
     <use xlink:href="#DejaVuSans-6d" transform="translate(175.837891 0)"/>
     <use xlink:href="#DejaVuSans-6f" transform="translate(273.25 0)"/>
     <use xlink:href="#DejaVuSans-6e" transform="translate(334.431641 0)"/>
     <use xlink:href="#DejaVuSans-69" transform="translate(397.810547 0)"/>
     <use xlink:href="#DejaVuSans-63" transform="translate(425.59375 0)"/>
     <use xlink:href="#DejaVuSans-20" transform="translate(480.574219 0)"/>
     <use xlink:href="#DejaVuSans-4f" transform="translate(512.361328 0)"/>
     <use xlink:href="#DejaVuSans-73" transform="translate(591.072266 0)"/>
     <use xlink:href="#DejaVuSans-63" transform="translate(643.171875 0)"/>
     <use xlink:href="#DejaVuSans-69" transform="translate(698.152344 0)"/>
     <use xlink:href="#DejaVuSans-6c" transform="translate(725.935547 0)"/>
     <use xlink:href="#DejaVuSans-6c" transform="translate(753.71875 0)"/>
     <use xlink:href="#DejaVuSans-61" transform="translate(781.501953 0)"/>
     <use xlink:href="#DejaVuSans-74" transform="translate(842.78125 0)"/>
     <use xlink:href="#DejaVuSans-6f" transform="translate(881.990234 0)"/>
     <use xlink:href="#DejaVuSans-72" transform="translate(943.171875 0)"/>
    </g>
   </g>
   <g id="PathCollection_1">
    <defs>
     <path id="m64bb033b30" d="M 0 3.535534 
C 0.937635 3.535534 1.836992 3.163008 2.5 2.5 
C 3.163008 1.836992 3.535534 0.937635 3.535534 0 
C 3.535534 -0.937635 3.163008 -1.836992 2.5 -2.5 
C 1.836992 -3.163008 0.937635 -3.535534 0 -3.535534 
C -0.937635 -3.535534 -1.836992 -3.163008 -2.5 -2.5 
C -3.163008 -1.836992 -3.535534 -0.937635 -3.535534 0 
C -3.535534 0.937635 -3.163008 1.836992 -2.5 2.5 
C -1.836992 3.163008 -0.937635 3.535534 0 3.535534 
z
" style="stroke: #0d0887"/>
    </defs>
    <g clip-path="url(#p907d774a6a)">
     <use xlink:href="#m64bb033b30" x="168.723897" y="279.8498" style="fill: #0d0887; stroke: #0d0887"/>
     <use xlink:href="#m64bb033b30" x="282.468603" y="279.8498" style="fill: #0d0887; stroke: #0d0887"/>
    </g>
   </g>
   <g id="PathCollection_2">
    <defs>
     <path id="m645a96a952" d="M 0 3.535534 
C 0.937635 3.535534 1.836992 3.163008 2.5 2.5 
C 3.163008 1.836992 3.535534 0.937635 3.535534 0 
C 3.535534 -0.937635 3.163008 -1.836992 2.5 -2.5 
C 1.836992 -3.163008 0.937635 -3.535534 0 -3.535534 
C -0.937635 -3.535534 -1.836992 -3.163008 -2.5 -2.5 
C -3.163008 -1.836992 -3.535534 -0.937635 -3.535534 0 
C -3.535534 0.937635 -3.163008 1.836992 -2.5 2.5 
C -1.836992 3.163008 -0.937635 3.535534 0 3.535534 
z
" style="stroke: #6f00a8"/>
    </defs>
    <g clip-path="url(#p907d774a6a)">
     <use xlink:href="#m645a96a952" x="127.090446" y="225.365997" style="fill: #6f00a8; stroke: #6f00a8"/>
     <use xlink:href="#m645a96a952" x="324.102054" y="225.365997" style="fill: #6f00a8; stroke: #6f00a8"/>
    </g>
   </g>
   <g id="PathCollection_3">
    <defs>
     <path id="m5047803e71" d="M 0 3.535534 
C 0.937635 3.535534 1.836992 3.163008 2.5 2.5 
C 3.163008 1.836992 3.535534 0.937635 3.535534 0 
C 3.535534 -0.937635 3.163008 -1.836992 2.5 -2.5 
C 1.836992 -3.163008 0.937635 -3.535534 0 -3.535534 
C -0.937635 -3.535534 -1.836992 -3.163008 -2.5 -2.5 
C -3.163008 -1.836992 -3.535534 -0.937635 -3.535534 0 
C -3.535534 0.937635 -3.163008 1.836992 -2.5 2.5 
C -1.836992 3.163008 -0.937635 3.535534 0 3.535534 
z
" style="stroke: #b7318a"/>
    </defs>
    <g clip-path="url(#p907d774a6a)">
     <use xlink:href="#m5047803e71" x="98.425803" y="170.882193" style="fill: #b7318a; stroke: #b7318a"/>
     <use xlink:href="#m5047803e71" x="352.766697" y="170.882193" style="fill: #b7318a; stroke: #b7318a"/>
    </g>
   </g>
   <g id="PathCollection_4">
    <defs>
     <path id="m92385105ca" d="M 0 3.535534 
C 0.937635 3.535534 1.836992 3.163008 2.5 2.5 
C 3.163008 1.836992 3.535534 0.937635 3.535534 0 
C 3.535534 -0.937635 3.163008 -1.836992 2.5 -2.5 
C 1.836992 -3.163008 0.937635 -3.535534 0 -3.535534 
C -0.937635 -3.535534 -1.836992 -3.163008 -2.5 -2.5 
C -3.163008 -1.836992 -3.535534 -0.937635 -3.535534 0 
C -3.535534 0.937635 -3.163008 1.836992 -2.5 2.5 
C -1.836992 3.163008 -0.937635 3.535534 0 3.535534 
z
" style="stroke: #e87059"/>
    </defs>
    <g clip-path="url(#p907d774a6a)">
     <use xlink:href="#m92385105ca" x="75.126148" y="116.39839" style="fill: #e87059; stroke: #e87059"/>
     <use xlink:href="#m92385105ca" x="376.066352" y="116.39839" style="fill: #e87059; stroke: #e87059"/>
    </g>
   </g>
   <g id="PathCollection_5">
    <defs>
     <path id="mf02ce823bf" d="M 0 3.535534 
C 0.937635 3.535534 1.836992 3.163008 2.5 2.5 
C 3.163008 1.836992 3.535534 0.937635 3.535534 0 
C 3.535534 -0.937635 3.163008 -1.836992 2.5 -2.5 
C 1.836992 -3.163008 0.937635 -3.535534 0 -3.535534 
C -0.937635 -3.535534 -1.836992 -3.163008 -2.5 -2.5 
C -3.163008 -1.836992 -3.535534 -0.937635 -3.535534 0 
C -3.535534 0.937635 -3.163008 1.836992 -2.5 2.5 
C -1.836992 3.163008 -0.937635 3.535534 0 3.535534 
z
" style="stroke: #feba2c"/>
    </defs>
    <g clip-path="url(#p907d774a6a)">
     <use xlink:href="#mf02ce823bf" x="54.979192" y="61.914587" style="fill: #feba2c; stroke: #feba2c"/>
     <use xlink:href="#mf02ce823bf" x="396.213308" y="61.914587" style="fill: #feba2c; stroke: #feba2c"/>
    </g>
   </g>
  </g>
 </g>
 <defs>
  <clipPath id="p907d774a6a">
   <rect x="36.55625" y="37.396875" width="378.08" height="277.4"/>
  </clipPath>
 </defs>
</svg>
