<?xml version="1.0" encoding="utf-8" standalone="no"?>
<!DOCTYPE svg PUBLIC "-//W3C//DTD SVG 1.1//EN"
  "http://www.w3.org/Graphics/SVG/1.1/DTD/svg11.dtd">
<svg xmlns:xlink="http://www.w3.org/1999/xlink" width="1008pt" height="576pt" viewBox="0 0 1008 576" xmlns="http://www.w3.org/2000/svg" version="1.1">
 <metadata>
  <rdf:RDF xmlns:dc="http://purl.org/dc/elements/1.1/" xmlns:cc="http://creativecommons.org/ns#" xmlns:rdf="http://www.w3.org/1999/02/22-rdf-syntax-ns#">
   <cc:Work>
    <dc:type rdf:resource="http://purl.org/dc/dcmitype/StillImage"/>
    <dc:date>2026-02-12T00:39:05.507678</dc:date>
    <dc:format>image/svg+xml</dc:format>
    <dc:creator>
     <cc:Agent>
      <dc:title>Matplotlib v3.10.8, https://matplotlib.org/</dc:title>
     </cc:Agent>
    </dc:creator>
   </cc:Work>
  </rdf:RDF>
 </metadata>
 <defs>
  <style type="text/css">*{stroke-linejoin: round; stroke-linecap: butt}</style>
 </defs>
 <g id="figure_1">
  <g id="patch_1">
   <path d="M 0 576 
L 1008 576 
L 1008 0 
L 0 0 
z
" style="fill: #ffffff"/>
  </g>
  <g id="axes_1">
   <g id="patch_2">
    <path d="M 94.613365 490.906635 
L 1004.99976 490.906635 
L 1004.99976 32.61024 
L 94.613365 32.61024 
z
" style="fill: #ffffff"/>
   </g>
   <g id="matplotlib.axis_1">
    <g id="xtick_1">
     <g id="line2d_1">
      <path d="M 196.409618 490.906635 
L 196.409618 32.61024 
" clip-path="url(#p6d4a0aeb3f)" style="fill: none; stroke: #cccccc; stroke-opacity: 0.3; stroke-width: 1.5; stroke-linecap: round"/>
     </g>
     <g id="line2d_2">
      <defs>
       <path id="mb192b03928" d="M 0 0 
L 0 12 
" style="stroke: #262626; stroke-width: 4"/>
      </defs>
      <g>
       <use xlink:href="#mb192b03928" x="196.409618" y="490.906635" style="fill: #262626; stroke: #262626; stroke-width: 4"/>
      </g>
     </g>
     <g id="text_1">
      <!-- $\mathdefault{10^{-13}}$ -->
      <g style="fill: #262626" transform="translate(163.229618 535.32101) scale(0.28 -0.28)">
       <defs>
        <path id="Arial-BoldMT-31" d="M 2519 0 
L 1641 0 
L 1641 3309 
Q 1159 2859 506 2644 
L 506 3441 
Q 850 3553 1253 3867 
Q 1656 4181 1806 4600 
L 2519 4600 
L 2519 0 
z
" transform="scale(0.015625)"/>
        <path id="Arial-BoldMT-30" d="M 1756 4600 
Q 2422 4600 2797 4125 
Q 3244 3563 3244 2259 
Q 3244 959 2794 391 
Q 2422 -78 1756 -78 
Q 1088 -78 678 436 
Q 269 950 269 2269 
Q 269 3563 719 4131 
Q 1091 4600 1756 4600 
z
M 1756 3872 
Q 1597 3872 1472 3770 
Q 1347 3669 1278 3406 
Q 1188 3066 1188 2259 
Q 1188 1453 1269 1151 
Q 1350 850 1473 750 
Q 1597 650 1756 650 
Q 1916 650 2041 751 
Q 2166 853 2234 1116 
Q 2325 1453 2325 2259 
Q 2325 3066 2244 3367 
Q 2163 3669 2039 3770 
Q 1916 3872 1756 3872 
z
" transform="scale(0.015625)"/>
        <path id="Arial-BoldMT-2212" d="M 266 1850 
L 266 2672 
L 3469 2672 
L 3469 1850 
L 266 1850 
z
" transform="scale(0.015625)"/>
        <path id="Arial-BoldMT-33" d="M 241 1216 
L 1091 1319 
Q 1131 994 1309 822 
Q 1488 650 1741 650 
Q 2013 650 2198 856 
Q 2384 1063 2384 1413 
Q 2384 1744 2206 1937 
Q 2028 2131 1772 2131 
Q 1603 2131 1369 2066 
L 1466 2781 
Q 1822 2772 2009 2936 
Q 2197 3100 2197 3372 
Q 2197 3603 2059 3740 
Q 1922 3878 1694 3878 
Q 1469 3878 1309 3722 
Q 1150 3566 1116 3266 
L 306 3403 
Q 391 3819 561 4067 
Q 731 4316 1036 4458 
Q 1341 4600 1719 4600 
Q 2366 4600 2756 4188 
Q 3078 3850 3078 3425 
Q 3078 2822 2419 2463 
Q 2813 2378 3048 2084 
Q 3284 1791 3284 1375 
Q 3284 772 2843 347 
Q 2403 -78 1747 -78 
Q 1125 -78 715 280 
Q 306 638 241 1216 
z
" transform="scale(0.015625)"/>
       </defs>
       <use xlink:href="#Arial-BoldMT-31" transform="translate(0 0.99375)"/>
       <use xlink:href="#Arial-BoldMT-30" transform="translate(55.615234 0.99375)"/>
       <use xlink:href="#Arial-BoldMT-2212" transform="translate(112.972813 70.6875) scale(0.7)"/>
       <use xlink:href="#Arial-BoldMT-31" transform="translate(153.851719 70.6875) scale(0.7)"/>
       <use xlink:href="#Arial-BoldMT-33" transform="translate(192.782383 70.6875) scale(0.7)"/>
      </g>
     </g>
    </g>
    <g id="xtick_2">
     <g id="line2d_3">
      <path d="M 317.239723 490.906635 
L 317.239723 32.61024 
" clip-path="url(#p6d4a0aeb3f)" style="fill: none; stroke: #cccccc; stroke-opacity: 0.3; stroke-width: 1.5; stroke-linecap: round"/>
     </g>
     <g id="line2d_4">
      <g>
       <use xlink:href="#mb192b03928" x="317.239723" y="490.906635" style="fill: #262626; stroke: #262626; stroke-width: 4"/>
      </g>
     </g>
     <g id="text_2">
      <!-- $\mathdefault{10^{-11}}$ -->
      <g style="fill: #262626" transform="translate(284.059723 535.32101) scale(0.28 -0.28)">
       <use xlink:href="#Arial-BoldMT-31" transform="translate(0 0.99375)"/>
       <use xlink:href="#Arial-BoldMT-30" transform="translate(55.615234 0.99375)"/>
       <use xlink:href="#Arial-BoldMT-2212" transform="translate(112.972813 70.6875) scale(0.7)"/>
       <use xlink:href="#Arial-BoldMT-31" transform="translate(153.851719 70.6875) scale(0.7)"/>
       <use xlink:href="#Arial-BoldMT-31" transform="translate(192.782383 70.6875) scale(0.7)"/>
      </g>
     </g>
    </g>
    <g id="xtick_3">
     <g id="line2d_5">
      <path d="M 438.069829 490.906635 
L 438.069829 32.61024 
" clip-path="url(#p6d4a0aeb3f)" style="fill: none; stroke: #cccccc; stroke-opacity: 0.3; stroke-width: 1.5; stroke-linecap: round"/>
     </g>
     <g id="line2d_6">
      <g>
       <use xlink:href="#mb192b03928" x="438.069829" y="490.906635" style="fill: #262626; stroke: #262626; stroke-width: 4"/>
      </g>
     </g>
     <g id="text_3">
      <!-- $\mathdefault{10^{-9}}$ -->
      <g style="fill: #262626" transform="translate(410.349829 535.32101) scale(0.28 -0.28)">
       <defs>
        <path id="Arial-BoldMT-39" d="M 291 1059 
L 1141 1153 
Q 1172 894 1303 769 
Q 1434 644 1650 644 
Q 1922 644 2112 894 
Q 2303 1144 2356 1931 
Q 2025 1547 1528 1547 
Q 988 1547 595 1964 
Q 203 2381 203 3050 
Q 203 3747 617 4173 
Q 1031 4600 1672 4600 
Q 2369 4600 2816 4061 
Q 3263 3522 3263 2288 
Q 3263 1031 2797 475 
Q 2331 -81 1584 -81 
Q 1047 -81 715 205 
Q 384 491 291 1059 
z
M 2278 2978 
Q 2278 3403 2083 3637 
Q 1888 3872 1631 3872 
Q 1388 3872 1227 3680 
Q 1066 3488 1066 3050 
Q 1066 2606 1241 2398 
Q 1416 2191 1678 2191 
Q 1931 2191 2104 2391 
Q 2278 2591 2278 2978 
z
" transform="scale(0.015625)"/>
       </defs>
       <use xlink:href="#Arial-BoldMT-31" transform="translate(0 0.99375)"/>
       <use xlink:href="#Arial-BoldMT-30" transform="translate(55.615234 0.99375)"/>
       <use xlink:href="#Arial-BoldMT-2212" transform="translate(112.972813 70.6875) scale(0.7)"/>
       <use xlink:href="#Arial-BoldMT-39" transform="translate(153.851719 70.6875) scale(0.7)"/>
      </g>
     </g>
    </g>
    <g id="xtick_4">
     <g id="line2d_7">
      <path d="M 558.899934 490.906635 
L 558.899934 32.61024 
" clip-path="url(#p6d4a0aeb3f)" style="fill: none; stroke: #cccccc; stroke-opacity: 0.3; stroke-width: 1.5; stroke-linecap: round"/>
     </g>
     <g id="line2d_8">
      <g>
       <use xlink:href="#mb192b03928" x="558.899934" y="490.906635" style="fill: #262626; stroke: #262626; stroke-width: 4"/>
      </g>
     </g>
     <g id="text_4">
      <!-- $\mathdefault{10^{-7}}$ -->
      <g style="fill: #262626" transform="translate(531.179934 535.04101) scale(0.28 -0.28)">
       <defs>
        <path id="Arial-BoldMT-37" d="M 272 3703 
L 272 4519 
L 3275 4519 
L 3275 3881 
Q 2903 3516 2518 2831 
Q 2134 2147 1932 1376 
Q 1731 606 1734 0 
L 888 0 
Q 909 950 1279 1937 
Q 1650 2925 2269 3703 
L 272 3703 
z
" transform="scale(0.015625)"/>
       </defs>
       <use xlink:href="#Arial-BoldMT-31" transform="translate(0 0.879688)"/>
       <use xlink:href="#Arial-BoldMT-30" transform="translate(55.615234 0.879688)"/>
       <use xlink:href="#Arial-BoldMT-2212" transform="translate(112.972813 70.573438) scale(0.7)"/>
       <use xlink:href="#Arial-BoldMT-37" transform="translate(153.851719 70.573438) scale(0.7)"/>
      </g>
     </g>
    </g>
    <g id="xtick_5">
     <g id="line2d_9">
      <path d="M 679.73004 490.906635 
L 679.73004 32.61024 
" clip-path="url(#p6d4a0aeb3f)" style="fill: none; stroke: #cccccc; stroke-opacity: 0.3; stroke-width: 1.5; stroke-linecap: round"/>
     </g>
     <g id="line2d_10">
      <g>
       <use xlink:href="#mb192b03928" x="679.73004" y="490.906635" style="fill: #262626; stroke: #262626; stroke-width: 4"/>
      </g>
     </g>
     <g id="text_5">
      <!-- $\mathdefault{10^{-5}}$ -->
      <g style="fill: #262626" transform="translate(652.01004 535.04101) scale(0.28 -0.28)">
       <defs>
        <path id="Arial-BoldMT-35" d="M 284 1178 
L 1159 1269 
Q 1197 972 1381 798 
Q 1566 625 1806 625 
Q 2081 625 2272 848 
Q 2463 1072 2463 1522 
Q 2463 1944 2273 2155 
Q 2084 2366 1781 2366 
Q 1403 2366 1103 2031 
L 391 2134 
L 841 4519 
L 3163 4519 
L 3163 3697 
L 1506 3697 
L 1369 2919 
Q 1663 3066 1969 3066 
Q 2553 3066 2959 2641 
Q 3366 2216 3366 1538 
Q 3366 972 3038 528 
Q 2591 -78 1797 -78 
Q 1163 -78 763 262 
Q 363 603 284 1178 
z
" transform="scale(0.015625)"/>
       </defs>
       <use xlink:href="#Arial-BoldMT-31" transform="translate(0 0.879688)"/>
       <use xlink:href="#Arial-BoldMT-30" transform="translate(55.615234 0.879688)"/>
       <use xlink:href="#Arial-BoldMT-2212" transform="translate(112.972813 70.573438) scale(0.7)"/>
       <use xlink:href="#Arial-BoldMT-35" transform="translate(153.851719 70.573438) scale(0.7)"/>
      </g>
     </g>
    </g>
    <g id="xtick_6">
     <g id="line2d_11">
      <path d="M 800.560145 490.906635 
L 800.560145 32.61024 
" clip-path="url(#p6d4a0aeb3f)" style="fill: none; stroke: #cccccc; stroke-opacity: 0.3; stroke-width: 1.5; stroke-linecap: round"/>
     </g>
     <g id="line2d_12">
      <g>
       <use xlink:href="#mb192b03928" x="800.560145" y="490.906635" style="fill: #262626; stroke: #262626; stroke-width: 4"/>
      </g>
     </g>
     <g id="text_6">
      <!-- $\mathdefault{10^{-3}}$ -->
      <g style="fill: #262626" transform="translate(772.840145 535.32101) scale(0.28 -0.28)">
       <use xlink:href="#Arial-BoldMT-31" transform="translate(0 0.99375)"/>
       <use xlink:href="#Arial-BoldMT-30" transform="translate(55.615234 0.99375)"/>
       <use xlink:href="#Arial-BoldMT-2212" transform="translate(112.972813 70.6875) scale(0.7)"/>
       <use xlink:href="#Arial-BoldMT-33" transform="translate(153.851719 70.6875) scale(0.7)"/>
      </g>
     </g>
    </g>
    <g id="xtick_7">
     <g id="line2d_13">
      <path d="M 921.390251 490.906635 
L 921.390251 32.61024 
" clip-path="url(#p6d4a0aeb3f)" style="fill: none; stroke: #cccccc; stroke-opacity: 0.3; stroke-width: 1.5; stroke-linecap: round"/>
     </g>
     <g id="line2d_14">
      <g>
       <use xlink:href="#mb192b03928" x="921.390251" y="490.906635" style="fill: #262626; stroke: #262626; stroke-width: 4"/>
      </g>
     </g>
     <g id="text_7">
      <!-- $\mathdefault{10^{-1}}$ -->
      <g style="fill: #262626" transform="translate(893.670251 535.32101) scale(0.28 -0.28)">
       <use xlink:href="#Arial-BoldMT-31" transform="translate(0 0.99375)"/>
       <use xlink:href="#Arial-BoldMT-30" transform="translate(55.615234 0.99375)"/>
       <use xlink:href="#Arial-BoldMT-2212" transform="translate(112.972813 70.6875) scale(0.7)"/>
       <use xlink:href="#Arial-BoldMT-31" transform="translate(153.851719 70.6875) scale(0.7)"/>
      </g>
     </g>
    </g>
    <g id="text_8">
     <!-- Shift Parameter (log) -->
     <g style="fill: #262626" transform="translate(402.288594 566.685697) scale(0.3 -0.3)">
      <defs>
       <path id="Arial-BoldMT-53" d="M 231 1491 
L 1131 1578 
Q 1213 1125 1461 912 
Q 1709 700 2131 700 
Q 2578 700 2804 889 
Q 3031 1078 3031 1331 
Q 3031 1494 2936 1608 
Q 2841 1722 2603 1806 
Q 2441 1863 1863 2006 
Q 1119 2191 819 2459 
Q 397 2838 397 3381 
Q 397 3731 595 4036 
Q 794 4341 1167 4500 
Q 1541 4659 2069 4659 
Q 2931 4659 3367 4281 
Q 3803 3903 3825 3272 
L 2900 3231 
Q 2841 3584 2645 3739 
Q 2450 3894 2059 3894 
Q 1656 3894 1428 3728 
Q 1281 3622 1281 3444 
Q 1281 3281 1419 3166 
Q 1594 3019 2269 2859 
Q 2944 2700 3267 2529 
Q 3591 2359 3773 2064 
Q 3956 1769 3956 1334 
Q 3956 941 3737 597 
Q 3519 253 3119 86 
Q 2719 -81 2122 -81 
Q 1253 -81 787 320 
Q 322 722 231 1491 
z
" transform="scale(0.015625)"/>
       <path id="Arial-BoldMT-68" d="M 1334 4581 
L 1334 2897 
Q 1759 3394 2350 3394 
Q 2653 3394 2897 3281 
Q 3141 3169 3264 2994 
Q 3388 2819 3433 2606 
Q 3478 2394 3478 1947 
L 3478 0 
L 2600 0 
L 2600 1753 
Q 2600 2275 2550 2415 
Q 2500 2556 2373 2639 
Q 2247 2722 2056 2722 
Q 1838 2722 1666 2615 
Q 1494 2509 1414 2295 
Q 1334 2081 1334 1663 
L 1334 0 
L 456 0 
L 456 4581 
L 1334 4581 
z
" transform="scale(0.015625)"/>
       <path id="Arial-BoldMT-69" d="M 459 3769 
L 459 4581 
L 1338 4581 
L 1338 3769 
L 459 3769 
z
M 459 0 
L 459 3319 
L 1338 3319 
L 1338 0 
L 459 0 
z
" transform="scale(0.015625)"/>
       <path id="Arial-BoldMT-66" d="M 75 3319 
L 563 3319 
L 563 3569 
Q 563 3988 652 4194 
Q 741 4400 980 4529 
Q 1219 4659 1584 4659 
Q 1959 4659 2319 4547 
L 2200 3934 
Q 1991 3984 1797 3984 
Q 1606 3984 1523 3895 
Q 1441 3806 1441 3553 
L 1441 3319 
L 2097 3319 
L 2097 2628 
L 1441 2628 
L 1441 0 
L 563 0 
L 563 2628 
L 75 2628 
L 75 3319 
z
" transform="scale(0.015625)"/>
       <path id="Arial-BoldMT-74" d="M 1981 3319 
L 1981 2619 
L 1381 2619 
L 1381 1281 
Q 1381 875 1398 808 
Q 1416 741 1477 697 
Q 1538 653 1625 653 
Q 1747 653 1978 738 
L 2053 56 
Q 1747 -75 1359 -75 
Q 1122 -75 931 4 
Q 741 84 652 211 
Q 563 338 528 553 
Q 500 706 500 1172 
L 500 2619 
L 97 2619 
L 97 3319 
L 500 3319 
L 500 3978 
L 1381 4491 
L 1381 3319 
L 1981 3319 
z
" transform="scale(0.015625)"/>
       <path id="Arial-BoldMT-20" transform="scale(0.015625)"/>
       <path id="Arial-BoldMT-50" d="M 466 0 
L 466 4581 
L 1950 4581 
Q 2794 4581 3050 4513 
Q 3444 4409 3709 4064 
Q 3975 3719 3975 3172 
Q 3975 2750 3822 2462 
Q 3669 2175 3433 2011 
Q 3197 1847 2953 1794 
Q 2622 1728 1994 1728 
L 1391 1728 
L 1391 0 
L 466 0 
z
M 1391 3806 
L 1391 2506 
L 1897 2506 
Q 2444 2506 2628 2578 
Q 2813 2650 2917 2803 
Q 3022 2956 3022 3159 
Q 3022 3409 2875 3571 
Q 2728 3734 2503 3775 
Q 2338 3806 1838 3806 
L 1391 3806 
z
" transform="scale(0.015625)"/>
       <path id="Arial-BoldMT-61" d="M 1116 2306 
L 319 2450 
Q 453 2931 781 3162 
Q 1109 3394 1756 3394 
Q 2344 3394 2631 3255 
Q 2919 3116 3036 2902 
Q 3153 2688 3153 2116 
L 3144 1091 
Q 3144 653 3186 445 
Q 3228 238 3344 0 
L 2475 0 
Q 2441 88 2391 259 
Q 2369 338 2359 363 
Q 2134 144 1878 34 
Q 1622 -75 1331 -75 
Q 819 -75 523 203 
Q 228 481 228 906 
Q 228 1188 362 1408 
Q 497 1628 739 1745 
Q 981 1863 1438 1950 
Q 2053 2066 2291 2166 
L 2291 2253 
Q 2291 2506 2166 2614 
Q 2041 2722 1694 2722 
Q 1459 2722 1328 2630 
Q 1197 2538 1116 2306 
z
M 2291 1594 
Q 2122 1538 1756 1459 
Q 1391 1381 1278 1306 
Q 1106 1184 1106 997 
Q 1106 813 1243 678 
Q 1381 544 1594 544 
Q 1831 544 2047 700 
Q 2206 819 2256 991 
Q 2291 1103 2291 1419 
L 2291 1594 
z
" transform="scale(0.015625)"/>
       <path id="Arial-BoldMT-72" d="M 1300 0 
L 422 0 
L 422 3319 
L 1238 3319 
L 1238 2847 
Q 1447 3181 1614 3287 
Q 1781 3394 1994 3394 
Q 2294 3394 2572 3228 
L 2300 2463 
Q 2078 2606 1888 2606 
Q 1703 2606 1575 2504 
Q 1447 2403 1373 2137 
Q 1300 1872 1300 1025 
L 1300 0 
z
" transform="scale(0.015625)"/>
       <path id="Arial-BoldMT-6d" d="M 394 3319 
L 1203 3319 
L 1203 2866 
Q 1638 3394 2238 3394 
Q 2556 3394 2790 3262 
Q 3025 3131 3175 2866 
Q 3394 3131 3647 3262 
Q 3900 3394 4188 3394 
Q 4553 3394 4806 3245 
Q 5059 3097 5184 2809 
Q 5275 2597 5275 2122 
L 5275 0 
L 4397 0 
L 4397 1897 
Q 4397 2391 4306 2534 
Q 4184 2722 3931 2722 
Q 3747 2722 3584 2609 
Q 3422 2497 3350 2280 
Q 3278 2063 3278 1594 
L 3278 0 
L 2400 0 
L 2400 1819 
Q 2400 2303 2353 2443 
Q 2306 2584 2207 2653 
Q 2109 2722 1941 2722 
Q 1738 2722 1575 2612 
Q 1413 2503 1342 2297 
Q 1272 2091 1272 1613 
L 1272 0 
L 394 0 
L 394 3319 
z
" transform="scale(0.015625)"/>
       <path id="Arial-BoldMT-65" d="M 2381 1056 
L 3256 909 
Q 3088 428 2723 176 
Q 2359 -75 1813 -75 
Q 947 -75 531 491 
Q 203 944 203 1634 
Q 203 2459 634 2926 
Q 1066 3394 1725 3394 
Q 2466 3394 2894 2905 
Q 3322 2416 3303 1406 
L 1103 1406 
Q 1113 1016 1316 798 
Q 1519 581 1822 581 
Q 2028 581 2168 693 
Q 2309 806 2381 1056 
z
M 2431 1944 
Q 2422 2325 2234 2523 
Q 2047 2722 1778 2722 
Q 1491 2722 1303 2513 
Q 1116 2303 1119 1944 
L 2431 1944 
z
" transform="scale(0.015625)"/>
       <path id="Arial-BoldMT-28" d="M 1916 -1347 
L 1313 -1347 
Q 834 -625 584 153 
Q 334 931 334 1659 
Q 334 2563 644 3369 
Q 913 4069 1325 4659 
L 1925 4659 
Q 1497 3713 1336 3048 
Q 1175 2384 1175 1641 
Q 1175 1128 1270 590 
Q 1366 53 1531 -431 
Q 1641 -750 1916 -1347 
z
" transform="scale(0.015625)"/>
       <path id="Arial-BoldMT-6c" d="M 459 0 
L 459 4581 
L 1338 4581 
L 1338 0 
L 459 0 
z
" transform="scale(0.015625)"/>
       <path id="Arial-BoldMT-6f" d="M 256 1706 
Q 256 2144 472 2553 
Q 688 2963 1083 3178 
Q 1478 3394 1966 3394 
Q 2719 3394 3200 2905 
Q 3681 2416 3681 1669 
Q 3681 916 3195 420 
Q 2709 -75 1972 -75 
Q 1516 -75 1102 131 
Q 688 338 472 736 
Q 256 1134 256 1706 
z
M 1156 1659 
Q 1156 1166 1390 903 
Q 1625 641 1969 641 
Q 2313 641 2545 903 
Q 2778 1166 2778 1666 
Q 2778 2153 2545 2415 
Q 2313 2678 1969 2678 
Q 1625 2678 1390 2415 
Q 1156 2153 1156 1659 
z
" transform="scale(0.015625)"/>
       <path id="Arial-BoldMT-67" d="M 378 -219 
L 1381 -341 
Q 1406 -516 1497 -581 
Q 1622 -675 1891 -675 
Q 2234 -675 2406 -572 
Q 2522 -503 2581 -350 
Q 2622 -241 2622 53 
L 2622 538 
Q 2228 0 1628 0 
Q 959 0 569 566 
Q 263 1013 263 1678 
Q 263 2513 664 2953 
Q 1066 3394 1663 3394 
Q 2278 3394 2678 2853 
L 2678 3319 
L 3500 3319 
L 3500 341 
Q 3500 -247 3403 -537 
Q 3306 -828 3131 -993 
Q 2956 -1159 2664 -1253 
Q 2372 -1347 1925 -1347 
Q 1081 -1347 728 -1058 
Q 375 -769 375 -325 
Q 375 -281 378 -219 
z
M 1163 1728 
Q 1163 1200 1367 954 
Q 1572 709 1872 709 
Q 2194 709 2416 961 
Q 2638 1213 2638 1706 
Q 2638 2222 2425 2472 
Q 2213 2722 1888 2722 
Q 1572 2722 1367 2476 
Q 1163 2231 1163 1728 
z
" transform="scale(0.015625)"/>
       <path id="Arial-BoldMT-29" d="M 216 -1347 
Q 475 -791 581 -494 
Q 688 -197 778 190 
Q 869 578 912 926 
Q 956 1275 956 1641 
Q 956 2384 797 3048 
Q 638 3713 209 4659 
L 806 4659 
Q 1278 3988 1539 3234 
Q 1800 2481 1800 1706 
Q 1800 1053 1594 306 
Q 1359 -531 822 -1347 
L 216 -1347 
z
" transform="scale(0.015625)"/>
      </defs>
      <use xlink:href="#Arial-BoldMT-53"/>
      <use xlink:href="#Arial-BoldMT-68" transform="translate(66.699219 0)"/>
      <use xlink:href="#Arial-BoldMT-69" transform="translate(127.783203 0)"/>
      <use xlink:href="#Arial-BoldMT-66" transform="translate(155.566406 0)"/>
      <use xlink:href="#Arial-BoldMT-74" transform="translate(188.867188 0)"/>
      <use xlink:href="#Arial-BoldMT-20" transform="translate(222.167969 0)"/>
      <use xlink:href="#Arial-BoldMT-50" transform="translate(249.951172 0)"/>
      <use xlink:href="#Arial-BoldMT-61" transform="translate(316.650391 0)"/>
      <use xlink:href="#Arial-BoldMT-72" transform="translate(372.265625 0)"/>
      <use xlink:href="#Arial-BoldMT-61" transform="translate(411.181641 0)"/>
      <use xlink:href="#Arial-BoldMT-6d" transform="translate(466.796875 0)"/>
      <use xlink:href="#Arial-BoldMT-65" transform="translate(555.712891 0)"/>
      <use xlink:href="#Arial-BoldMT-74" transform="translate(611.328125 0)"/>
      <use xlink:href="#Arial-BoldMT-65" transform="translate(644.628906 0)"/>
      <use xlink:href="#Arial-BoldMT-72" transform="translate(700.244141 0)"/>
      <use xlink:href="#Arial-BoldMT-20" transform="translate(739.160156 0)"/>
      <use xlink:href="#Arial-BoldMT-28" transform="translate(766.943359 0)"/>
      <use xlink:href="#Arial-BoldMT-6c" transform="translate(800.244141 0)"/>
      <use xlink:href="#Arial-BoldMT-6f" transform="translate(828.027344 0)"/>
      <use xlink:href="#Arial-BoldMT-67" transform="translate(889.111328 0)"/>
      <use xlink:href="#Arial-BoldMT-29" transform="translate(950.195312 0)"/>
     </g>
    </g>
   </g>
   <g id="matplotlib.axis_2">
    <g id="ytick_1">
     <g id="line2d_15">
      <path d="M 94.613365 366.223561 
L 1004.99976 366.223561 
" clip-path="url(#p6d4a0aeb3f)" style="fill: none; stroke: #cccccc; stroke-opacity: 0.3; stroke-width: 1.5; stroke-linecap: round"/>
     </g>
     <g id="line2d_16">
      <defs>
       <path id="m984b6a29fb" d="M 0 0 
L -12 0 
" style="stroke: #262626; stroke-width: 4"/>
      </defs>
      <g>
       <use xlink:href="#m984b6a29fb" x="94.613365" y="366.223561" style="fill: #262626; stroke: #262626; stroke-width: 4"/>
      </g>
     </g>
     <g id="text_9">
      <!-- $\mathdefault{10^{0}}$ -->
      <g style="fill: #262626" transform="translate(35.153365 380.680749) scale(0.28 -0.28)">
       <use xlink:href="#Arial-BoldMT-31" transform="translate(0 0.99375)"/>
       <use xlink:href="#Arial-BoldMT-30" transform="translate(55.615234 0.99375)"/>
       <use xlink:href="#Arial-BoldMT-30" transform="translate(112.972813 70.6875) scale(0.7)"/>
      </g>
     </g>
    </g>
    <g id="ytick_2">
     <g id="line2d_17">
      <path d="M 94.613365 119.183832 
L 1004.99976 119.183832 
" clip-path="url(#p6d4a0aeb3f)" style="fill: none; stroke: #cccccc; stroke-opacity: 0.3; stroke-width: 1.5; stroke-linecap: round"/>
     </g>
     <g id="line2d_18">
      <g>
       <use xlink:href="#m984b6a29fb" x="94.613365" y="119.183832" style="fill: #262626; stroke: #262626; stroke-width: 4"/>
      </g>
     </g>
     <g id="text_10">
      <!-- $\mathdefault{10^{1}}$ -->
      <g style="fill: #262626" transform="translate(35.153365 133.64102) scale(0.28 -0.28)">
       <use xlink:href="#Arial-BoldMT-31" transform="translate(0 0.99375)"/>
       <use xlink:href="#Arial-BoldMT-30" transform="translate(55.615234 0.99375)"/>
       <use xlink:href="#Arial-BoldMT-31" transform="translate(112.972813 70.6875) scale(0.7)"/>
      </g>
     </g>
    </g>
    <g id="ytick_3">
     <g id="line2d_19">
      <path d="M 94.613365 464.530553 
L 1004.99976 464.530553 
" clip-path="url(#p6d4a0aeb3f)" style="fill: none; stroke: #cccccc; stroke-opacity: 0.3; stroke-width: 1.5; stroke-linecap: round"/>
     </g>
     <g id="line2d_20">
      <defs>
       <path id="m93c43a7cb5" d="M 0 0 
L -6 0 
" style="stroke: #262626; stroke-width: 1.5"/>
      </defs>
      <g>
       <use xlink:href="#m93c43a7cb5" x="94.613365" y="464.530553" style="fill: #262626; stroke: #262626; stroke-width: 1.5"/>
      </g>
     </g>
    </g>
    <g id="ytick_4">
     <g id="line2d_21">
      <path d="M 94.613365 440.58993 
L 1004.99976 440.58993 
" clip-path="url(#p6d4a0aeb3f)" style="fill: none; stroke: #cccccc; stroke-opacity: 0.3; stroke-width: 1.5; stroke-linecap: round"/>
     </g>
     <g id="line2d_22">
      <g>
       <use xlink:href="#m93c43a7cb5" x="94.613365" y="440.58993" style="fill: #262626; stroke: #262626; stroke-width: 1.5"/>
      </g>
     </g>
    </g>
    <g id="ytick_5">
     <g id="line2d_23">
      <path d="M 94.613365 421.029016 
L 1004.99976 421.029016 
" clip-path="url(#p6d4a0aeb3f)" style="fill: none; stroke: #cccccc; stroke-opacity: 0.3; stroke-width: 1.5; stroke-linecap: round"/>
     </g>
     <g id="line2d_24">
      <g>
       <use xlink:href="#m93c43a7cb5" x="94.613365" y="421.029016" style="fill: #262626; stroke: #262626; stroke-width: 1.5"/>
      </g>
     </g>
    </g>
    <g id="ytick_6">
     <g id="line2d_25">
      <path d="M 94.613365 404.490499 
L 1004.99976 404.490499 
" clip-path="url(#p6d4a0aeb3f)" style="fill: none; stroke: #cccccc; stroke-opacity: 0.3; stroke-width: 1.5; stroke-linecap: round"/>
     </g>
     <g id="line2d_26">
      <g>
       <use xlink:href="#m93c43a7cb5" x="94.613365" y="404.490499" style="fill: #262626; stroke: #262626; stroke-width: 1.5"/>
      </g>
     </g>
    </g>
    <g id="ytick_7">
     <g id="line2d_27">
      <path d="M 94.613365 390.164185 
L 1004.99976 390.164185 
" clip-path="url(#p6d4a0aeb3f)" style="fill: none; stroke: #cccccc; stroke-opacity: 0.3; stroke-width: 1.5; stroke-linecap: round"/>
     </g>
     <g id="line2d_28">
      <g>
       <use xlink:href="#m93c43a7cb5" x="94.613365" y="390.164185" style="fill: #262626; stroke: #262626; stroke-width: 1.5"/>
      </g>
     </g>
    </g>
    <g id="ytick_8">
     <g id="line2d_29">
      <path d="M 94.613365 377.527479 
L 1004.99976 377.527479 
" clip-path="url(#p6d4a0aeb3f)" style="fill: none; stroke: #cccccc; stroke-opacity: 0.3; stroke-width: 1.5; stroke-linecap: round"/>
     </g>
     <g id="line2d_30">
      <g>
       <use xlink:href="#m93c43a7cb5" x="94.613365" y="377.527479" style="fill: #262626; stroke: #262626; stroke-width: 1.5"/>
      </g>
     </g>
    </g>
    <g id="ytick_9">
     <g id="line2d_31">
      <path d="M 94.613365 291.857193 
L 1004.99976 291.857193 
" clip-path="url(#p6d4a0aeb3f)" style="fill: none; stroke: #cccccc; stroke-opacity: 0.3; stroke-width: 1.5; stroke-linecap: round"/>
     </g>
     <g id="line2d_32">
      <g>
       <use xlink:href="#m93c43a7cb5" x="94.613365" y="291.857193" style="fill: #262626; stroke: #262626; stroke-width: 1.5"/>
      </g>
     </g>
    </g>
    <g id="ytick_10">
     <g id="line2d_33">
      <path d="M 94.613365 248.355656 
L 1004.99976 248.355656 
" clip-path="url(#p6d4a0aeb3f)" style="fill: none; stroke: #cccccc; stroke-opacity: 0.3; stroke-width: 1.5; stroke-linecap: round"/>
     </g>
     <g id="line2d_34">
      <g>
       <use xlink:href="#m93c43a7cb5" x="94.613365" y="248.355656" style="fill: #262626; stroke: #262626; stroke-width: 1.5"/>
      </g>
     </g>
    </g>
    <g id="ytick_11">
     <g id="line2d_35">
      <path d="M 94.613365 217.490824 
L 1004.99976 217.490824 
" clip-path="url(#p6d4a0aeb3f)" style="fill: none; stroke: #cccccc; stroke-opacity: 0.3; stroke-width: 1.5; stroke-linecap: round"/>
     </g>
     <g id="line2d_36">
      <g>
       <use xlink:href="#m93c43a7cb5" x="94.613365" y="217.490824" style="fill: #262626; stroke: #262626; stroke-width: 1.5"/>
      </g>
     </g>
    </g>
    <g id="ytick_12">
     <g id="line2d_37">
      <path d="M 94.613365 193.550201 
L 1004.99976 193.550201 
" clip-path="url(#p6d4a0aeb3f)" style="fill: none; stroke: #cccccc; stroke-opacity: 0.3; stroke-width: 1.5; stroke-linecap: round"/>
     </g>
     <g id="line2d_38">
      <g>
       <use xlink:href="#m93c43a7cb5" x="94.613365" y="193.550201" style="fill: #262626; stroke: #262626; stroke-width: 1.5"/>
      </g>
     </g>
    </g>
    <g id="ytick_13">
     <g id="line2d_39">
      <path d="M 94.613365 173.989287 
L 1004.99976 173.989287 
" clip-path="url(#p6d4a0aeb3f)" style="fill: none; stroke: #cccccc; stroke-opacity: 0.3; stroke-width: 1.5; stroke-linecap: round"/>
     </g>
     <g id="line2d_40">
      <g>
       <use xlink:href="#m93c43a7cb5" x="94.613365" y="173.989287" style="fill: #262626; stroke: #262626; stroke-width: 1.5"/>
      </g>
     </g>
    </g>
    <g id="ytick_14">
     <g id="line2d_41">
      <path d="M 94.613365 157.45077 
L 1004.99976 157.45077 
" clip-path="url(#p6d4a0aeb3f)" style="fill: none; stroke: #cccccc; stroke-opacity: 0.3; stroke-width: 1.5; stroke-linecap: round"/>
     </g>
     <g id="line2d_42">
      <g>
       <use xlink:href="#m93c43a7cb5" x="94.613365" y="157.45077" style="fill: #262626; stroke: #262626; stroke-width: 1.5"/>
      </g>
     </g>
    </g>
    <g id="ytick_15">
     <g id="line2d_43">
      <path d="M 94.613365 143.124456 
L 1004.99976 143.124456 
" clip-path="url(#p6d4a0aeb3f)" style="fill: none; stroke: #cccccc; stroke-opacity: 0.3; stroke-width: 1.5; stroke-linecap: round"/>
     </g>
     <g id="line2d_44">
      <g>
       <use xlink:href="#m93c43a7cb5" x="94.613365" y="143.124456" style="fill: #262626; stroke: #262626; stroke-width: 1.5"/>
      </g>
     </g>
    </g>
    <g id="ytick_16">
     <g id="line2d_45">
      <path d="M 94.613365 130.48775 
L 1004.99976 130.48775 
" clip-path="url(#p6d4a0aeb3f)" style="fill: none; stroke: #cccccc; stroke-opacity: 0.3; stroke-width: 1.5; stroke-linecap: round"/>
     </g>
     <g id="line2d_46">
      <g>
       <use xlink:href="#m93c43a7cb5" x="94.613365" y="130.48775" style="fill: #262626; stroke: #262626; stroke-width: 1.5"/>
      </g>
     </g>
    </g>
    <g id="ytick_17">
     <g id="line2d_47">
      <path d="M 94.613365 44.817464 
L 1004.99976 44.817464 
" clip-path="url(#p6d4a0aeb3f)" style="fill: none; stroke: #cccccc; stroke-opacity: 0.3; stroke-width: 1.5; stroke-linecap: round"/>
     </g>
     <g id="line2d_48">
      <g>
       <use xlink:href="#m93c43a7cb5" x="94.613365" y="44.817464" style="fill: #262626; stroke: #262626; stroke-width: 1.5"/>
      </g>
     </g>
    </g>
    <g id="text_11">
     <!-- Computation Time (s) -->
     <g style="fill: #262626" transform="translate(24.839303 415.646719) rotate(-90) scale(0.3 -0.3)">
      <defs>
       <path id="Arial-BoldMT-43" d="M 3397 1684 
L 4294 1400 
Q 4088 650 3608 286 
Q 3128 -78 2391 -78 
Q 1478 -78 890 545 
Q 303 1169 303 2250 
Q 303 3394 893 4026 
Q 1484 4659 2447 4659 
Q 3288 4659 3813 4163 
Q 4125 3869 4281 3319 
L 3366 3100 
Q 3284 3456 3026 3662 
Q 2769 3869 2400 3869 
Q 1891 3869 1573 3503 
Q 1256 3138 1256 2319 
Q 1256 1450 1568 1081 
Q 1881 713 2381 713 
Q 2750 713 3015 947 
Q 3281 1181 3397 1684 
z
" transform="scale(0.015625)"/>
       <path id="Arial-BoldMT-70" d="M 434 3319 
L 1253 3319 
L 1253 2831 
Q 1413 3081 1684 3237 
Q 1956 3394 2288 3394 
Q 2866 3394 3269 2941 
Q 3672 2488 3672 1678 
Q 3672 847 3265 386 
Q 2859 -75 2281 -75 
Q 2006 -75 1782 34 
Q 1559 144 1313 409 
L 1313 -1263 
L 434 -1263 
L 434 3319 
z
M 1303 1716 
Q 1303 1156 1525 889 
Q 1747 622 2066 622 
Q 2372 622 2575 867 
Q 2778 1113 2778 1672 
Q 2778 2194 2568 2447 
Q 2359 2700 2050 2700 
Q 1728 2700 1515 2451 
Q 1303 2203 1303 1716 
z
" transform="scale(0.015625)"/>
       <path id="Arial-BoldMT-75" d="M 2644 0 
L 2644 497 
Q 2463 231 2167 78 
Q 1872 -75 1544 -75 
Q 1209 -75 943 72 
Q 678 219 559 484 
Q 441 750 441 1219 
L 441 3319 
L 1319 3319 
L 1319 1794 
Q 1319 1094 1367 936 
Q 1416 778 1544 686 
Q 1672 594 1869 594 
Q 2094 594 2272 717 
Q 2450 841 2515 1023 
Q 2581 1206 2581 1919 
L 2581 3319 
L 3459 3319 
L 3459 0 
L 2644 0 
z
" transform="scale(0.015625)"/>
       <path id="Arial-BoldMT-6e" d="M 3478 0 
L 2600 0 
L 2600 1694 
Q 2600 2231 2544 2389 
Q 2488 2547 2361 2634 
Q 2234 2722 2056 2722 
Q 1828 2722 1647 2597 
Q 1466 2472 1398 2265 
Q 1331 2059 1331 1503 
L 1331 0 
L 453 0 
L 453 3319 
L 1269 3319 
L 1269 2831 
Q 1703 3394 2363 3394 
Q 2653 3394 2893 3289 
Q 3134 3184 3257 3021 
Q 3381 2859 3429 2653 
Q 3478 2447 3478 2063 
L 3478 0 
z
" transform="scale(0.015625)"/>
       <path id="Arial-BoldMT-54" d="M 1497 0 
L 1497 3806 
L 138 3806 
L 138 4581 
L 3778 4581 
L 3778 3806 
L 2422 3806 
L 2422 0 
L 1497 0 
z
" transform="scale(0.015625)"/>
       <path id="Arial-BoldMT-73" d="M 150 947 
L 1031 1081 
Q 1088 825 1259 692 
Q 1431 559 1741 559 
Q 2081 559 2253 684 
Q 2369 772 2369 919 
Q 2369 1019 2306 1084 
Q 2241 1147 2013 1200 
Q 950 1434 666 1628 
Q 272 1897 272 2375 
Q 272 2806 612 3100 
Q 953 3394 1669 3394 
Q 2350 3394 2681 3172 
Q 3013 2950 3138 2516 
L 2309 2363 
Q 2256 2556 2107 2659 
Q 1959 2763 1684 2763 
Q 1338 2763 1188 2666 
Q 1088 2597 1088 2488 
Q 1088 2394 1175 2328 
Q 1294 2241 1995 2081 
Q 2697 1922 2975 1691 
Q 3250 1456 3250 1038 
Q 3250 581 2869 253 
Q 2488 -75 1741 -75 
Q 1063 -75 667 200 
Q 272 475 150 947 
z
" transform="scale(0.015625)"/>
      </defs>
      <use xlink:href="#Arial-BoldMT-43"/>
      <use xlink:href="#Arial-BoldMT-6f" transform="translate(72.216797 0)"/>
      <use xlink:href="#Arial-BoldMT-6d" transform="translate(133.300781 0)"/>
      <use xlink:href="#Arial-BoldMT-70" transform="translate(222.216797 0)"/>
      <use xlink:href="#Arial-BoldMT-75" transform="translate(283.300781 0)"/>
      <use xlink:href="#Arial-BoldMT-74" transform="translate(344.384766 0)"/>
      <use xlink:href="#Arial-BoldMT-61" transform="translate(377.685547 0)"/>
      <use xlink:href="#Arial-BoldMT-74" transform="translate(433.300781 0)"/>
      <use xlink:href="#Arial-BoldMT-69" transform="translate(466.601562 0)"/>
      <use xlink:href="#Arial-BoldMT-6f" transform="translate(494.384766 0)"/>
      <use xlink:href="#Arial-BoldMT-6e" transform="translate(555.46875 0)"/>
      <use xlink:href="#Arial-BoldMT-20" transform="translate(616.552734 0)"/>
      <use xlink:href="#Arial-BoldMT-54" transform="translate(644.335938 0)"/>
      <use xlink:href="#Arial-BoldMT-69" transform="translate(703.669922 0)"/>
      <use xlink:href="#Arial-BoldMT-6d" transform="translate(731.453125 0)"/>
      <use xlink:href="#Arial-BoldMT-65" transform="translate(820.369141 0)"/>
      <use xlink:href="#Arial-BoldMT-20" transform="translate(875.984375 0)"/>
      <use xlink:href="#Arial-BoldMT-28" transform="translate(903.767578 0)"/>
      <use xlink:href="#Arial-BoldMT-73" transform="translate(937.068359 0)"/>
      <use xlink:href="#Arial-BoldMT-29" transform="translate(992.683594 0)"/>
     </g>
    </g>
   </g>
   <g id="line2d_49">
    <path d="M 135.994565 337.639861 
L 196.409618 470.074981 
L 256.82467 469.464159 
L 317.239723 469.367348 
L 377.654776 469.956019 
L 438.069829 163.69298 
L 498.484881 209.318198 
L 558.899934 192.165038 
L 619.314987 200.500898 
L 679.73004 192.575528 
L 740.145092 183.369597 
L 800.560145 175.247583 
L 860.975198 124.552207 
L 921.390251 100.593817 
L 963.61856 53.441894 
" clip-path="url(#p6d4a0aeb3f)" style="fill: none; stroke: #1f77b4; stroke-width: 5; stroke-linecap: round"/>
    <defs>
     <path id="m3724c04b19" d="M 0 7 
C 1.856422 7 3.637059 6.262436 4.949747 4.949747 
C 6.262436 3.637059 7 1.856422 7 0 
C 7 -1.856422 6.262436 -3.637059 4.949747 -4.949747 
C 3.637059 -6.262436 1.856422 -7 0 -7 
C -1.856422 -7 -3.637059 -6.262436 -4.949747 -4.949747 
C -6.262436 -3.637059 -7 -1.856422 -7 0 
C -7 1.856422 -6.262436 3.637059 -4.949747 4.949747 
C -3.637059 6.262436 -1.856422 7 0 7 
z
" style="stroke: #1f77b4"/>
    </defs>
    <g clip-path="url(#p6d4a0aeb3f)">
     <use xlink:href="#m3724c04b19" x="135.994565" y="337.639861" style="fill: #1f77b4; stroke: #1f77b4"/>
     <use xlink:href="#m3724c04b19" x="196.409618" y="470.074981" style="fill: #1f77b4; stroke: #1f77b4"/>
     <use xlink:href="#m3724c04b19" x="256.82467" y="469.464159" style="fill: #1f77b4; stroke: #1f77b4"/>
     <use xlink:href="#m3724c04b19" x="317.239723" y="469.367348" style="fill: #1f77b4; stroke: #1f77b4"/>
     <use xlink:href="#m3724c04b19" x="377.654776" y="469.956019" style="fill: #1f77b4; stroke: #1f77b4"/>
     <use xlink:href="#m3724c04b19" x="438.069829" y="163.69298" style="fill: #1f77b4; stroke: #1f77b4"/>
     <use xlink:href="#m3724c04b19" x="498.484881" y="209.318198" style="fill: #1f77b4; stroke: #1f77b4"/>
     <use xlink:href="#m3724c04b19" x="558.899934" y="192.165038" style="fill: #1f77b4; stroke: #1f77b4"/>
     <use xlink:href="#m3724c04b19" x="619.314987" y="200.500898" style="fill: #1f77b4; stroke: #1f77b4"/>
     <use xlink:href="#m3724c04b19" x="679.73004" y="192.575528" style="fill: #1f77b4; stroke: #1f77b4"/>
     <use xlink:href="#m3724c04b19" x="740.145092" y="183.369597" style="fill: #1f77b4; stroke: #1f77b4"/>
     <use xlink:href="#m3724c04b19" x="800.560145" y="175.247583" style="fill: #1f77b4; stroke: #1f77b4"/>
     <use xlink:href="#m3724c04b19" x="860.975198" y="124.552207" style="fill: #1f77b4; stroke: #1f77b4"/>
     <use xlink:href="#m3724c04b19" x="921.390251" y="100.593817" style="fill: #1f77b4; stroke: #1f77b4"/>
     <use xlink:href="#m3724c04b19" x="963.61856" y="53.441894" style="fill: #1f77b4; stroke: #1f77b4"/>
    </g>
   </g>
   <g id="line2d_50">
    <path d="M 94.613365 187.632823 
L 1004.99976 187.632823 
" clip-path="url(#p6d4a0aeb3f)" style="fill: none; stroke: #d62728; stroke-opacity: 0.8; stroke-width: 4; stroke-linecap: round"/>
   </g>
   <g id="patch_3">
    <path d="M 94.613365 490.906635 
L 94.613365 32.61024 
" style="fill: none; stroke: #262626; stroke-width: 3; stroke-linejoin: miter; stroke-linecap: square"/>
   </g>
   <g id="patch_4">
    <path d="M 1004.99976 490.906635 
L 1004.99976 32.61024 
" style="fill: none; stroke: #262626; stroke-width: 3; stroke-linejoin: miter; stroke-linecap: square"/>
   </g>
   <g id="patch_5">
    <path d="M 94.613365 490.906635 
L 1004.99976 490.906635 
" style="fill: none; stroke: #262626; stroke-width: 3; stroke-linejoin: miter; stroke-linecap: square"/>
   </g>
   <g id="patch_6">
    <path d="M 94.613365 32.61024 
L 1004.99976 32.61024 
" style="fill: none; stroke: #262626; stroke-width: 3; stroke-linejoin: miter; stroke-linecap: square"/>
   </g>
   <g id="text_12">
    <!-- Computational Performance -->
    <g style="fill: #262626" transform="translate(335.559063 26.29524) scale(0.32 -0.32)">
     <defs>
      <path id="Arial-BoldMT-63" d="M 3353 2338 
L 2488 2181 
Q 2444 2441 2289 2572 
Q 2134 2703 1888 2703 
Q 1559 2703 1364 2476 
Q 1169 2250 1169 1719 
Q 1169 1128 1367 884 
Q 1566 641 1900 641 
Q 2150 641 2309 783 
Q 2469 925 2534 1272 
L 3397 1125 
Q 3263 531 2881 228 
Q 2500 -75 1859 -75 
Q 1131 -75 698 384 
Q 266 844 266 1656 
Q 266 2478 700 2936 
Q 1134 3394 1875 3394 
Q 2481 3394 2839 3133 
Q 3197 2872 3353 2338 
z
" transform="scale(0.015625)"/>
     </defs>
     <use xlink:href="#Arial-BoldMT-43"/>
     <use xlink:href="#Arial-BoldMT-6f" transform="translate(72.216797 0)"/>
     <use xlink:href="#Arial-BoldMT-6d" transform="translate(133.300781 0)"/>
     <use xlink:href="#Arial-BoldMT-70" transform="translate(222.216797 0)"/>
     <use xlink:href="#Arial-BoldMT-75" transform="translate(283.300781 0)"/>
     <use xlink:href="#Arial-BoldMT-74" transform="translate(344.384766 0)"/>
     <use xlink:href="#Arial-BoldMT-61" transform="translate(377.685547 0)"/>
     <use xlink:href="#Arial-BoldMT-74" transform="translate(433.300781 0)"/>
     <use xlink:href="#Arial-BoldMT-69" transform="translate(466.601562 0)"/>
     <use xlink:href="#Arial-BoldMT-6f" transform="translate(494.384766 0)"/>
     <use xlink:href="#Arial-BoldMT-6e" transform="translate(555.46875 0)"/>
     <use xlink:href="#Arial-BoldMT-61" transform="translate(616.552734 0)"/>
     <use xlink:href="#Arial-BoldMT-6c" transform="translate(672.167969 0)"/>
     <use xlink:href="#Arial-BoldMT-20" transform="translate(699.951172 0)"/>
     <use xlink:href="#Arial-BoldMT-50" transform="translate(727.734375 0)"/>
     <use xlink:href="#Arial-BoldMT-65" transform="translate(794.433594 0)"/>
     <use xlink:href="#Arial-BoldMT-72" transform="translate(850.048828 0)"/>
     <use xlink:href="#Arial-BoldMT-66" transform="translate(888.964844 0)"/>
     <use xlink:href="#Arial-BoldMT-6f" transform="translate(922.265625 0)"/>
     <use xlink:href="#Arial-BoldMT-72" transform="translate(983.349609 0)"/>
     <use xlink:href="#Arial-BoldMT-6d" transform="translate(1022.265625 0)"/>
     <use xlink:href="#Arial-BoldMT-61" transform="translate(1111.181641 0)"/>
     <use xlink:href="#Arial-BoldMT-6e" transform="translate(1166.796875 0)"/>
     <use xlink:href="#Arial-BoldMT-63" transform="translate(1227.880859 0)"/>
     <use xlink:href="#Arial-BoldMT-65" transform="translate(1283.496094 0)"/>
    </g>
   </g>
   <g id="legend_1">
    <g id="patch_7">
     <path d="M 111.413365 120.24774 
L 345.548365 120.24774 
Q 350.348365 120.24774 350.348365 115.44774 
L 350.348365 49.41024 
Q 350.348365 44.61024 345.548365 44.61024 
L 111.413365 44.61024 
Q 106.613365 44.61024 106.613365 49.41024 
L 106.613365 115.44774 
Q 106.613365 120.24774 111.413365 120.24774 
z
" style="fill: #ffffff; opacity: 0.8; stroke: #cccccc; stroke-width: 1.5; stroke-linejoin: miter"/>
    </g>
    <g id="line2d_51">
     <path d="M 116.213365 62.98899 
L 140.213365 62.98899 
L 164.213365 62.98899 
" style="fill: none; stroke: #1f77b4; stroke-width: 5; stroke-linecap: round"/>
     <g>
      <use xlink:href="#m3724c04b19" x="140.213365" y="62.98899" style="fill: #1f77b4; stroke: #1f77b4"/>
     </g>
    </g>
    <g id="text_13">
     <!-- Shift-invert -->
     <g style="fill: #262626" transform="translate(183.413365 71.38899) scale(0.24 -0.24)">
      <defs>
       <path id="Arial-BoldMT-2d" d="M 359 1222 
L 359 2100 
L 2084 2100 
L 2084 1222 
L 359 1222 
z
" transform="scale(0.015625)"/>
       <path id="Arial-BoldMT-76" d="M 1372 0 
L 34 3319 
L 956 3319 
L 1581 1625 
L 1763 1059 
Q 1834 1275 1853 1344 
Q 1897 1484 1947 1625 
L 2578 3319 
L 3481 3319 
L 2163 0 
L 1372 0 
z
" transform="scale(0.015625)"/>
      </defs>
      <use xlink:href="#Arial-BoldMT-53"/>
      <use xlink:href="#Arial-BoldMT-68" transform="translate(66.699219 0)"/>
      <use xlink:href="#Arial-BoldMT-69" transform="translate(127.783203 0)"/>
      <use xlink:href="#Arial-BoldMT-66" transform="translate(155.566406 0)"/>
      <use xlink:href="#Arial-BoldMT-74" transform="translate(188.867188 0)"/>
      <use xlink:href="#Arial-BoldMT-2d" transform="translate(222.167969 0)"/>
      <use xlink:href="#Arial-BoldMT-69" transform="translate(255.46875 0)"/>
      <use xlink:href="#Arial-BoldMT-6e" transform="translate(283.251953 0)"/>
      <use xlink:href="#Arial-BoldMT-76" transform="translate(344.335938 0)"/>
      <use xlink:href="#Arial-BoldMT-65" transform="translate(399.951172 0)"/>
      <use xlink:href="#Arial-BoldMT-72" transform="translate(455.566406 0)"/>
      <use xlink:href="#Arial-BoldMT-74" transform="translate(494.482422 0)"/>
     </g>
    </g>
    <g id="line2d_52">
     <path d="M 116.213365 97.19649 
L 140.213365 97.19649 
L 164.213365 97.19649 
" style="fill: none; stroke: #d62728; stroke-opacity: 0.8; stroke-width: 4; stroke-linecap: round"/>
    </g>
    <g id="text_14">
     <!-- Lanczos (Ref) -->
     <g style="fill: #262626" transform="translate(183.413365 105.59649) scale(0.24 -0.24)">
      <defs>
       <path id="Arial-BoldMT-4c" d="M 491 0 
L 491 4544 
L 1416 4544 
L 1416 772 
L 3716 772 
L 3716 0 
L 491 0 
z
" transform="scale(0.015625)"/>
       <path id="Arial-BoldMT-7a" d="M 106 0 
L 106 684 
L 1350 2113 
Q 1656 2463 1803 2609 
Q 1650 2600 1400 2597 
L 228 2591 
L 228 3319 
L 2972 3319 
L 2972 2697 
L 1703 1234 
L 1256 750 
Q 1622 772 1709 772 
L 3069 772 
L 3069 0 
L 106 0 
z
" transform="scale(0.015625)"/>
       <path id="Arial-BoldMT-52" d="M 469 0 
L 469 4581 
L 2416 4581 
Q 3150 4581 3483 4457 
Q 3816 4334 4016 4018 
Q 4216 3703 4216 3297 
Q 4216 2781 3912 2445 
Q 3609 2109 3006 2022 
Q 3306 1847 3501 1637 
Q 3697 1428 4028 894 
L 4588 0 
L 3481 0 
L 2813 997 
Q 2456 1531 2325 1670 
Q 2194 1809 2047 1861 
Q 1900 1913 1581 1913 
L 1394 1913 
L 1394 0 
L 469 0 
z
M 1394 2644 
L 2078 2644 
Q 2744 2644 2909 2700 
Q 3075 2756 3169 2893 
Q 3263 3031 3263 3238 
Q 3263 3469 3139 3611 
Q 3016 3753 2791 3791 
Q 2678 3806 2116 3806 
L 1394 3806 
L 1394 2644 
z
" transform="scale(0.015625)"/>
      </defs>
      <use xlink:href="#Arial-BoldMT-4c"/>
      <use xlink:href="#Arial-BoldMT-61" transform="translate(61.083984 0)"/>
      <use xlink:href="#Arial-BoldMT-6e" transform="translate(116.699219 0)"/>
      <use xlink:href="#Arial-BoldMT-63" transform="translate(177.783203 0)"/>
      <use xlink:href="#Arial-BoldMT-7a" transform="translate(233.398438 0)"/>
      <use xlink:href="#Arial-BoldMT-6f" transform="translate(283.398438 0)"/>
      <use xlink:href="#Arial-BoldMT-73" transform="translate(344.482422 0)"/>
      <use xlink:href="#Arial-BoldMT-20" transform="translate(400.097656 0)"/>
      <use xlink:href="#Arial-BoldMT-28" transform="translate(427.880859 0)"/>
      <use xlink:href="#Arial-BoldMT-52" transform="translate(461.181641 0)"/>
      <use xlink:href="#Arial-BoldMT-65" transform="translate(533.398438 0)"/>
      <use xlink:href="#Arial-BoldMT-66" transform="translate(589.013672 0)"/>
      <use xlink:href="#Arial-BoldMT-29" transform="translate(622.314453 0)"/>
     </g>
    </g>
   </g>
  </g>
 </g>
 <defs>
  <clipPath id="p6d4a0aeb3f">
   <rect x="94.613365" y="32.61024" width="910.386395" height="458.296395"/>
  </clipPath>
 </defs>
</svg>
