<?xml version="1.0" encoding="utf-8" standalone="no"?>
<!DOCTYPE svg PUBLIC "-//W3C//DTD SVG 1.1//EN"
  "http://www.w3.org/Graphics/SVG/1.1/DTD/svg11.dtd">
<svg xmlns:xlink="http://www.w3.org/1999/xlink" width="576pt" height="504pt" viewBox="0 0 576 504" xmlns="http://www.w3.org/2000/svg" version="1.1">
 <metadata>
  <rdf:RDF xmlns:dc="http://purl.org/dc/elements/1.1/" xmlns:cc="http://creativecommons.org/ns#" xmlns:rdf="http://www.w3.org/1999/02/22-rdf-syntax-ns#">
   <cc:Work>
    <dc:type rdf:resource="http://purl.org/dc/dcmitype/StillImage"/>
    <dc:date>2026-02-12T12:21:04.336719</dc:date>
    <dc:format>image/svg+xml</dc:format>
    <dc:creator>
     <cc:Agent>
      <dc:title>Matplotlib v3.10.8, https://matplotlib.org/</dc:title>
     </cc:Agent>
    </dc:creator>
   </cc:Work>
  </rdf:RDF>
 </metadata>
 <defs>
  <style type="text/css">*{stroke-linejoin: round; stroke-linecap: butt}</style>
 </defs>
 <g id="figure_1">
  <g id="patch_1">
   <path d="M 0 504 
L 576 504 
L 576 0 
L 0 0 
z
" style="fill: #ffffff"/>
  </g>
  <g id="axes_1">
   <g id="patch_2">
    <path d="M 74.545865 436.52226 
L 572.99976 436.52226 
L 572.99976 3.00024 
L 74.545865 3.00024 
z
" style="fill: #ffffff"/>
   </g>
   <g id="matplotlib.axis_1">
    <g id="xtick_1">
     <g id="line2d_1">
      <path d="M 97.20286 436.52226 
L 97.20286 3.00024 
" clip-path="url(#p65b8458b06)" style="fill: none; stroke: #cccccc; stroke-opacity: 0.4; stroke-width: 2; stroke-linecap: round"/>
     </g>
     <g id="line2d_2">
      <defs>
       <path id="mea3debb283" d="M 0 0 
L 0 12 
" style="stroke: #262626; stroke-width: 4"/>
      </defs>
      <g>
       <use xlink:href="#mea3debb283" x="97.20286" y="436.52226" style="fill: #262626; stroke: #262626; stroke-width: 4"/>
      </g>
     </g>
     <g id="text_1">
      <!-- $\mathdefault{10^{1}}$ -->
      <g style="fill: #262626" transform="translate(81.50286 472.675385) scale(0.2 -0.2)">
       <defs>
        <path id="Arial-BoldMT-31" d="M 2519 0 
L 1641 0 
L 1641 3309 
Q 1159 2859 506 2644 
L 506 3441 
Q 850 3553 1253 3867 
Q 1656 4181 1806 4600 
L 2519 4600 
L 2519 0 
z
" transform="scale(0.015625)"/>
        <path id="Arial-BoldMT-30" d="M 1756 4600 
Q 2422 4600 2797 4125 
Q 3244 3563 3244 2259 
Q 3244 959 2794 391 
Q 2422 -78 1756 -78 
Q 1088 -78 678 436 
Q 269 950 269 2269 
Q 269 3563 719 4131 
Q 1091 4600 1756 4600 
z
M 1756 3872 
Q 1597 3872 1472 3770 
Q 1347 3669 1278 3406 
Q 1188 3066 1188 2259 
Q 1188 1453 1269 1151 
Q 1350 850 1473 750 
Q 1597 650 1756 650 
Q 1916 650 2041 751 
Q 2166 853 2234 1116 
Q 2325 1453 2325 2259 
Q 2325 3066 2244 3367 
Q 2163 3669 2039 3770 
Q 1916 3872 1756 3872 
z
" transform="scale(0.015625)"/>
       </defs>
       <use xlink:href="#Arial-BoldMT-31" transform="translate(0 0.99375)"/>
       <use xlink:href="#Arial-BoldMT-30" transform="translate(55.615234 0.99375)"/>
       <use xlink:href="#Arial-BoldMT-31" transform="translate(112.972813 70.6875) scale(0.7)"/>
      </g>
     </g>
    </g>
    <g id="xtick_2">
     <g id="line2d_3">
      <path d="M 445.496063 436.52226 
L 445.496063 3.00024 
" clip-path="url(#p65b8458b06)" style="fill: none; stroke: #cccccc; stroke-opacity: 0.4; stroke-width: 2; stroke-linecap: round"/>
     </g>
     <g id="line2d_4">
      <g>
       <use xlink:href="#mea3debb283" x="445.496063" y="436.52226" style="fill: #262626; stroke: #262626; stroke-width: 4"/>
      </g>
     </g>
     <g id="text_2">
      <!-- $\mathdefault{10^{2}}$ -->
      <g style="fill: #262626" transform="translate(429.796063 472.675385) scale(0.2 -0.2)">
       <defs>
        <path id="Arial-BoldMT-32" d="M 3238 816 
L 3238 0 
L 159 0 
Q 209 463 459 877 
Q 709 1291 1447 1975 
Q 2041 2528 2175 2725 
Q 2356 2997 2356 3263 
Q 2356 3556 2198 3714 
Q 2041 3872 1763 3872 
Q 1488 3872 1325 3706 
Q 1163 3541 1138 3156 
L 263 3244 
Q 341 3969 753 4284 
Q 1166 4600 1784 4600 
Q 2463 4600 2850 4234 
Q 3238 3869 3238 3325 
Q 3238 3016 3127 2736 
Q 3016 2456 2775 2150 
Q 2616 1947 2200 1565 
Q 1784 1184 1673 1059 
Q 1563 934 1494 816 
L 3238 816 
z
" transform="scale(0.015625)"/>
       </defs>
       <use xlink:href="#Arial-BoldMT-31" transform="translate(0 0.99375)"/>
       <use xlink:href="#Arial-BoldMT-30" transform="translate(55.615234 0.99375)"/>
       <use xlink:href="#Arial-BoldMT-32" transform="translate(112.972813 70.6875) scale(0.7)"/>
      </g>
     </g>
    </g>
    <g id="xtick_3">
     <g id="line2d_5">
      <path d="M 81.265837 436.52226 
L 81.265837 3.00024 
" clip-path="url(#p65b8458b06)" style="fill: none; stroke: #cccccc; stroke-opacity: 0.4; stroke-width: 2; stroke-linecap: round"/>
     </g>
     <g id="line2d_6">
      <defs>
       <path id="mb485853a0b" d="M 0 0 
L 0 6 
" style="stroke: #262626; stroke-width: 1.5"/>
      </defs>
      <g>
       <use xlink:href="#mb485853a0b" x="81.265837" y="436.52226" style="fill: #262626; stroke: #262626; stroke-width: 1.5"/>
      </g>
     </g>
    </g>
    <g id="xtick_4">
     <g id="line2d_7">
      <path d="M 202.049562 436.52226 
L 202.049562 3.00024 
" clip-path="url(#p65b8458b06)" style="fill: none; stroke: #cccccc; stroke-opacity: 0.4; stroke-width: 2; stroke-linecap: round"/>
     </g>
     <g id="line2d_8">
      <g>
       <use xlink:href="#mb485853a0b" x="202.049562" y="436.52226" style="fill: #262626; stroke: #262626; stroke-width: 1.5"/>
      </g>
     </g>
    </g>
    <g id="xtick_5">
     <g id="line2d_9">
      <path d="M 263.38095 436.52226 
L 263.38095 3.00024 
" clip-path="url(#p65b8458b06)" style="fill: none; stroke: #cccccc; stroke-opacity: 0.4; stroke-width: 2; stroke-linecap: round"/>
     </g>
     <g id="line2d_10">
      <g>
       <use xlink:href="#mb485853a0b" x="263.38095" y="436.52226" style="fill: #262626; stroke: #262626; stroke-width: 1.5"/>
      </g>
     </g>
    </g>
    <g id="xtick_6">
     <g id="line2d_11">
      <path d="M 306.896263 436.52226 
L 306.896263 3.00024 
" clip-path="url(#p65b8458b06)" style="fill: none; stroke: #cccccc; stroke-opacity: 0.4; stroke-width: 2; stroke-linecap: round"/>
     </g>
     <g id="line2d_12">
      <g>
       <use xlink:href="#mb485853a0b" x="306.896263" y="436.52226" style="fill: #262626; stroke: #262626; stroke-width: 1.5"/>
      </g>
     </g>
    </g>
    <g id="xtick_7">
     <g id="line2d_13">
      <path d="M 340.649362 436.52226 
L 340.649362 3.00024 
" clip-path="url(#p65b8458b06)" style="fill: none; stroke: #cccccc; stroke-opacity: 0.4; stroke-width: 2; stroke-linecap: round"/>
     </g>
     <g id="line2d_14">
      <g>
       <use xlink:href="#mb485853a0b" x="340.649362" y="436.52226" style="fill: #262626; stroke: #262626; stroke-width: 1.5"/>
      </g>
     </g>
    </g>
    <g id="xtick_8">
     <g id="line2d_15">
      <path d="M 368.227652 436.52226 
L 368.227652 3.00024 
" clip-path="url(#p65b8458b06)" style="fill: none; stroke: #cccccc; stroke-opacity: 0.4; stroke-width: 2; stroke-linecap: round"/>
     </g>
     <g id="line2d_16">
      <g>
       <use xlink:href="#mb485853a0b" x="368.227652" y="436.52226" style="fill: #262626; stroke: #262626; stroke-width: 1.5"/>
      </g>
     </g>
    </g>
    <g id="xtick_9">
     <g id="line2d_17">
      <path d="M 391.544764 436.52226 
L 391.544764 3.00024 
" clip-path="url(#p65b8458b06)" style="fill: none; stroke: #cccccc; stroke-opacity: 0.4; stroke-width: 2; stroke-linecap: round"/>
     </g>
     <g id="line2d_18">
      <g>
       <use xlink:href="#mb485853a0b" x="391.544764" y="436.52226" style="fill: #262626; stroke: #262626; stroke-width: 1.5"/>
      </g>
     </g>
    </g>
    <g id="xtick_10">
     <g id="line2d_19">
      <path d="M 411.742965 436.52226 
L 411.742965 3.00024 
" clip-path="url(#p65b8458b06)" style="fill: none; stroke: #cccccc; stroke-opacity: 0.4; stroke-width: 2; stroke-linecap: round"/>
     </g>
     <g id="line2d_20">
      <g>
       <use xlink:href="#mb485853a0b" x="411.742965" y="436.52226" style="fill: #262626; stroke: #262626; stroke-width: 1.5"/>
      </g>
     </g>
    </g>
    <g id="xtick_11">
     <g id="line2d_21">
      <path d="M 429.55904 436.52226 
L 429.55904 3.00024 
" clip-path="url(#p65b8458b06)" style="fill: none; stroke: #cccccc; stroke-opacity: 0.4; stroke-width: 2; stroke-linecap: round"/>
     </g>
     <g id="line2d_22">
      <g>
       <use xlink:href="#mb485853a0b" x="429.55904" y="436.52226" style="fill: #262626; stroke: #262626; stroke-width: 1.5"/>
      </g>
     </g>
    </g>
    <g id="xtick_12">
     <g id="line2d_23">
      <path d="M 550.342765 436.52226 
L 550.342765 3.00024 
" clip-path="url(#p65b8458b06)" style="fill: none; stroke: #cccccc; stroke-opacity: 0.4; stroke-width: 2; stroke-linecap: round"/>
     </g>
     <g id="line2d_24">
      <g>
       <use xlink:href="#mb485853a0b" x="550.342765" y="436.52226" style="fill: #262626; stroke: #262626; stroke-width: 1.5"/>
      </g>
     </g>
    </g>
    <g id="text_3">
     <!-- Target Eigenstate Index -->
     <g style="fill: #262626" transform="translate(208.210938 496.369447) scale(0.22 -0.22)">
      <defs>
       <path id="ArialMT-54" d="M 1659 0 
L 1659 4041 
L 150 4041 
L 150 4581 
L 3781 4581 
L 3781 4041 
L 2266 4041 
L 2266 0 
L 1659 0 
z
" transform="scale(0.015625)"/>
       <path id="ArialMT-61" d="M 2588 409 
Q 2275 144 1986 34 
Q 1697 -75 1366 -75 
Q 819 -75 525 192 
Q 231 459 231 875 
Q 231 1119 342 1320 
Q 453 1522 633 1644 
Q 813 1766 1038 1828 
Q 1203 1872 1538 1913 
Q 2219 1994 2541 2106 
Q 2544 2222 2544 2253 
Q 2544 2597 2384 2738 
Q 2169 2928 1744 2928 
Q 1347 2928 1158 2789 
Q 969 2650 878 2297 
L 328 2372 
Q 403 2725 575 2942 
Q 747 3159 1072 3276 
Q 1397 3394 1825 3394 
Q 2250 3394 2515 3294 
Q 2781 3194 2906 3042 
Q 3031 2891 3081 2659 
Q 3109 2516 3109 2141 
L 3109 1391 
Q 3109 606 3145 398 
Q 3181 191 3288 0 
L 2700 0 
Q 2613 175 2588 409 
z
M 2541 1666 
Q 2234 1541 1622 1453 
Q 1275 1403 1131 1340 
Q 988 1278 909 1158 
Q 831 1038 831 891 
Q 831 666 1001 516 
Q 1172 366 1500 366 
Q 1825 366 2078 508 
Q 2331 650 2450 897 
Q 2541 1088 2541 1459 
L 2541 1666 
z
" transform="scale(0.015625)"/>
       <path id="ArialMT-72" d="M 416 0 
L 416 3319 
L 922 3319 
L 922 2816 
Q 1116 3169 1280 3281 
Q 1444 3394 1641 3394 
Q 1925 3394 2219 3213 
L 2025 2691 
Q 1819 2813 1613 2813 
Q 1428 2813 1281 2702 
Q 1134 2591 1072 2394 
Q 978 2094 978 1738 
L 978 0 
L 416 0 
z
" transform="scale(0.015625)"/>
       <path id="ArialMT-67" d="M 319 -275 
L 866 -356 
Q 900 -609 1056 -725 
Q 1266 -881 1628 -881 
Q 2019 -881 2231 -725 
Q 2444 -569 2519 -288 
Q 2563 -116 2559 434 
Q 2191 0 1641 0 
Q 956 0 581 494 
Q 206 988 206 1678 
Q 206 2153 378 2554 
Q 550 2956 876 3175 
Q 1203 3394 1644 3394 
Q 2231 3394 2613 2919 
L 2613 3319 
L 3131 3319 
L 3131 450 
Q 3131 -325 2973 -648 
Q 2816 -972 2473 -1159 
Q 2131 -1347 1631 -1347 
Q 1038 -1347 672 -1080 
Q 306 -813 319 -275 
z
M 784 1719 
Q 784 1066 1043 766 
Q 1303 466 1694 466 
Q 2081 466 2343 764 
Q 2606 1063 2606 1700 
Q 2606 2309 2336 2618 
Q 2066 2928 1684 2928 
Q 1309 2928 1046 2623 
Q 784 2319 784 1719 
z
" transform="scale(0.015625)"/>
       <path id="ArialMT-65" d="M 2694 1069 
L 3275 997 
Q 3138 488 2766 206 
Q 2394 -75 1816 -75 
Q 1088 -75 661 373 
Q 234 822 234 1631 
Q 234 2469 665 2931 
Q 1097 3394 1784 3394 
Q 2450 3394 2872 2941 
Q 3294 2488 3294 1666 
Q 3294 1616 3291 1516 
L 816 1516 
Q 847 969 1125 678 
Q 1403 388 1819 388 
Q 2128 388 2347 550 
Q 2566 713 2694 1069 
z
M 847 1978 
L 2700 1978 
Q 2663 2397 2488 2606 
Q 2219 2931 1791 2931 
Q 1403 2931 1139 2672 
Q 875 2413 847 1978 
z
" transform="scale(0.015625)"/>
       <path id="ArialMT-74" d="M 1650 503 
L 1731 6 
Q 1494 -44 1306 -44 
Q 1000 -44 831 53 
Q 663 150 594 308 
Q 525 466 525 972 
L 525 2881 
L 113 2881 
L 113 3319 
L 525 3319 
L 525 4141 
L 1084 4478 
L 1084 3319 
L 1650 3319 
L 1650 2881 
L 1084 2881 
L 1084 941 
Q 1084 700 1114 631 
Q 1144 563 1211 522 
Q 1278 481 1403 481 
Q 1497 481 1650 503 
z
" transform="scale(0.015625)"/>
       <path id="ArialMT-20" transform="scale(0.015625)"/>
       <path id="ArialMT-45" d="M 506 0 
L 506 4581 
L 3819 4581 
L 3819 4041 
L 1113 4041 
L 1113 2638 
L 3647 2638 
L 3647 2100 
L 1113 2100 
L 1113 541 
L 3925 541 
L 3925 0 
L 506 0 
z
" transform="scale(0.015625)"/>
       <path id="ArialMT-69" d="M 425 3934 
L 425 4581 
L 988 4581 
L 988 3934 
L 425 3934 
z
M 425 0 
L 425 3319 
L 988 3319 
L 988 0 
L 425 0 
z
" transform="scale(0.015625)"/>
       <path id="ArialMT-6e" d="M 422 0 
L 422 3319 
L 928 3319 
L 928 2847 
Q 1294 3394 1984 3394 
Q 2284 3394 2536 3286 
Q 2788 3178 2913 3003 
Q 3038 2828 3088 2588 
Q 3119 2431 3119 2041 
L 3119 0 
L 2556 0 
L 2556 2019 
Q 2556 2363 2490 2533 
Q 2425 2703 2258 2804 
Q 2091 2906 1866 2906 
Q 1506 2906 1245 2678 
Q 984 2450 984 1813 
L 984 0 
L 422 0 
z
" transform="scale(0.015625)"/>
       <path id="ArialMT-73" d="M 197 991 
L 753 1078 
Q 800 744 1014 566 
Q 1228 388 1613 388 
Q 2000 388 2187 545 
Q 2375 703 2375 916 
Q 2375 1106 2209 1216 
Q 2094 1291 1634 1406 
Q 1016 1563 777 1677 
Q 538 1791 414 1992 
Q 291 2194 291 2438 
Q 291 2659 392 2848 
Q 494 3038 669 3163 
Q 800 3259 1026 3326 
Q 1253 3394 1513 3394 
Q 1903 3394 2198 3281 
Q 2494 3169 2634 2976 
Q 2775 2784 2828 2463 
L 2278 2388 
Q 2241 2644 2061 2787 
Q 1881 2931 1553 2931 
Q 1166 2931 1000 2803 
Q 834 2675 834 2503 
Q 834 2394 903 2306 
Q 972 2216 1119 2156 
Q 1203 2125 1616 2013 
Q 2213 1853 2448 1751 
Q 2684 1650 2818 1456 
Q 2953 1263 2953 975 
Q 2953 694 2789 445 
Q 2625 197 2315 61 
Q 2006 -75 1616 -75 
Q 969 -75 630 194 
Q 291 463 197 991 
z
" transform="scale(0.015625)"/>
       <path id="ArialMT-49" d="M 597 0 
L 597 4581 
L 1203 4581 
L 1203 0 
L 597 0 
z
" transform="scale(0.015625)"/>
       <path id="ArialMT-64" d="M 2575 0 
L 2575 419 
Q 2259 -75 1647 -75 
Q 1250 -75 917 144 
Q 584 363 401 755 
Q 219 1147 219 1656 
Q 219 2153 384 2558 
Q 550 2963 881 3178 
Q 1213 3394 1622 3394 
Q 1922 3394 2156 3267 
Q 2391 3141 2538 2938 
L 2538 4581 
L 3097 4581 
L 3097 0 
L 2575 0 
z
M 797 1656 
Q 797 1019 1065 703 
Q 1334 388 1700 388 
Q 2069 388 2326 689 
Q 2584 991 2584 1609 
Q 2584 2291 2321 2609 
Q 2059 2928 1675 2928 
Q 1300 2928 1048 2622 
Q 797 2316 797 1656 
z
" transform="scale(0.015625)"/>
       <path id="ArialMT-78" d="M 47 0 
L 1259 1725 
L 138 3319 
L 841 3319 
L 1350 2541 
Q 1494 2319 1581 2169 
Q 1719 2375 1834 2534 
L 2394 3319 
L 3066 3319 
L 1919 1756 
L 3153 0 
L 2463 0 
L 1781 1031 
L 1600 1309 
L 728 0 
L 47 0 
z
" transform="scale(0.015625)"/>
      </defs>
      <use xlink:href="#ArialMT-54"/>
      <use xlink:href="#ArialMT-61" transform="translate(49.958984 0)"/>
      <use xlink:href="#ArialMT-72" transform="translate(105.574219 0)"/>
      <use xlink:href="#ArialMT-67" transform="translate(138.875 0)"/>
      <use xlink:href="#ArialMT-65" transform="translate(194.490234 0)"/>
      <use xlink:href="#ArialMT-74" transform="translate(250.105469 0)"/>
      <use xlink:href="#ArialMT-20" transform="translate(277.888672 0)"/>
      <use xlink:href="#ArialMT-45" transform="translate(305.671875 0)"/>
      <use xlink:href="#ArialMT-69" transform="translate(372.371094 0)"/>
      <use xlink:href="#ArialMT-67" transform="translate(394.587891 0)"/>
      <use xlink:href="#ArialMT-65" transform="translate(450.203125 0)"/>
      <use xlink:href="#ArialMT-6e" transform="translate(505.818359 0)"/>
      <use xlink:href="#ArialMT-73" transform="translate(561.433594 0)"/>
      <use xlink:href="#ArialMT-74" transform="translate(611.433594 0)"/>
      <use xlink:href="#ArialMT-61" transform="translate(639.216797 0)"/>
      <use xlink:href="#ArialMT-74" transform="translate(694.832031 0)"/>
      <use xlink:href="#ArialMT-65" transform="translate(722.615234 0)"/>
      <use xlink:href="#ArialMT-20" transform="translate(778.230469 0)"/>
      <use xlink:href="#ArialMT-49" transform="translate(806.013672 0)"/>
      <use xlink:href="#ArialMT-6e" transform="translate(833.796875 0)"/>
      <use xlink:href="#ArialMT-64" transform="translate(889.412109 0)"/>
      <use xlink:href="#ArialMT-65" transform="translate(945.027344 0)"/>
      <use xlink:href="#ArialMT-78" transform="translate(1000.642578 0)"/>
     </g>
    </g>
   </g>
   <g id="matplotlib.axis_2">
    <g id="ytick_1">
     <g id="line2d_25">
      <path d="M 74.545865 265.406901 
L 572.99976 265.406901 
" clip-path="url(#p65b8458b06)" style="fill: none; stroke: #cccccc; stroke-opacity: 0.4; stroke-width: 2; stroke-linecap: round"/>
     </g>
     <g id="line2d_26">
      <defs>
       <path id="mf39d334986" d="M 0 0 
L -12 0 
" style="stroke: #262626; stroke-width: 4"/>
      </defs>
      <g>
       <use xlink:href="#mf39d334986" x="74.545865" y="265.406901" style="fill: #262626; stroke: #262626; stroke-width: 4"/>
      </g>
     </g>
     <g id="text_4">
      <!-- $\mathdefault{10^{2}}$ -->
      <g style="fill: #262626" transform="translate(27.645865 275.733463) scale(0.2 -0.2)">
       <use xlink:href="#Arial-BoldMT-31" transform="translate(0 0.99375)"/>
       <use xlink:href="#Arial-BoldMT-30" transform="translate(55.615234 0.99375)"/>
       <use xlink:href="#Arial-BoldMT-32" transform="translate(112.972813 70.6875) scale(0.7)"/>
      </g>
     </g>
    </g>
    <g id="ytick_2">
     <g id="line2d_27">
      <path d="M 74.545865 397.433765 
L 572.99976 397.433765 
" clip-path="url(#p65b8458b06)" style="fill: none; stroke: #cccccc; stroke-opacity: 0.4; stroke-width: 2; stroke-linecap: round"/>
     </g>
     <g id="line2d_28">
      <defs>
       <path id="m63e3638789" d="M 0 0 
L -6 0 
" style="stroke: #262626; stroke-width: 1.5"/>
      </defs>
      <g>
       <use xlink:href="#m63e3638789" x="74.545865" y="397.433765" style="fill: #262626; stroke: #262626; stroke-width: 1.5"/>
      </g>
     </g>
    </g>
    <g id="ytick_3">
     <g id="line2d_29">
      <path d="M 74.545865 365.281368 
L 572.99976 365.281368 
" clip-path="url(#p65b8458b06)" style="fill: none; stroke: #cccccc; stroke-opacity: 0.4; stroke-width: 2; stroke-linecap: round"/>
     </g>
     <g id="line2d_30">
      <g>
       <use xlink:href="#m63e3638789" x="74.545865" y="365.281368" style="fill: #262626; stroke: #262626; stroke-width: 1.5"/>
      </g>
     </g>
    </g>
    <g id="ytick_4">
     <g id="line2d_31">
      <path d="M 74.545865 339.010947 
L 572.99976 339.010947 
" clip-path="url(#p65b8458b06)" style="fill: none; stroke: #cccccc; stroke-opacity: 0.4; stroke-width: 2; stroke-linecap: round"/>
     </g>
     <g id="line2d_32">
      <g>
       <use xlink:href="#m63e3638789" x="74.545865" y="339.010947" style="fill: #262626; stroke: #262626; stroke-width: 1.5"/>
      </g>
     </g>
    </g>
    <g id="ytick_5">
     <g id="line2d_33">
      <path d="M 74.545865 316.799622 
L 572.99976 316.799622 
" clip-path="url(#p65b8458b06)" style="fill: none; stroke: #cccccc; stroke-opacity: 0.4; stroke-width: 2; stroke-linecap: round"/>
     </g>
     <g id="line2d_34">
      <g>
       <use xlink:href="#m63e3638789" x="74.545865" y="316.799622" style="fill: #262626; stroke: #262626; stroke-width: 1.5"/>
      </g>
     </g>
    </g>
    <g id="ytick_6">
     <g id="line2d_35">
      <path d="M 74.545865 297.559298 
L 572.99976 297.559298 
" clip-path="url(#p65b8458b06)" style="fill: none; stroke: #cccccc; stroke-opacity: 0.4; stroke-width: 2; stroke-linecap: round"/>
     </g>
     <g id="line2d_36">
      <g>
       <use xlink:href="#m63e3638789" x="74.545865" y="297.559298" style="fill: #262626; stroke: #262626; stroke-width: 1.5"/>
      </g>
     </g>
    </g>
    <g id="ytick_7">
     <g id="line2d_37">
      <path d="M 74.545865 280.588129 
L 572.99976 280.588129 
" clip-path="url(#p65b8458b06)" style="fill: none; stroke: #cccccc; stroke-opacity: 0.4; stroke-width: 2; stroke-linecap: round"/>
     </g>
     <g id="line2d_38">
      <g>
       <use xlink:href="#m63e3638789" x="74.545865" y="280.588129" style="fill: #262626; stroke: #262626; stroke-width: 1.5"/>
      </g>
     </g>
    </g>
    <g id="ytick_8">
     <g id="line2d_39">
      <path d="M 74.545865 165.532434 
L 572.99976 165.532434 
" clip-path="url(#p65b8458b06)" style="fill: none; stroke: #cccccc; stroke-opacity: 0.4; stroke-width: 2; stroke-linecap: round"/>
     </g>
     <g id="line2d_40">
      <g>
       <use xlink:href="#m63e3638789" x="74.545865" y="165.532434" style="fill: #262626; stroke: #262626; stroke-width: 1.5"/>
      </g>
     </g>
    </g>
    <g id="ytick_9">
     <g id="line2d_41">
      <path d="M 74.545865 107.109616 
L 572.99976 107.109616 
" clip-path="url(#p65b8458b06)" style="fill: none; stroke: #cccccc; stroke-opacity: 0.4; stroke-width: 2; stroke-linecap: round"/>
     </g>
     <g id="line2d_42">
      <g>
       <use xlink:href="#m63e3638789" x="74.545865" y="107.109616" style="fill: #262626; stroke: #262626; stroke-width: 1.5"/>
      </g>
     </g>
    </g>
    <g id="ytick_10">
     <g id="line2d_43">
      <path d="M 74.545865 65.657967 
L 572.99976 65.657967 
" clip-path="url(#p65b8458b06)" style="fill: none; stroke: #cccccc; stroke-opacity: 0.4; stroke-width: 2; stroke-linecap: round"/>
     </g>
     <g id="line2d_44">
      <g>
       <use xlink:href="#m63e3638789" x="74.545865" y="65.657967" style="fill: #262626; stroke: #262626; stroke-width: 1.5"/>
      </g>
     </g>
    </g>
    <g id="ytick_11">
     <g id="line2d_45">
      <path d="M 74.545865 33.50557 
L 572.99976 33.50557 
" clip-path="url(#p65b8458b06)" style="fill: none; stroke: #cccccc; stroke-opacity: 0.4; stroke-width: 2; stroke-linecap: round"/>
     </g>
     <g id="line2d_46">
      <g>
       <use xlink:href="#m63e3638789" x="74.545865" y="33.50557" style="fill: #262626; stroke: #262626; stroke-width: 1.5"/>
      </g>
     </g>
    </g>
    <g id="ytick_12">
     <g id="line2d_47">
      <path d="M 74.545865 7.235149 
L 572.99976 7.235149 
" clip-path="url(#p65b8458b06)" style="fill: none; stroke: #cccccc; stroke-opacity: 0.4; stroke-width: 2; stroke-linecap: round"/>
     </g>
     <g id="line2d_48">
      <g>
       <use xlink:href="#m63e3638789" x="74.545865" y="7.235149" style="fill: #262626; stroke: #262626; stroke-width: 1.5"/>
      </g>
     </g>
    </g>
    <g id="text_5">
     <!-- Computation Time (s) -->
     <g style="fill: #262626" transform="translate(19.015552 324.900625) rotate(-90) scale(0.22 -0.22)">
      <defs>
       <path id="ArialMT-43" d="M 3763 1606 
L 4369 1453 
Q 4178 706 3683 314 
Q 3188 -78 2472 -78 
Q 1731 -78 1267 223 
Q 803 525 561 1097 
Q 319 1669 319 2325 
Q 319 3041 592 3573 
Q 866 4106 1370 4382 
Q 1875 4659 2481 4659 
Q 3169 4659 3637 4309 
Q 4106 3959 4291 3325 
L 3694 3184 
Q 3534 3684 3231 3912 
Q 2928 4141 2469 4141 
Q 1941 4141 1586 3887 
Q 1231 3634 1087 3207 
Q 944 2781 944 2328 
Q 944 1744 1114 1308 
Q 1284 872 1643 656 
Q 2003 441 2422 441 
Q 2931 441 3284 734 
Q 3638 1028 3763 1606 
z
" transform="scale(0.015625)"/>
       <path id="ArialMT-6f" d="M 213 1659 
Q 213 2581 725 3025 
Q 1153 3394 1769 3394 
Q 2453 3394 2887 2945 
Q 3322 2497 3322 1706 
Q 3322 1066 3130 698 
Q 2938 331 2570 128 
Q 2203 -75 1769 -75 
Q 1072 -75 642 372 
Q 213 819 213 1659 
z
M 791 1659 
Q 791 1022 1069 705 
Q 1347 388 1769 388 
Q 2188 388 2466 706 
Q 2744 1025 2744 1678 
Q 2744 2294 2464 2611 
Q 2184 2928 1769 2928 
Q 1347 2928 1069 2612 
Q 791 2297 791 1659 
z
" transform="scale(0.015625)"/>
       <path id="ArialMT-6d" d="M 422 0 
L 422 3319 
L 925 3319 
L 925 2853 
Q 1081 3097 1340 3245 
Q 1600 3394 1931 3394 
Q 2300 3394 2536 3241 
Q 2772 3088 2869 2813 
Q 3263 3394 3894 3394 
Q 4388 3394 4653 3120 
Q 4919 2847 4919 2278 
L 4919 0 
L 4359 0 
L 4359 2091 
Q 4359 2428 4304 2576 
Q 4250 2725 4106 2815 
Q 3963 2906 3769 2906 
Q 3419 2906 3187 2673 
Q 2956 2441 2956 1928 
L 2956 0 
L 2394 0 
L 2394 2156 
Q 2394 2531 2256 2718 
Q 2119 2906 1806 2906 
Q 1569 2906 1367 2781 
Q 1166 2656 1075 2415 
Q 984 2175 984 1722 
L 984 0 
L 422 0 
z
" transform="scale(0.015625)"/>
       <path id="ArialMT-70" d="M 422 -1272 
L 422 3319 
L 934 3319 
L 934 2888 
Q 1116 3141 1344 3267 
Q 1572 3394 1897 3394 
Q 2322 3394 2647 3175 
Q 2972 2956 3137 2557 
Q 3303 2159 3303 1684 
Q 3303 1175 3120 767 
Q 2938 359 2589 142 
Q 2241 -75 1856 -75 
Q 1575 -75 1351 44 
Q 1128 163 984 344 
L 984 -1272 
L 422 -1272 
z
M 931 1641 
Q 931 1000 1190 694 
Q 1450 388 1819 388 
Q 2194 388 2461 705 
Q 2728 1022 2728 1688 
Q 2728 2322 2467 2637 
Q 2206 2953 1844 2953 
Q 1484 2953 1207 2617 
Q 931 2281 931 1641 
z
" transform="scale(0.015625)"/>
       <path id="ArialMT-75" d="M 2597 0 
L 2597 488 
Q 2209 -75 1544 -75 
Q 1250 -75 995 37 
Q 741 150 617 320 
Q 494 491 444 738 
Q 409 903 409 1263 
L 409 3319 
L 972 3319 
L 972 1478 
Q 972 1038 1006 884 
Q 1059 663 1231 536 
Q 1403 409 1656 409 
Q 1909 409 2131 539 
Q 2353 669 2445 892 
Q 2538 1116 2538 1541 
L 2538 3319 
L 3100 3319 
L 3100 0 
L 2597 0 
z
" transform="scale(0.015625)"/>
       <path id="ArialMT-28" d="M 1497 -1347 
Q 1031 -759 709 28 
Q 388 816 388 1659 
Q 388 2403 628 3084 
Q 909 3875 1497 4659 
L 1900 4659 
Q 1522 4009 1400 3731 
Q 1209 3300 1100 2831 
Q 966 2247 966 1656 
Q 966 153 1900 -1347 
L 1497 -1347 
z
" transform="scale(0.015625)"/>
       <path id="ArialMT-29" d="M 791 -1347 
L 388 -1347 
Q 1322 153 1322 1656 
Q 1322 2244 1188 2822 
Q 1081 3291 891 3722 
Q 769 4003 388 4659 
L 791 4659 
Q 1378 3875 1659 3084 
Q 1900 2403 1900 1659 
Q 1900 816 1576 28 
Q 1253 -759 791 -1347 
z
" transform="scale(0.015625)"/>
      </defs>
      <use xlink:href="#ArialMT-43"/>
      <use xlink:href="#ArialMT-6f" transform="translate(72.216797 0)"/>
      <use xlink:href="#ArialMT-6d" transform="translate(127.832031 0)"/>
      <use xlink:href="#ArialMT-70" transform="translate(211.132812 0)"/>
      <use xlink:href="#ArialMT-75" transform="translate(266.748047 0)"/>
      <use xlink:href="#ArialMT-74" transform="translate(322.363281 0)"/>
      <use xlink:href="#ArialMT-61" transform="translate(350.146484 0)"/>
      <use xlink:href="#ArialMT-74" transform="translate(405.761719 0)"/>
      <use xlink:href="#ArialMT-69" transform="translate(433.544922 0)"/>
      <use xlink:href="#ArialMT-6f" transform="translate(455.761719 0)"/>
      <use xlink:href="#ArialMT-6e" transform="translate(511.376953 0)"/>
      <use xlink:href="#ArialMT-20" transform="translate(566.992188 0)"/>
      <use xlink:href="#ArialMT-54" transform="translate(593.025391 0)"/>
      <use xlink:href="#ArialMT-69" transform="translate(650.359375 0)"/>
      <use xlink:href="#ArialMT-6d" transform="translate(672.576172 0)"/>
      <use xlink:href="#ArialMT-65" transform="translate(755.876953 0)"/>
      <use xlink:href="#ArialMT-20" transform="translate(811.492188 0)"/>
      <use xlink:href="#ArialMT-28" transform="translate(839.275391 0)"/>
      <use xlink:href="#ArialMT-73" transform="translate(872.576172 0)"/>
      <use xlink:href="#ArialMT-29" transform="translate(922.576172 0)"/>
     </g>
    </g>
   </g>
   <g id="line2d_49">
    <path d="M 97.20286 314.377301 
L 235.80266 306.678003 
L 340.649362 220.594989 
L 445.496063 143.212579 
L 550.342765 22.705786 
" clip-path="url(#p65b8458b06)" style="fill: none; stroke-dasharray: 14.8,6.4; stroke-dashoffset: 0; stroke: #000000; stroke-opacity: 0.7; stroke-width: 4"/>
   </g>
   <g id="line2d_50">
    <path d="M 97.20286 336.260545 
L 235.80266 236.487413 
L 340.649362 88.425053 
L 445.496063 62.45824 
L 550.342765 28.66199 
" clip-path="url(#p65b8458b06)" style="fill: none; stroke: #1f77b4; stroke-width: 4; stroke-linecap: round"/>
    <defs>
     <path id="m858f66814b" d="M 0 5 
C 1.326016 5 2.597899 4.473168 3.535534 3.535534 
C 4.473168 2.597899 5 1.326016 5 0 
C 5 -1.326016 4.473168 -2.597899 3.535534 -3.535534 
C 2.597899 -4.473168 1.326016 -5 0 -5 
C -1.326016 -5 -2.597899 -4.473168 -3.535534 -3.535534 
C -4.473168 -2.597899 -5 -1.326016 -5 0 
C -5 1.326016 -4.473168 2.597899 -3.535534 3.535534 
C -2.597899 4.473168 -1.326016 5 0 5 
z
" style="stroke: #1f77b4"/>
    </defs>
    <g clip-path="url(#p65b8458b06)">
     <use xlink:href="#m858f66814b" x="97.20286" y="336.260545" style="fill: #1f77b4; stroke: #1f77b4"/>
     <use xlink:href="#m858f66814b" x="235.80266" y="236.487413" style="fill: #1f77b4; stroke: #1f77b4"/>
     <use xlink:href="#m858f66814b" x="340.649362" y="88.425053" style="fill: #1f77b4; stroke: #1f77b4"/>
     <use xlink:href="#m858f66814b" x="445.496063" y="62.45824" style="fill: #1f77b4; stroke: #1f77b4"/>
     <use xlink:href="#m858f66814b" x="550.342765" y="28.66199" style="fill: #1f77b4; stroke: #1f77b4"/>
    </g>
   </g>
   <g id="line2d_51">
    <path d="M 97.20286 381.798202 
L 235.80266 309.195902 
L 340.649362 221.700306 
L 445.496063 100.404957 
L 550.342765 59.893551 
" clip-path="url(#p65b8458b06)" style="fill: none; stroke: #ff7f0e; stroke-width: 4; stroke-linecap: round"/>
    <defs>
     <path id="mec288e6b8d" d="M 0 5 
C 1.326016 5 2.597899 4.473168 3.535534 3.535534 
C 4.473168 2.597899 5 1.326016 5 0 
C 5 -1.326016 4.473168 -2.597899 3.535534 -3.535534 
C 2.597899 -4.473168 1.326016 -5 0 -5 
C -1.326016 -5 -2.597899 -4.473168 -3.535534 -3.535534 
C -4.473168 -2.597899 -5 -1.326016 -5 0 
C -5 1.326016 -4.473168 2.597899 -3.535534 3.535534 
C -2.597899 4.473168 -1.326016 5 0 5 
z
" style="stroke: #ff7f0e"/>
    </defs>
    <g clip-path="url(#p65b8458b06)">
     <use xlink:href="#mec288e6b8d" x="97.20286" y="381.798202" style="fill: #ff7f0e; stroke: #ff7f0e"/>
     <use xlink:href="#mec288e6b8d" x="235.80266" y="309.195902" style="fill: #ff7f0e; stroke: #ff7f0e"/>
     <use xlink:href="#mec288e6b8d" x="340.649362" y="221.700306" style="fill: #ff7f0e; stroke: #ff7f0e"/>
     <use xlink:href="#mec288e6b8d" x="445.496063" y="100.404957" style="fill: #ff7f0e; stroke: #ff7f0e"/>
     <use xlink:href="#mec288e6b8d" x="550.342765" y="59.893551" style="fill: #ff7f0e; stroke: #ff7f0e"/>
    </g>
   </g>
   <g id="line2d_52">
    <path d="M 97.20286 416.816714 
L 235.80266 336.629041 
L 340.649362 261.647042 
L 445.496063 203.505494 
L 550.342765 106.380605 
" clip-path="url(#p65b8458b06)" style="fill: none; stroke: #2ca02c; stroke-width: 4; stroke-linecap: round"/>
    <defs>
     <path id="m63d0027cea" d="M 0 5 
C 1.326016 5 2.597899 4.473168 3.535534 3.535534 
C 4.473168 2.597899 5 1.326016 5 0 
C 5 -1.326016 4.473168 -2.597899 3.535534 -3.535534 
C 2.597899 -4.473168 1.326016 -5 0 -5 
C -1.326016 -5 -2.597899 -4.473168 -3.535534 -3.535534 
C -4.473168 -2.597899 -5 -1.326016 -5 0 
C -5 1.326016 -4.473168 2.597899 -3.535534 3.535534 
C -2.597899 4.473168 -1.326016 5 0 5 
z
" style="stroke: #2ca02c"/>
    </defs>
    <g clip-path="url(#p65b8458b06)">
     <use xlink:href="#m63d0027cea" x="97.20286" y="416.816714" style="fill: #2ca02c; stroke: #2ca02c"/>
     <use xlink:href="#m63d0027cea" x="235.80266" y="336.629041" style="fill: #2ca02c; stroke: #2ca02c"/>
     <use xlink:href="#m63d0027cea" x="340.649362" y="261.647042" style="fill: #2ca02c; stroke: #2ca02c"/>
     <use xlink:href="#m63d0027cea" x="445.496063" y="203.505494" style="fill: #2ca02c; stroke: #2ca02c"/>
     <use xlink:href="#m63d0027cea" x="550.342765" y="106.380605" style="fill: #2ca02c; stroke: #2ca02c"/>
    </g>
   </g>
   <g id="patch_3">
    <path d="M 74.545865 436.52226 
L 74.545865 3.00024 
" style="fill: none; stroke: #262626; stroke-width: 4; stroke-linejoin: miter; stroke-linecap: square"/>
   </g>
   <g id="patch_4">
    <path d="M 572.99976 436.52226 
L 572.99976 3.00024 
" style="fill: none; stroke: #262626; stroke-width: 4; stroke-linejoin: miter; stroke-linecap: square"/>
   </g>
   <g id="patch_5">
    <path d="M 74.545865 436.52226 
L 572.99976 436.52226 
" style="fill: none; stroke: #262626; stroke-width: 4; stroke-linejoin: miter; stroke-linecap: square"/>
   </g>
   <g id="patch_6">
    <path d="M 74.545865 3.00024 
L 572.99976 3.00024 
" style="fill: none; stroke: #262626; stroke-width: 4; stroke-linejoin: miter; stroke-linecap: square"/>
   </g>
   <g id="legend_1">
    <g id="patch_7">
     <path d="M 85.745865 106.82524 
L 239.665865 106.82524 
Q 242.865865 106.82524 242.865865 103.62524 
L 242.865865 14.20024 
Q 242.865865 11.00024 239.665865 11.00024 
L 85.745865 11.00024 
Q 82.545865 11.00024 82.545865 14.20024 
L 82.545865 103.62524 
Q 82.545865 106.82524 85.745865 106.82524 
z
" style="fill: #ffffff; opacity: 0.8; stroke: #cccccc; stroke-width: 1.5; stroke-linejoin: miter"/>
    </g>
    <g id="line2d_53">
     <path d="M 88.945865 23.25274 
L 104.945865 23.25274 
L 120.945865 23.25274 
" style="fill: none; stroke-dasharray: 14.8,6.4; stroke-dashoffset: 0; stroke: #000000; stroke-opacity: 0.7; stroke-width: 4"/>
    </g>
    <g id="text_6">
     <!-- Lanczos -->
     <g style="fill: #262626" transform="translate(133.745865 28.85274) scale(0.16 -0.16)">
      <defs>
       <path id="Arial-BoldMT-4c" d="M 491 0 
L 491 4544 
L 1416 4544 
L 1416 772 
L 3716 772 
L 3716 0 
L 491 0 
z
" transform="scale(0.015625)"/>
       <path id="Arial-BoldMT-61" d="M 1116 2306 
L 319 2450 
Q 453 2931 781 3162 
Q 1109 3394 1756 3394 
Q 2344 3394 2631 3255 
Q 2919 3116 3036 2902 
Q 3153 2688 3153 2116 
L 3144 1091 
Q 3144 653 3186 445 
Q 3228 238 3344 0 
L 2475 0 
Q 2441 88 2391 259 
Q 2369 338 2359 363 
Q 2134 144 1878 34 
Q 1622 -75 1331 -75 
Q 819 -75 523 203 
Q 228 481 228 906 
Q 228 1188 362 1408 
Q 497 1628 739 1745 
Q 981 1863 1438 1950 
Q 2053 2066 2291 2166 
L 2291 2253 
Q 2291 2506 2166 2614 
Q 2041 2722 1694 2722 
Q 1459 2722 1328 2630 
Q 1197 2538 1116 2306 
z
M 2291 1594 
Q 2122 1538 1756 1459 
Q 1391 1381 1278 1306 
Q 1106 1184 1106 997 
Q 1106 813 1243 678 
Q 1381 544 1594 544 
Q 1831 544 2047 700 
Q 2206 819 2256 991 
Q 2291 1103 2291 1419 
L 2291 1594 
z
" transform="scale(0.015625)"/>
       <path id="Arial-BoldMT-6e" d="M 3478 0 
L 2600 0 
L 2600 1694 
Q 2600 2231 2544 2389 
Q 2488 2547 2361 2634 
Q 2234 2722 2056 2722 
Q 1828 2722 1647 2597 
Q 1466 2472 1398 2265 
Q 1331 2059 1331 1503 
L 1331 0 
L 453 0 
L 453 3319 
L 1269 3319 
L 1269 2831 
Q 1703 3394 2363 3394 
Q 2653 3394 2893 3289 
Q 3134 3184 3257 3021 
Q 3381 2859 3429 2653 
Q 3478 2447 3478 2063 
L 3478 0 
z
" transform="scale(0.015625)"/>
       <path id="Arial-BoldMT-63" d="M 3353 2338 
L 2488 2181 
Q 2444 2441 2289 2572 
Q 2134 2703 1888 2703 
Q 1559 2703 1364 2476 
Q 1169 2250 1169 1719 
Q 1169 1128 1367 884 
Q 1566 641 1900 641 
Q 2150 641 2309 783 
Q 2469 925 2534 1272 
L 3397 1125 
Q 3263 531 2881 228 
Q 2500 -75 1859 -75 
Q 1131 -75 698 384 
Q 266 844 266 1656 
Q 266 2478 700 2936 
Q 1134 3394 1875 3394 
Q 2481 3394 2839 3133 
Q 3197 2872 3353 2338 
z
" transform="scale(0.015625)"/>
       <path id="Arial-BoldMT-7a" d="M 106 0 
L 106 684 
L 1350 2113 
Q 1656 2463 1803 2609 
Q 1650 2600 1400 2597 
L 228 2591 
L 228 3319 
L 2972 3319 
L 2972 2697 
L 1703 1234 
L 1256 750 
Q 1622 772 1709 772 
L 3069 772 
L 3069 0 
L 106 0 
z
" transform="scale(0.015625)"/>
       <path id="Arial-BoldMT-6f" d="M 256 1706 
Q 256 2144 472 2553 
Q 688 2963 1083 3178 
Q 1478 3394 1966 3394 
Q 2719 3394 3200 2905 
Q 3681 2416 3681 1669 
Q 3681 916 3195 420 
Q 2709 -75 1972 -75 
Q 1516 -75 1102 131 
Q 688 338 472 736 
Q 256 1134 256 1706 
z
M 1156 1659 
Q 1156 1166 1390 903 
Q 1625 641 1969 641 
Q 2313 641 2545 903 
Q 2778 1166 2778 1666 
Q 2778 2153 2545 2415 
Q 2313 2678 1969 2678 
Q 1625 2678 1390 2415 
Q 1156 2153 1156 1659 
z
" transform="scale(0.015625)"/>
       <path id="Arial-BoldMT-73" d="M 150 947 
L 1031 1081 
Q 1088 825 1259 692 
Q 1431 559 1741 559 
Q 2081 559 2253 684 
Q 2369 772 2369 919 
Q 2369 1019 2306 1084 
Q 2241 1147 2013 1200 
Q 950 1434 666 1628 
Q 272 1897 272 2375 
Q 272 2806 612 3100 
Q 953 3394 1669 3394 
Q 2350 3394 2681 3172 
Q 3013 2950 3138 2516 
L 2309 2363 
Q 2256 2556 2107 2659 
Q 1959 2763 1684 2763 
Q 1338 2763 1188 2666 
Q 1088 2597 1088 2488 
Q 1088 2394 1175 2328 
Q 1294 2241 1995 2081 
Q 2697 1922 2975 1691 
Q 3250 1456 3250 1038 
Q 3250 581 2869 253 
Q 2488 -75 1741 -75 
Q 1063 -75 667 200 
Q 272 475 150 947 
z
" transform="scale(0.015625)"/>
      </defs>
      <use xlink:href="#Arial-BoldMT-4c"/>
      <use xlink:href="#Arial-BoldMT-61" transform="translate(61.083984 0)"/>
      <use xlink:href="#Arial-BoldMT-6e" transform="translate(116.699219 0)"/>
      <use xlink:href="#Arial-BoldMT-63" transform="translate(177.783203 0)"/>
      <use xlink:href="#Arial-BoldMT-7a" transform="translate(233.398438 0)"/>
      <use xlink:href="#Arial-BoldMT-6f" transform="translate(283.398438 0)"/>
      <use xlink:href="#Arial-BoldMT-73" transform="translate(344.482422 0)"/>
     </g>
    </g>
    <g id="line2d_54">
     <path d="M 88.945865 46.05774 
L 104.945865 46.05774 
L 120.945865 46.05774 
" style="fill: none; stroke: #1f77b4; stroke-width: 4; stroke-linecap: round"/>
     <g>
      <use xlink:href="#m858f66814b" x="104.945865" y="46.05774" style="fill: #1f77b4; stroke: #1f77b4"/>
     </g>
    </g>
    <g id="text_7">
     <!-- SI step=1e-02 -->
     <g style="fill: #262626" transform="translate(133.745865 51.65774) scale(0.16 -0.16)">
      <defs>
       <path id="Arial-BoldMT-53" d="M 231 1491 
L 1131 1578 
Q 1213 1125 1461 912 
Q 1709 700 2131 700 
Q 2578 700 2804 889 
Q 3031 1078 3031 1331 
Q 3031 1494 2936 1608 
Q 2841 1722 2603 1806 
Q 2441 1863 1863 2006 
Q 1119 2191 819 2459 
Q 397 2838 397 3381 
Q 397 3731 595 4036 
Q 794 4341 1167 4500 
Q 1541 4659 2069 4659 
Q 2931 4659 3367 4281 
Q 3803 3903 3825 3272 
L 2900 3231 
Q 2841 3584 2645 3739 
Q 2450 3894 2059 3894 
Q 1656 3894 1428 3728 
Q 1281 3622 1281 3444 
Q 1281 3281 1419 3166 
Q 1594 3019 2269 2859 
Q 2944 2700 3267 2529 
Q 3591 2359 3773 2064 
Q 3956 1769 3956 1334 
Q 3956 941 3737 597 
Q 3519 253 3119 86 
Q 2719 -81 2122 -81 
Q 1253 -81 787 320 
Q 322 722 231 1491 
z
" transform="scale(0.015625)"/>
       <path id="Arial-BoldMT-49" d="M 438 0 
L 438 4581 
L 1363 4581 
L 1363 0 
L 438 0 
z
" transform="scale(0.015625)"/>
       <path id="Arial-BoldMT-20" transform="scale(0.015625)"/>
       <path id="Arial-BoldMT-74" d="M 1981 3319 
L 1981 2619 
L 1381 2619 
L 1381 1281 
Q 1381 875 1398 808 
Q 1416 741 1477 697 
Q 1538 653 1625 653 
Q 1747 653 1978 738 
L 2053 56 
Q 1747 -75 1359 -75 
Q 1122 -75 931 4 
Q 741 84 652 211 
Q 563 338 528 553 
Q 500 706 500 1172 
L 500 2619 
L 97 2619 
L 97 3319 
L 500 3319 
L 500 3978 
L 1381 4491 
L 1381 3319 
L 1981 3319 
z
" transform="scale(0.015625)"/>
       <path id="Arial-BoldMT-65" d="M 2381 1056 
L 3256 909 
Q 3088 428 2723 176 
Q 2359 -75 1813 -75 
Q 947 -75 531 491 
Q 203 944 203 1634 
Q 203 2459 634 2926 
Q 1066 3394 1725 3394 
Q 2466 3394 2894 2905 
Q 3322 2416 3303 1406 
L 1103 1406 
Q 1113 1016 1316 798 
Q 1519 581 1822 581 
Q 2028 581 2168 693 
Q 2309 806 2381 1056 
z
M 2431 1944 
Q 2422 2325 2234 2523 
Q 2047 2722 1778 2722 
Q 1491 2722 1303 2513 
Q 1116 2303 1119 1944 
L 2431 1944 
z
" transform="scale(0.015625)"/>
       <path id="Arial-BoldMT-70" d="M 434 3319 
L 1253 3319 
L 1253 2831 
Q 1413 3081 1684 3237 
Q 1956 3394 2288 3394 
Q 2866 3394 3269 2941 
Q 3672 2488 3672 1678 
Q 3672 847 3265 386 
Q 2859 -75 2281 -75 
Q 2006 -75 1782 34 
Q 1559 144 1313 409 
L 1313 -1263 
L 434 -1263 
L 434 3319 
z
M 1303 1716 
Q 1303 1156 1525 889 
Q 1747 622 2066 622 
Q 2372 622 2575 867 
Q 2778 1113 2778 1672 
Q 2778 2194 2568 2447 
Q 2359 2700 2050 2700 
Q 1728 2700 1515 2451 
Q 1303 2203 1303 1716 
z
" transform="scale(0.015625)"/>
       <path id="Arial-BoldMT-3d" d="M 266 2550 
L 266 3356 
L 3469 3356 
L 3469 2550 
L 266 2550 
z
M 266 1163 
L 266 1972 
L 3469 1972 
L 3469 1163 
L 266 1163 
z
" transform="scale(0.015625)"/>
       <path id="Arial-BoldMT-2d" d="M 359 1222 
L 359 2100 
L 2084 2100 
L 2084 1222 
L 359 1222 
z
" transform="scale(0.015625)"/>
      </defs>
      <use xlink:href="#Arial-BoldMT-53"/>
      <use xlink:href="#Arial-BoldMT-49" transform="translate(66.699219 0)"/>
      <use xlink:href="#Arial-BoldMT-20" transform="translate(94.482422 0)"/>
      <use xlink:href="#Arial-BoldMT-73" transform="translate(122.265625 0)"/>
      <use xlink:href="#Arial-BoldMT-74" transform="translate(177.880859 0)"/>
      <use xlink:href="#Arial-BoldMT-65" transform="translate(211.181641 0)"/>
      <use xlink:href="#Arial-BoldMT-70" transform="translate(266.796875 0)"/>
      <use xlink:href="#Arial-BoldMT-3d" transform="translate(327.880859 0)"/>
      <use xlink:href="#Arial-BoldMT-31" transform="translate(386.279297 0)"/>
      <use xlink:href="#Arial-BoldMT-65" transform="translate(441.894531 0)"/>
      <use xlink:href="#Arial-BoldMT-2d" transform="translate(497.509766 0)"/>
      <use xlink:href="#Arial-BoldMT-30" transform="translate(530.810547 0)"/>
      <use xlink:href="#Arial-BoldMT-32" transform="translate(586.425781 0)"/>
     </g>
    </g>
    <g id="line2d_55">
     <path d="M 88.945865 68.86274 
L 104.945865 68.86274 
L 120.945865 68.86274 
" style="fill: none; stroke: #ff7f0e; stroke-width: 4; stroke-linecap: round"/>
     <g>
      <use xlink:href="#mec288e6b8d" x="104.945865" y="68.86274" style="fill: #ff7f0e; stroke: #ff7f0e"/>
     </g>
    </g>
    <g id="text_8">
     <!-- SI step=1e-03 -->
     <g style="fill: #262626" transform="translate(133.745865 74.46274) scale(0.16 -0.16)">
      <defs>
       <path id="Arial-BoldMT-33" d="M 241 1216 
L 1091 1319 
Q 1131 994 1309 822 
Q 1488 650 1741 650 
Q 2013 650 2198 856 
Q 2384 1063 2384 1413 
Q 2384 1744 2206 1937 
Q 2028 2131 1772 2131 
Q 1603 2131 1369 2066 
L 1466 2781 
Q 1822 2772 2009 2936 
Q 2197 3100 2197 3372 
Q 2197 3603 2059 3740 
Q 1922 3878 1694 3878 
Q 1469 3878 1309 3722 
Q 1150 3566 1116 3266 
L 306 3403 
Q 391 3819 561 4067 
Q 731 4316 1036 4458 
Q 1341 4600 1719 4600 
Q 2366 4600 2756 4188 
Q 3078 3850 3078 3425 
Q 3078 2822 2419 2463 
Q 2813 2378 3048 2084 
Q 3284 1791 3284 1375 
Q 3284 772 2843 347 
Q 2403 -78 1747 -78 
Q 1125 -78 715 280 
Q 306 638 241 1216 
z
" transform="scale(0.015625)"/>
      </defs>
      <use xlink:href="#Arial-BoldMT-53"/>
      <use xlink:href="#Arial-BoldMT-49" transform="translate(66.699219 0)"/>
      <use xlink:href="#Arial-BoldMT-20" transform="translate(94.482422 0)"/>
      <use xlink:href="#Arial-BoldMT-73" transform="translate(122.265625 0)"/>
      <use xlink:href="#Arial-BoldMT-74" transform="translate(177.880859 0)"/>
      <use xlink:href="#Arial-BoldMT-65" transform="translate(211.181641 0)"/>
      <use xlink:href="#Arial-BoldMT-70" transform="translate(266.796875 0)"/>
      <use xlink:href="#Arial-BoldMT-3d" transform="translate(327.880859 0)"/>
      <use xlink:href="#Arial-BoldMT-31" transform="translate(386.279297 0)"/>
      <use xlink:href="#Arial-BoldMT-65" transform="translate(441.894531 0)"/>
      <use xlink:href="#Arial-BoldMT-2d" transform="translate(497.509766 0)"/>
      <use xlink:href="#Arial-BoldMT-30" transform="translate(530.810547 0)"/>
      <use xlink:href="#Arial-BoldMT-33" transform="translate(586.425781 0)"/>
     </g>
    </g>
    <g id="line2d_56">
     <path d="M 88.945865 91.66774 
L 104.945865 91.66774 
L 120.945865 91.66774 
" style="fill: none; stroke: #2ca02c; stroke-width: 4; stroke-linecap: round"/>
     <g>
      <use xlink:href="#m63d0027cea" x="104.945865" y="91.66774" style="fill: #2ca02c; stroke: #2ca02c"/>
     </g>
    </g>
    <g id="text_9">
     <!-- SI step=1e-04 -->
     <g style="fill: #262626" transform="translate(133.745865 97.26774) scale(0.16 -0.16)">
      <defs>
       <path id="Arial-BoldMT-34" d="M 1994 0 
L 1994 922 
L 119 922 
L 119 1691 
L 2106 4600 
L 2844 4600 
L 2844 1694 
L 3413 1694 
L 3413 922 
L 2844 922 
L 2844 0 
L 1994 0 
z
M 1994 1694 
L 1994 3259 
L 941 1694 
L 1994 1694 
z
" transform="scale(0.015625)"/>
      </defs>
      <use xlink:href="#Arial-BoldMT-53"/>
      <use xlink:href="#Arial-BoldMT-49" transform="translate(66.699219 0)"/>
      <use xlink:href="#Arial-BoldMT-20" transform="translate(94.482422 0)"/>
      <use xlink:href="#Arial-BoldMT-73" transform="translate(122.265625 0)"/>
      <use xlink:href="#Arial-BoldMT-74" transform="translate(177.880859 0)"/>
      <use xlink:href="#Arial-BoldMT-65" transform="translate(211.181641 0)"/>
      <use xlink:href="#Arial-BoldMT-70" transform="translate(266.796875 0)"/>
      <use xlink:href="#Arial-BoldMT-3d" transform="translate(327.880859 0)"/>
      <use xlink:href="#Arial-BoldMT-31" transform="translate(386.279297 0)"/>
      <use xlink:href="#Arial-BoldMT-65" transform="translate(441.894531 0)"/>
      <use xlink:href="#Arial-BoldMT-2d" transform="translate(497.509766 0)"/>
      <use xlink:href="#Arial-BoldMT-30" transform="translate(530.810547 0)"/>
      <use xlink:href="#Arial-BoldMT-34" transform="translate(586.425781 0)"/>
     </g>
    </g>
   </g>
  </g>
 </g>
 <defs>
  <clipPath id="p65b8458b06">
   <rect x="74.545865" y="3.00024" width="498.453895" height="433.52202"/>
  </clipPath>
 </defs>
</svg>
