<?xml version="1.0" encoding="utf-8" standalone="no"?>
<!DOCTYPE svg PUBLIC "-//W3C//DTD SVG 1.1//EN"
  "http://www.w3.org/Graphics/SVG/1.1/DTD/svg11.dtd">
<svg xmlns:xlink="http://www.w3.org/1999/xlink" width="1008pt" height="652.32pt" viewBox="0 0 1008 652.32" xmlns="http://www.w3.org/2000/svg" version="1.1">
 <metadata>
  <rdf:RDF xmlns:dc="http://purl.org/dc/elements/1.1/" xmlns:cc="http://creativecommons.org/ns#" xmlns:rdf="http://www.w3.org/1999/02/22-rdf-syntax-ns#">
   <cc:Work>
    <dc:type rdf:resource="http://purl.org/dc/dcmitype/StillImage"/>
    <dc:date>2026-02-12T00:37:59.590882</dc:date>
    <dc:format>image/svg+xml</dc:format>
    <dc:creator>
     <cc:Agent>
      <dc:title>Matplotlib v3.10.8, https://matplotlib.org/</dc:title>
     </cc:Agent>
    </dc:creator>
   </cc:Work>
  </rdf:RDF>
 </metadata>
 <defs>
  <style type="text/css">*{stroke-linejoin: round; stroke-linecap: butt}</style>
 </defs>
 <g id="figure_1">
  <g id="patch_1">
   <path d="M 0 652.32 
L 1008 652.32 
L 1008 0 
L 0 0 
z
" style="fill: #ffffff"/>
  </g>
  <g id="axes_1">
   <g id="patch_2">
    <path d="M 120.36024 567.226635 
L 918.820385 567.226635 
L 918.820385 33.03024 
L 120.36024 33.03024 
z
" style="fill: #ffffff"/>
   </g>
   <g id="matplotlib.axis_1">
    <g id="xtick_1">
     <g id="line2d_1">
      <path d="M 209.641287 567.226635 
L 209.641287 33.03024 
" clip-path="url(#p6419b8fa59)" style="fill: none; stroke: #cccccc; stroke-opacity: 0.3; stroke-width: 1.5; stroke-linecap: round"/>
     </g>
     <g id="line2d_2">
      <defs>
       <path id="m5a3b37b667" d="M 0 0 
L 0 12 
" style="stroke: #262626; stroke-width: 4"/>
      </defs>
      <g>
       <use xlink:href="#m5a3b37b667" x="209.641287" y="567.226635" style="fill: #262626; stroke: #262626; stroke-width: 4"/>
      </g>
     </g>
     <g id="text_1">
      <!-- $\mathdefault{10^{-13}}$ -->
      <g style="fill: #262626" transform="translate(176.461287 611.64101) scale(0.28 -0.28)">
       <defs>
        <path id="Arial-BoldMT-31" d="M 2519 0 
L 1641 0 
L 1641 3309 
Q 1159 2859 506 2644 
L 506 3441 
Q 850 3553 1253 3867 
Q 1656 4181 1806 4600 
L 2519 4600 
L 2519 0 
z
" transform="scale(0.015625)"/>
        <path id="Arial-BoldMT-30" d="M 1756 4600 
Q 2422 4600 2797 4125 
Q 3244 3563 3244 2259 
Q 3244 959 2794 391 
Q 2422 -78 1756 -78 
Q 1088 -78 678 436 
Q 269 950 269 2269 
Q 269 3563 719 4131 
Q 1091 4600 1756 4600 
z
M 1756 3872 
Q 1597 3872 1472 3770 
Q 1347 3669 1278 3406 
Q 1188 3066 1188 2259 
Q 1188 1453 1269 1151 
Q 1350 850 1473 750 
Q 1597 650 1756 650 
Q 1916 650 2041 751 
Q 2166 853 2234 1116 
Q 2325 1453 2325 2259 
Q 2325 3066 2244 3367 
Q 2163 3669 2039 3770 
Q 1916 3872 1756 3872 
z
" transform="scale(0.015625)"/>
        <path id="Arial-BoldMT-2212" d="M 266 1850 
L 266 2672 
L 3469 2672 
L 3469 1850 
L 266 1850 
z
" transform="scale(0.015625)"/>
        <path id="Arial-BoldMT-33" d="M 241 1216 
L 1091 1319 
Q 1131 994 1309 822 
Q 1488 650 1741 650 
Q 2013 650 2198 856 
Q 2384 1063 2384 1413 
Q 2384 1744 2206 1937 
Q 2028 2131 1772 2131 
Q 1603 2131 1369 2066 
L 1466 2781 
Q 1822 2772 2009 2936 
Q 2197 3100 2197 3372 
Q 2197 3603 2059 3740 
Q 1922 3878 1694 3878 
Q 1469 3878 1309 3722 
Q 1150 3566 1116 3266 
L 306 3403 
Q 391 3819 561 4067 
Q 731 4316 1036 4458 
Q 1341 4600 1719 4600 
Q 2366 4600 2756 4188 
Q 3078 3850 3078 3425 
Q 3078 2822 2419 2463 
Q 2813 2378 3048 2084 
Q 3284 1791 3284 1375 
Q 3284 772 2843 347 
Q 2403 -78 1747 -78 
Q 1125 -78 715 280 
Q 306 638 241 1216 
z
" transform="scale(0.015625)"/>
       </defs>
       <use xlink:href="#Arial-BoldMT-31" transform="translate(0 0.99375)"/>
       <use xlink:href="#Arial-BoldMT-30" transform="translate(55.615234 0.99375)"/>
       <use xlink:href="#Arial-BoldMT-2212" transform="translate(112.972813 70.6875) scale(0.7)"/>
       <use xlink:href="#Arial-BoldMT-31" transform="translate(153.851719 70.6875) scale(0.7)"/>
       <use xlink:href="#Arial-BoldMT-33" transform="translate(192.782383 70.6875) scale(0.7)"/>
      </g>
     </g>
    </g>
    <g id="xtick_2">
     <g id="line2d_3">
      <path d="M 315.616095 567.226635 
L 315.616095 33.03024 
" clip-path="url(#p6419b8fa59)" style="fill: none; stroke: #cccccc; stroke-opacity: 0.3; stroke-width: 1.5; stroke-linecap: round"/>
     </g>
     <g id="line2d_4">
      <g>
       <use xlink:href="#m5a3b37b667" x="315.616095" y="567.226635" style="fill: #262626; stroke: #262626; stroke-width: 4"/>
      </g>
     </g>
     <g id="text_2">
      <!-- $\mathdefault{10^{-11}}$ -->
      <g style="fill: #262626" transform="translate(282.436095 611.64101) scale(0.28 -0.28)">
       <use xlink:href="#Arial-BoldMT-31" transform="translate(0 0.99375)"/>
       <use xlink:href="#Arial-BoldMT-30" transform="translate(55.615234 0.99375)"/>
       <use xlink:href="#Arial-BoldMT-2212" transform="translate(112.972813 70.6875) scale(0.7)"/>
       <use xlink:href="#Arial-BoldMT-31" transform="translate(153.851719 70.6875) scale(0.7)"/>
       <use xlink:href="#Arial-BoldMT-31" transform="translate(192.782383 70.6875) scale(0.7)"/>
      </g>
     </g>
    </g>
    <g id="xtick_3">
     <g id="line2d_5">
      <path d="M 421.590903 567.226635 
L 421.590903 33.03024 
" clip-path="url(#p6419b8fa59)" style="fill: none; stroke: #cccccc; stroke-opacity: 0.3; stroke-width: 1.5; stroke-linecap: round"/>
     </g>
     <g id="line2d_6">
      <g>
       <use xlink:href="#m5a3b37b667" x="421.590903" y="567.226635" style="fill: #262626; stroke: #262626; stroke-width: 4"/>
      </g>
     </g>
     <g id="text_3">
      <!-- $\mathdefault{10^{-9}}$ -->
      <g style="fill: #262626" transform="translate(393.870903 611.64101) scale(0.28 -0.28)">
       <defs>
        <path id="Arial-BoldMT-39" d="M 291 1059 
L 1141 1153 
Q 1172 894 1303 769 
Q 1434 644 1650 644 
Q 1922 644 2112 894 
Q 2303 1144 2356 1931 
Q 2025 1547 1528 1547 
Q 988 1547 595 1964 
Q 203 2381 203 3050 
Q 203 3747 617 4173 
Q 1031 4600 1672 4600 
Q 2369 4600 2816 4061 
Q 3263 3522 3263 2288 
Q 3263 1031 2797 475 
Q 2331 -81 1584 -81 
Q 1047 -81 715 205 
Q 384 491 291 1059 
z
M 2278 2978 
Q 2278 3403 2083 3637 
Q 1888 3872 1631 3872 
Q 1388 3872 1227 3680 
Q 1066 3488 1066 3050 
Q 1066 2606 1241 2398 
Q 1416 2191 1678 2191 
Q 1931 2191 2104 2391 
Q 2278 2591 2278 2978 
z
" transform="scale(0.015625)"/>
       </defs>
       <use xlink:href="#Arial-BoldMT-31" transform="translate(0 0.99375)"/>
       <use xlink:href="#Arial-BoldMT-30" transform="translate(55.615234 0.99375)"/>
       <use xlink:href="#Arial-BoldMT-2212" transform="translate(112.972813 70.6875) scale(0.7)"/>
       <use xlink:href="#Arial-BoldMT-39" transform="translate(153.851719 70.6875) scale(0.7)"/>
      </g>
     </g>
    </g>
    <g id="xtick_4">
     <g id="line2d_7">
      <path d="M 527.565712 567.226635 
L 527.565712 33.03024 
" clip-path="url(#p6419b8fa59)" style="fill: none; stroke: #cccccc; stroke-opacity: 0.3; stroke-width: 1.5; stroke-linecap: round"/>
     </g>
     <g id="line2d_8">
      <g>
       <use xlink:href="#m5a3b37b667" x="527.565712" y="567.226635" style="fill: #262626; stroke: #262626; stroke-width: 4"/>
      </g>
     </g>
     <g id="text_4">
      <!-- $\mathdefault{10^{-7}}$ -->
      <g style="fill: #262626" transform="translate(499.845712 611.36101) scale(0.28 -0.28)">
       <defs>
        <path id="Arial-BoldMT-37" d="M 272 3703 
L 272 4519 
L 3275 4519 
L 3275 3881 
Q 2903 3516 2518 2831 
Q 2134 2147 1932 1376 
Q 1731 606 1734 0 
L 888 0 
Q 909 950 1279 1937 
Q 1650 2925 2269 3703 
L 272 3703 
z
" transform="scale(0.015625)"/>
       </defs>
       <use xlink:href="#Arial-BoldMT-31" transform="translate(0 0.879688)"/>
       <use xlink:href="#Arial-BoldMT-30" transform="translate(55.615234 0.879688)"/>
       <use xlink:href="#Arial-BoldMT-2212" transform="translate(112.972813 70.573438) scale(0.7)"/>
       <use xlink:href="#Arial-BoldMT-37" transform="translate(153.851719 70.573438) scale(0.7)"/>
      </g>
     </g>
    </g>
    <g id="xtick_5">
     <g id="line2d_9">
      <path d="M 633.54052 567.226635 
L 633.54052 33.03024 
" clip-path="url(#p6419b8fa59)" style="fill: none; stroke: #cccccc; stroke-opacity: 0.3; stroke-width: 1.5; stroke-linecap: round"/>
     </g>
     <g id="line2d_10">
      <g>
       <use xlink:href="#m5a3b37b667" x="633.54052" y="567.226635" style="fill: #262626; stroke: #262626; stroke-width: 4"/>
      </g>
     </g>
     <g id="text_5">
      <!-- $\mathdefault{10^{-5}}$ -->
      <g style="fill: #262626" transform="translate(605.82052 611.36101) scale(0.28 -0.28)">
       <defs>
        <path id="Arial-BoldMT-35" d="M 284 1178 
L 1159 1269 
Q 1197 972 1381 798 
Q 1566 625 1806 625 
Q 2081 625 2272 848 
Q 2463 1072 2463 1522 
Q 2463 1944 2273 2155 
Q 2084 2366 1781 2366 
Q 1403 2366 1103 2031 
L 391 2134 
L 841 4519 
L 3163 4519 
L 3163 3697 
L 1506 3697 
L 1369 2919 
Q 1663 3066 1969 3066 
Q 2553 3066 2959 2641 
Q 3366 2216 3366 1538 
Q 3366 972 3038 528 
Q 2591 -78 1797 -78 
Q 1163 -78 763 262 
Q 363 603 284 1178 
z
" transform="scale(0.015625)"/>
       </defs>
       <use xlink:href="#Arial-BoldMT-31" transform="translate(0 0.879688)"/>
       <use xlink:href="#Arial-BoldMT-30" transform="translate(55.615234 0.879688)"/>
       <use xlink:href="#Arial-BoldMT-2212" transform="translate(112.972813 70.573438) scale(0.7)"/>
       <use xlink:href="#Arial-BoldMT-35" transform="translate(153.851719 70.573438) scale(0.7)"/>
      </g>
     </g>
    </g>
    <g id="xtick_6">
     <g id="line2d_11">
      <path d="M 739.515328 567.226635 
L 739.515328 33.03024 
" clip-path="url(#p6419b8fa59)" style="fill: none; stroke: #cccccc; stroke-opacity: 0.3; stroke-width: 1.5; stroke-linecap: round"/>
     </g>
     <g id="line2d_12">
      <g>
       <use xlink:href="#m5a3b37b667" x="739.515328" y="567.226635" style="fill: #262626; stroke: #262626; stroke-width: 4"/>
      </g>
     </g>
     <g id="text_6">
      <!-- $\mathdefault{10^{-3}}$ -->
      <g style="fill: #262626" transform="translate(711.795328 611.64101) scale(0.28 -0.28)">
       <use xlink:href="#Arial-BoldMT-31" transform="translate(0 0.99375)"/>
       <use xlink:href="#Arial-BoldMT-30" transform="translate(55.615234 0.99375)"/>
       <use xlink:href="#Arial-BoldMT-2212" transform="translate(112.972813 70.6875) scale(0.7)"/>
       <use xlink:href="#Arial-BoldMT-33" transform="translate(153.851719 70.6875) scale(0.7)"/>
      </g>
     </g>
    </g>
    <g id="xtick_7">
     <g id="line2d_13">
      <path d="M 845.490136 567.226635 
L 845.490136 33.03024 
" clip-path="url(#p6419b8fa59)" style="fill: none; stroke: #cccccc; stroke-opacity: 0.3; stroke-width: 1.5; stroke-linecap: round"/>
     </g>
     <g id="line2d_14">
      <g>
       <use xlink:href="#m5a3b37b667" x="845.490136" y="567.226635" style="fill: #262626; stroke: #262626; stroke-width: 4"/>
      </g>
     </g>
     <g id="text_7">
      <!-- $\mathdefault{10^{-1}}$ -->
      <g style="fill: #262626" transform="translate(817.770136 611.64101) scale(0.28 -0.28)">
       <use xlink:href="#Arial-BoldMT-31" transform="translate(0 0.99375)"/>
       <use xlink:href="#Arial-BoldMT-30" transform="translate(55.615234 0.99375)"/>
       <use xlink:href="#Arial-BoldMT-2212" transform="translate(112.972813 70.6875) scale(0.7)"/>
       <use xlink:href="#Arial-BoldMT-31" transform="translate(153.851719 70.6875) scale(0.7)"/>
      </g>
     </g>
    </g>
    <g id="text_8">
     <!-- Shift Parameter (log) -->
     <g style="fill: #262626" transform="translate(372.072344 643.005697) scale(0.3 -0.3)">
      <defs>
       <path id="Arial-BoldMT-53" d="M 231 1491 
L 1131 1578 
Q 1213 1125 1461 912 
Q 1709 700 2131 700 
Q 2578 700 2804 889 
Q 3031 1078 3031 1331 
Q 3031 1494 2936 1608 
Q 2841 1722 2603 1806 
Q 2441 1863 1863 2006 
Q 1119 2191 819 2459 
Q 397 2838 397 3381 
Q 397 3731 595 4036 
Q 794 4341 1167 4500 
Q 1541 4659 2069 4659 
Q 2931 4659 3367 4281 
Q 3803 3903 3825 3272 
L 2900 3231 
Q 2841 3584 2645 3739 
Q 2450 3894 2059 3894 
Q 1656 3894 1428 3728 
Q 1281 3622 1281 3444 
Q 1281 3281 1419 3166 
Q 1594 3019 2269 2859 
Q 2944 2700 3267 2529 
Q 3591 2359 3773 2064 
Q 3956 1769 3956 1334 
Q 3956 941 3737 597 
Q 3519 253 3119 86 
Q 2719 -81 2122 -81 
Q 1253 -81 787 320 
Q 322 722 231 1491 
z
" transform="scale(0.015625)"/>
       <path id="Arial-BoldMT-68" d="M 1334 4581 
L 1334 2897 
Q 1759 3394 2350 3394 
Q 2653 3394 2897 3281 
Q 3141 3169 3264 2994 
Q 3388 2819 3433 2606 
Q 3478 2394 3478 1947 
L 3478 0 
L 2600 0 
L 2600 1753 
Q 2600 2275 2550 2415 
Q 2500 2556 2373 2639 
Q 2247 2722 2056 2722 
Q 1838 2722 1666 2615 
Q 1494 2509 1414 2295 
Q 1334 2081 1334 1663 
L 1334 0 
L 456 0 
L 456 4581 
L 1334 4581 
z
" transform="scale(0.015625)"/>
       <path id="Arial-BoldMT-69" d="M 459 3769 
L 459 4581 
L 1338 4581 
L 1338 3769 
L 459 3769 
z
M 459 0 
L 459 3319 
L 1338 3319 
L 1338 0 
L 459 0 
z
" transform="scale(0.015625)"/>
       <path id="Arial-BoldMT-66" d="M 75 3319 
L 563 3319 
L 563 3569 
Q 563 3988 652 4194 
Q 741 4400 980 4529 
Q 1219 4659 1584 4659 
Q 1959 4659 2319 4547 
L 2200 3934 
Q 1991 3984 1797 3984 
Q 1606 3984 1523 3895 
Q 1441 3806 1441 3553 
L 1441 3319 
L 2097 3319 
L 2097 2628 
L 1441 2628 
L 1441 0 
L 563 0 
L 563 2628 
L 75 2628 
L 75 3319 
z
" transform="scale(0.015625)"/>
       <path id="Arial-BoldMT-74" d="M 1981 3319 
L 1981 2619 
L 1381 2619 
L 1381 1281 
Q 1381 875 1398 808 
Q 1416 741 1477 697 
Q 1538 653 1625 653 
Q 1747 653 1978 738 
L 2053 56 
Q 1747 -75 1359 -75 
Q 1122 -75 931 4 
Q 741 84 652 211 
Q 563 338 528 553 
Q 500 706 500 1172 
L 500 2619 
L 97 2619 
L 97 3319 
L 500 3319 
L 500 3978 
L 1381 4491 
L 1381 3319 
L 1981 3319 
z
" transform="scale(0.015625)"/>
       <path id="Arial-BoldMT-20" transform="scale(0.015625)"/>
       <path id="Arial-BoldMT-50" d="M 466 0 
L 466 4581 
L 1950 4581 
Q 2794 4581 3050 4513 
Q 3444 4409 3709 4064 
Q 3975 3719 3975 3172 
Q 3975 2750 3822 2462 
Q 3669 2175 3433 2011 
Q 3197 1847 2953 1794 
Q 2622 1728 1994 1728 
L 1391 1728 
L 1391 0 
L 466 0 
z
M 1391 3806 
L 1391 2506 
L 1897 2506 
Q 2444 2506 2628 2578 
Q 2813 2650 2917 2803 
Q 3022 2956 3022 3159 
Q 3022 3409 2875 3571 
Q 2728 3734 2503 3775 
Q 2338 3806 1838 3806 
L 1391 3806 
z
" transform="scale(0.015625)"/>
       <path id="Arial-BoldMT-61" d="M 1116 2306 
L 319 2450 
Q 453 2931 781 3162 
Q 1109 3394 1756 3394 
Q 2344 3394 2631 3255 
Q 2919 3116 3036 2902 
Q 3153 2688 3153 2116 
L 3144 1091 
Q 3144 653 3186 445 
Q 3228 238 3344 0 
L 2475 0 
Q 2441 88 2391 259 
Q 2369 338 2359 363 
Q 2134 144 1878 34 
Q 1622 -75 1331 -75 
Q 819 -75 523 203 
Q 228 481 228 906 
Q 228 1188 362 1408 
Q 497 1628 739 1745 
Q 981 1863 1438 1950 
Q 2053 2066 2291 2166 
L 2291 2253 
Q 2291 2506 2166 2614 
Q 2041 2722 1694 2722 
Q 1459 2722 1328 2630 
Q 1197 2538 1116 2306 
z
M 2291 1594 
Q 2122 1538 1756 1459 
Q 1391 1381 1278 1306 
Q 1106 1184 1106 997 
Q 1106 813 1243 678 
Q 1381 544 1594 544 
Q 1831 544 2047 700 
Q 2206 819 2256 991 
Q 2291 1103 2291 1419 
L 2291 1594 
z
" transform="scale(0.015625)"/>
       <path id="Arial-BoldMT-72" d="M 1300 0 
L 422 0 
L 422 3319 
L 1238 3319 
L 1238 2847 
Q 1447 3181 1614 3287 
Q 1781 3394 1994 3394 
Q 2294 3394 2572 3228 
L 2300 2463 
Q 2078 2606 1888 2606 
Q 1703 2606 1575 2504 
Q 1447 2403 1373 2137 
Q 1300 1872 1300 1025 
L 1300 0 
z
" transform="scale(0.015625)"/>
       <path id="Arial-BoldMT-6d" d="M 394 3319 
L 1203 3319 
L 1203 2866 
Q 1638 3394 2238 3394 
Q 2556 3394 2790 3262 
Q 3025 3131 3175 2866 
Q 3394 3131 3647 3262 
Q 3900 3394 4188 3394 
Q 4553 3394 4806 3245 
Q 5059 3097 5184 2809 
Q 5275 2597 5275 2122 
L 5275 0 
L 4397 0 
L 4397 1897 
Q 4397 2391 4306 2534 
Q 4184 2722 3931 2722 
Q 3747 2722 3584 2609 
Q 3422 2497 3350 2280 
Q 3278 2063 3278 1594 
L 3278 0 
L 2400 0 
L 2400 1819 
Q 2400 2303 2353 2443 
Q 2306 2584 2207 2653 
Q 2109 2722 1941 2722 
Q 1738 2722 1575 2612 
Q 1413 2503 1342 2297 
Q 1272 2091 1272 1613 
L 1272 0 
L 394 0 
L 394 3319 
z
" transform="scale(0.015625)"/>
       <path id="Arial-BoldMT-65" d="M 2381 1056 
L 3256 909 
Q 3088 428 2723 176 
Q 2359 -75 1813 -75 
Q 947 -75 531 491 
Q 203 944 203 1634 
Q 203 2459 634 2926 
Q 1066 3394 1725 3394 
Q 2466 3394 2894 2905 
Q 3322 2416 3303 1406 
L 1103 1406 
Q 1113 1016 1316 798 
Q 1519 581 1822 581 
Q 2028 581 2168 693 
Q 2309 806 2381 1056 
z
M 2431 1944 
Q 2422 2325 2234 2523 
Q 2047 2722 1778 2722 
Q 1491 2722 1303 2513 
Q 1116 2303 1119 1944 
L 2431 1944 
z
" transform="scale(0.015625)"/>
       <path id="Arial-BoldMT-28" d="M 1916 -1347 
L 1313 -1347 
Q 834 -625 584 153 
Q 334 931 334 1659 
Q 334 2563 644 3369 
Q 913 4069 1325 4659 
L 1925 4659 
Q 1497 3713 1336 3048 
Q 1175 2384 1175 1641 
Q 1175 1128 1270 590 
Q 1366 53 1531 -431 
Q 1641 -750 1916 -1347 
z
" transform="scale(0.015625)"/>
       <path id="Arial-BoldMT-6c" d="M 459 0 
L 459 4581 
L 1338 4581 
L 1338 0 
L 459 0 
z
" transform="scale(0.015625)"/>
       <path id="Arial-BoldMT-6f" d="M 256 1706 
Q 256 2144 472 2553 
Q 688 2963 1083 3178 
Q 1478 3394 1966 3394 
Q 2719 3394 3200 2905 
Q 3681 2416 3681 1669 
Q 3681 916 3195 420 
Q 2709 -75 1972 -75 
Q 1516 -75 1102 131 
Q 688 338 472 736 
Q 256 1134 256 1706 
z
M 1156 1659 
Q 1156 1166 1390 903 
Q 1625 641 1969 641 
Q 2313 641 2545 903 
Q 2778 1166 2778 1666 
Q 2778 2153 2545 2415 
Q 2313 2678 1969 2678 
Q 1625 2678 1390 2415 
Q 1156 2153 1156 1659 
z
" transform="scale(0.015625)"/>
       <path id="Arial-BoldMT-67" d="M 378 -219 
L 1381 -341 
Q 1406 -516 1497 -581 
Q 1622 -675 1891 -675 
Q 2234 -675 2406 -572 
Q 2522 -503 2581 -350 
Q 2622 -241 2622 53 
L 2622 538 
Q 2228 0 1628 0 
Q 959 0 569 566 
Q 263 1013 263 1678 
Q 263 2513 664 2953 
Q 1066 3394 1663 3394 
Q 2278 3394 2678 2853 
L 2678 3319 
L 3500 3319 
L 3500 341 
Q 3500 -247 3403 -537 
Q 3306 -828 3131 -993 
Q 2956 -1159 2664 -1253 
Q 2372 -1347 1925 -1347 
Q 1081 -1347 728 -1058 
Q 375 -769 375 -325 
Q 375 -281 378 -219 
z
M 1163 1728 
Q 1163 1200 1367 954 
Q 1572 709 1872 709 
Q 2194 709 2416 961 
Q 2638 1213 2638 1706 
Q 2638 2222 2425 2472 
Q 2213 2722 1888 2722 
Q 1572 2722 1367 2476 
Q 1163 2231 1163 1728 
z
" transform="scale(0.015625)"/>
       <path id="Arial-BoldMT-29" d="M 216 -1347 
Q 475 -791 581 -494 
Q 688 -197 778 190 
Q 869 578 912 926 
Q 956 1275 956 1641 
Q 956 2384 797 3048 
Q 638 3713 209 4659 
L 806 4659 
Q 1278 3988 1539 3234 
Q 1800 2481 1800 1706 
Q 1800 1053 1594 306 
Q 1359 -531 822 -1347 
L 216 -1347 
z
" transform="scale(0.015625)"/>
      </defs>
      <use xlink:href="#Arial-BoldMT-53"/>
      <use xlink:href="#Arial-BoldMT-68" transform="translate(66.699219 0)"/>
      <use xlink:href="#Arial-BoldMT-69" transform="translate(127.783203 0)"/>
      <use xlink:href="#Arial-BoldMT-66" transform="translate(155.566406 0)"/>
      <use xlink:href="#Arial-BoldMT-74" transform="translate(188.867188 0)"/>
      <use xlink:href="#Arial-BoldMT-20" transform="translate(222.167969 0)"/>
      <use xlink:href="#Arial-BoldMT-50" transform="translate(249.951172 0)"/>
      <use xlink:href="#Arial-BoldMT-61" transform="translate(316.650391 0)"/>
      <use xlink:href="#Arial-BoldMT-72" transform="translate(372.265625 0)"/>
      <use xlink:href="#Arial-BoldMT-61" transform="translate(411.181641 0)"/>
      <use xlink:href="#Arial-BoldMT-6d" transform="translate(466.796875 0)"/>
      <use xlink:href="#Arial-BoldMT-65" transform="translate(555.712891 0)"/>
      <use xlink:href="#Arial-BoldMT-74" transform="translate(611.328125 0)"/>
      <use xlink:href="#Arial-BoldMT-65" transform="translate(644.628906 0)"/>
      <use xlink:href="#Arial-BoldMT-72" transform="translate(700.244141 0)"/>
      <use xlink:href="#Arial-BoldMT-20" transform="translate(739.160156 0)"/>
      <use xlink:href="#Arial-BoldMT-28" transform="translate(766.943359 0)"/>
      <use xlink:href="#Arial-BoldMT-6c" transform="translate(800.244141 0)"/>
      <use xlink:href="#Arial-BoldMT-6f" transform="translate(828.027344 0)"/>
      <use xlink:href="#Arial-BoldMT-67" transform="translate(889.111328 0)"/>
      <use xlink:href="#Arial-BoldMT-29" transform="translate(950.195312 0)"/>
     </g>
    </g>
   </g>
   <g id="matplotlib.axis_2">
    <g id="ytick_1">
     <g id="line2d_15">
      <path d="M 120.36024 496.563983 
L 918.820385 496.563983 
" clip-path="url(#p6419b8fa59)" style="fill: none; stroke: #cccccc; stroke-opacity: 0.3; stroke-width: 1.5; stroke-linecap: round"/>
     </g>
     <g id="line2d_16">
      <defs>
       <path id="m25fcab6016" d="M 0 0 
L -12 0 
" style="stroke: #262626; stroke-width: 4"/>
      </defs>
      <g>
       <use xlink:href="#m25fcab6016" x="120.36024" y="496.563983" style="fill: #262626; stroke: #262626; stroke-width: 4"/>
      </g>
     </g>
     <g id="text_9">
      <!-- $\mathdefault{10^{-13}}$ -->
      <g style="fill: #d62728" transform="translate(38.50024 511.02117) scale(0.28 -0.28)">
       <use xlink:href="#Arial-BoldMT-31" transform="translate(0 0.99375)"/>
       <use xlink:href="#Arial-BoldMT-30" transform="translate(55.615234 0.99375)"/>
       <use xlink:href="#Arial-BoldMT-2212" transform="translate(112.972813 70.6875) scale(0.7)"/>
       <use xlink:href="#Arial-BoldMT-31" transform="translate(153.851719 70.6875) scale(0.7)"/>
       <use xlink:href="#Arial-BoldMT-33" transform="translate(192.782383 70.6875) scale(0.7)"/>
      </g>
     </g>
    </g>
    <g id="ytick_2">
     <g id="line2d_17">
      <path d="M 120.36024 418.037521 
L 918.820385 418.037521 
" clip-path="url(#p6419b8fa59)" style="fill: none; stroke: #cccccc; stroke-opacity: 0.3; stroke-width: 1.5; stroke-linecap: round"/>
     </g>
     <g id="line2d_18">
      <g>
       <use xlink:href="#m25fcab6016" x="120.36024" y="418.037521" style="fill: #262626; stroke: #262626; stroke-width: 4"/>
      </g>
     </g>
     <g id="text_10">
      <!-- $\mathdefault{10^{-11}}$ -->
      <g style="fill: #d62728" transform="translate(38.50024 432.494709) scale(0.28 -0.28)">
       <use xlink:href="#Arial-BoldMT-31" transform="translate(0 0.99375)"/>
       <use xlink:href="#Arial-BoldMT-30" transform="translate(55.615234 0.99375)"/>
       <use xlink:href="#Arial-BoldMT-2212" transform="translate(112.972813 70.6875) scale(0.7)"/>
       <use xlink:href="#Arial-BoldMT-31" transform="translate(153.851719 70.6875) scale(0.7)"/>
       <use xlink:href="#Arial-BoldMT-31" transform="translate(192.782383 70.6875) scale(0.7)"/>
      </g>
     </g>
    </g>
    <g id="ytick_3">
     <g id="line2d_19">
      <path d="M 120.36024 339.51106 
L 918.820385 339.51106 
" clip-path="url(#p6419b8fa59)" style="fill: none; stroke: #cccccc; stroke-opacity: 0.3; stroke-width: 1.5; stroke-linecap: round"/>
     </g>
     <g id="line2d_20">
      <g>
       <use xlink:href="#m25fcab6016" x="120.36024" y="339.51106" style="fill: #262626; stroke: #262626; stroke-width: 4"/>
      </g>
     </g>
     <g id="text_11">
      <!-- $\mathdefault{10^{-9}}$ -->
      <g style="fill: #d62728" transform="translate(49.42024 353.968248) scale(0.28 -0.28)">
       <use xlink:href="#Arial-BoldMT-31" transform="translate(0 0.99375)"/>
       <use xlink:href="#Arial-BoldMT-30" transform="translate(55.615234 0.99375)"/>
       <use xlink:href="#Arial-BoldMT-2212" transform="translate(112.972813 70.6875) scale(0.7)"/>
       <use xlink:href="#Arial-BoldMT-39" transform="translate(153.851719 70.6875) scale(0.7)"/>
      </g>
     </g>
    </g>
    <g id="ytick_4">
     <g id="line2d_21">
      <path d="M 120.36024 260.984599 
L 918.820385 260.984599 
" clip-path="url(#p6419b8fa59)" style="fill: none; stroke: #cccccc; stroke-opacity: 0.3; stroke-width: 1.5; stroke-linecap: round"/>
     </g>
     <g id="line2d_22">
      <g>
       <use xlink:href="#m25fcab6016" x="120.36024" y="260.984599" style="fill: #262626; stroke: #262626; stroke-width: 4"/>
      </g>
     </g>
     <g id="text_12">
      <!-- $\mathdefault{10^{-7}}$ -->
      <g style="fill: #d62728" transform="translate(49.42024 275.301786) scale(0.28 -0.28)">
       <use xlink:href="#Arial-BoldMT-31" transform="translate(0 0.879688)"/>
       <use xlink:href="#Arial-BoldMT-30" transform="translate(55.615234 0.879688)"/>
       <use xlink:href="#Arial-BoldMT-2212" transform="translate(112.972813 70.573438) scale(0.7)"/>
       <use xlink:href="#Arial-BoldMT-37" transform="translate(153.851719 70.573438) scale(0.7)"/>
      </g>
     </g>
    </g>
    <g id="ytick_5">
     <g id="line2d_23">
      <path d="M 120.36024 182.458137 
L 918.820385 182.458137 
" clip-path="url(#p6419b8fa59)" style="fill: none; stroke: #cccccc; stroke-opacity: 0.3; stroke-width: 1.5; stroke-linecap: round"/>
     </g>
     <g id="line2d_24">
      <g>
       <use xlink:href="#m25fcab6016" x="120.36024" y="182.458137" style="fill: #262626; stroke: #262626; stroke-width: 4"/>
      </g>
     </g>
     <g id="text_13">
      <!-- $\mathdefault{10^{-5}}$ -->
      <g style="fill: #d62728" transform="translate(49.42024 196.775325) scale(0.28 -0.28)">
       <use xlink:href="#Arial-BoldMT-31" transform="translate(0 0.879688)"/>
       <use xlink:href="#Arial-BoldMT-30" transform="translate(55.615234 0.879688)"/>
       <use xlink:href="#Arial-BoldMT-2212" transform="translate(112.972813 70.573438) scale(0.7)"/>
       <use xlink:href="#Arial-BoldMT-35" transform="translate(153.851719 70.573438) scale(0.7)"/>
      </g>
     </g>
    </g>
    <g id="ytick_6">
     <g id="line2d_25">
      <path d="M 120.36024 103.931676 
L 918.820385 103.931676 
" clip-path="url(#p6419b8fa59)" style="fill: none; stroke: #cccccc; stroke-opacity: 0.3; stroke-width: 1.5; stroke-linecap: round"/>
     </g>
     <g id="line2d_26">
      <g>
       <use xlink:href="#m25fcab6016" x="120.36024" y="103.931676" style="fill: #262626; stroke: #262626; stroke-width: 4"/>
      </g>
     </g>
     <g id="text_14">
      <!-- $\mathdefault{10^{-3}}$ -->
      <g style="fill: #d62728" transform="translate(49.42024 118.388864) scale(0.28 -0.28)">
       <use xlink:href="#Arial-BoldMT-31" transform="translate(0 0.99375)"/>
       <use xlink:href="#Arial-BoldMT-30" transform="translate(55.615234 0.99375)"/>
       <use xlink:href="#Arial-BoldMT-2212" transform="translate(112.972813 70.6875) scale(0.7)"/>
       <use xlink:href="#Arial-BoldMT-33" transform="translate(153.851719 70.6875) scale(0.7)"/>
      </g>
     </g>
    </g>
    <g id="text_15">
     <!-- Max Variance $[GHz]^2$ -->
     <g style="fill: #d62728" transform="translate(28.579928 449.978438) rotate(-90) scale(0.3 -0.3)">
      <defs>
       <path id="Arial-BoldMT-4d" d="M 453 0 
L 453 4581 
L 1838 4581 
L 2669 1456 
L 3491 4581 
L 4878 4581 
L 4878 0 
L 4019 0 
L 4019 3606 
L 3109 0 
L 2219 0 
L 1313 3606 
L 1313 0 
L 453 0 
z
" transform="scale(0.015625)"/>
       <path id="Arial-BoldMT-78" d="M 38 0 
L 1234 1709 
L 88 3319 
L 1159 3319 
L 1747 2406 
L 2366 3319 
L 3397 3319 
L 2272 1747 
L 3500 0 
L 2422 0 
L 1747 1028 
L 1066 0 
L 38 0 
z
" transform="scale(0.015625)"/>
       <path id="Arial-BoldMT-56" d="M 1634 0 
L -3 4581 
L 1000 4581 
L 2159 1191 
L 3281 4581 
L 4263 4581 
L 2622 0 
L 1634 0 
z
" transform="scale(0.015625)"/>
       <path id="Arial-BoldMT-6e" d="M 3478 0 
L 2600 0 
L 2600 1694 
Q 2600 2231 2544 2389 
Q 2488 2547 2361 2634 
Q 2234 2722 2056 2722 
Q 1828 2722 1647 2597 
Q 1466 2472 1398 2265 
Q 1331 2059 1331 1503 
L 1331 0 
L 453 0 
L 453 3319 
L 1269 3319 
L 1269 2831 
Q 1703 3394 2363 3394 
Q 2653 3394 2893 3289 
Q 3134 3184 3257 3021 
Q 3381 2859 3429 2653 
Q 3478 2447 3478 2063 
L 3478 0 
z
" transform="scale(0.015625)"/>
       <path id="Arial-BoldMT-63" d="M 3353 2338 
L 2488 2181 
Q 2444 2441 2289 2572 
Q 2134 2703 1888 2703 
Q 1559 2703 1364 2476 
Q 1169 2250 1169 1719 
Q 1169 1128 1367 884 
Q 1566 641 1900 641 
Q 2150 641 2309 783 
Q 2469 925 2534 1272 
L 3397 1125 
Q 3263 531 2881 228 
Q 2500 -75 1859 -75 
Q 1131 -75 698 384 
Q 266 844 266 1656 
Q 266 2478 700 2936 
Q 1134 3394 1875 3394 
Q 2481 3394 2839 3133 
Q 3197 2872 3353 2338 
z
" transform="scale(0.015625)"/>
       <path id="DejaVuSans-5b" d="M 550 4863 
L 1875 4863 
L 1875 4416 
L 1125 4416 
L 1125 -397 
L 1875 -397 
L 1875 -844 
L 550 -844 
L 550 4863 
z
" transform="scale(0.015625)"/>
       <path id="DejaVuSans-Oblique-47" d="M 3494 697 
L 3738 1919 
L 2700 1919 
L 2797 2438 
L 4453 2438 
L 4050 384 
Q 3634 156 3143 32 
Q 2653 -91 2156 -91 
Q 1278 -91 783 396 
Q 288 884 288 1753 
Q 288 2475 589 3126 
Q 891 3778 1422 4213 
Q 1756 4484 2153 4617 
Q 2550 4750 3034 4750 
Q 3472 4750 3873 4639 
Q 4275 4528 4641 4306 
L 4513 3634 
Q 4231 3928 3853 4083 
Q 3475 4238 3047 4238 
Q 2550 4238 2172 4048 
Q 1794 3859 1497 3463 
Q 1244 3125 1098 2667 
Q 953 2209 953 1734 
Q 953 1081 1287 751 
Q 1622 422 2284 422 
Q 2616 422 2925 492 
Q 3234 563 3494 697 
z
" transform="scale(0.015625)"/>
       <path id="DejaVuSans-Oblique-48" d="M 1081 4666 
L 1716 4666 
L 1344 2753 
L 3634 2753 
L 4006 4666 
L 4641 4666 
L 3731 0 
L 3097 0 
L 3531 2222 
L 1241 2222 
L 806 0 
L 172 0 
L 1081 4666 
z
" transform="scale(0.015625)"/>
       <path id="DejaVuSans-Oblique-7a" d="M 744 3500 
L 3475 3500 
L 3372 2975 
L 738 459 
L 2913 459 
L 2822 0 
L -19 0 
L 84 525 
L 2719 3041 
L 653 3041 
L 744 3500 
z
" transform="scale(0.015625)"/>
       <path id="DejaVuSans-5d" d="M 1947 4863 
L 1947 -844 
L 622 -844 
L 622 -397 
L 1369 -397 
L 1369 4416 
L 622 4416 
L 622 4863 
L 1947 4863 
z
" transform="scale(0.015625)"/>
       <path id="DejaVuSans-32" d="M 1228 531 
L 3431 531 
L 3431 0 
L 469 0 
L 469 531 
Q 828 903 1448 1529 
Q 2069 2156 2228 2338 
Q 2531 2678 2651 2914 
Q 2772 3150 2772 3378 
Q 2772 3750 2511 3984 
Q 2250 4219 1831 4219 
Q 1534 4219 1204 4116 
Q 875 4013 500 3803 
L 500 4441 
Q 881 4594 1212 4672 
Q 1544 4750 1819 4750 
Q 2544 4750 2975 4387 
Q 3406 4025 3406 3419 
Q 3406 3131 3298 2873 
Q 3191 2616 2906 2266 
Q 2828 2175 2409 1742 
Q 1991 1309 1228 531 
z
" transform="scale(0.015625)"/>
      </defs>
      <use xlink:href="#Arial-BoldMT-4d" transform="translate(0 0.765625)"/>
      <use xlink:href="#Arial-BoldMT-61" transform="translate(83.300781 0.765625)"/>
      <use xlink:href="#Arial-BoldMT-78" transform="translate(138.916016 0.765625)"/>
      <use xlink:href="#Arial-BoldMT-20" transform="translate(194.53125 0.765625)"/>
      <use xlink:href="#Arial-BoldMT-56" transform="translate(222.314453 0.765625)"/>
      <use xlink:href="#Arial-BoldMT-61" transform="translate(289.013672 0.765625)"/>
      <use xlink:href="#Arial-BoldMT-72" transform="translate(344.628906 0.765625)"/>
      <use xlink:href="#Arial-BoldMT-69" transform="translate(383.544922 0.765625)"/>
      <use xlink:href="#Arial-BoldMT-61" transform="translate(411.328125 0.765625)"/>
      <use xlink:href="#Arial-BoldMT-6e" transform="translate(466.943359 0.765625)"/>
      <use xlink:href="#Arial-BoldMT-63" transform="translate(528.027344 0.765625)"/>
      <use xlink:href="#Arial-BoldMT-65" transform="translate(583.642578 0.765625)"/>
      <use xlink:href="#Arial-BoldMT-20" transform="translate(639.257812 0.765625)"/>
      <use xlink:href="#DejaVuSans-5b" transform="translate(667.041016 0.765625)"/>
      <use xlink:href="#DejaVuSans-Oblique-47" transform="translate(706.054688 0.765625)"/>
      <use xlink:href="#DejaVuSans-Oblique-48" transform="translate(783.544922 0.765625)"/>
      <use xlink:href="#DejaVuSans-Oblique-7a" transform="translate(858.740234 0.765625)"/>
      <use xlink:href="#DejaVuSans-5d" transform="translate(911.230469 0.765625)"/>
      <use xlink:href="#DejaVuSans-32" transform="translate(951.201172 39.046875) scale(0.7)"/>
     </g>
    </g>
   </g>
   <g id="line2d_27">
    <path d="M 156.653883 96.924317 
L 209.641287 96.924317 
L 262.628691 96.924317 
L 315.616095 96.924317 
L 368.603499 96.924312 
L 421.590903 526.124032 
L 474.578307 542.944981 
L 527.565712 536.317744 
L 580.553116 527.781681 
L 633.54052 522.90072 
L 686.527924 526.215964 
L 739.515328 466.356733 
L 792.502732 237.455219 
L 845.490136 157.953167 
L 882.526742 57.311894 
" clip-path="url(#p6419b8fa59)" style="fill: none; stroke-dasharray: 18.5,8; stroke-dashoffset: 0; stroke: #d62728; stroke-width: 5"/>
    <defs>
     <path id="m2976a7b404" d="M -7 7 
L 7 -7 
M -7 -7 
L 7 7 
" style="stroke: #d62728"/>
    </defs>
    <g clip-path="url(#p6419b8fa59)">
     <use xlink:href="#m2976a7b404" x="156.653883" y="96.924317" style="fill: #d62728; stroke: #d62728"/>
     <use xlink:href="#m2976a7b404" x="209.641287" y="96.924317" style="fill: #d62728; stroke: #d62728"/>
     <use xlink:href="#m2976a7b404" x="262.628691" y="96.924317" style="fill: #d62728; stroke: #d62728"/>
     <use xlink:href="#m2976a7b404" x="315.616095" y="96.924317" style="fill: #d62728; stroke: #d62728"/>
     <use xlink:href="#m2976a7b404" x="368.603499" y="96.924312" style="fill: #d62728; stroke: #d62728"/>
     <use xlink:href="#m2976a7b404" x="421.590903" y="526.124032" style="fill: #d62728; stroke: #d62728"/>
     <use xlink:href="#m2976a7b404" x="474.578307" y="542.944981" style="fill: #d62728; stroke: #d62728"/>
     <use xlink:href="#m2976a7b404" x="527.565712" y="536.317744" style="fill: #d62728; stroke: #d62728"/>
     <use xlink:href="#m2976a7b404" x="580.553116" y="527.781681" style="fill: #d62728; stroke: #d62728"/>
     <use xlink:href="#m2976a7b404" x="633.54052" y="522.90072" style="fill: #d62728; stroke: #d62728"/>
     <use xlink:href="#m2976a7b404" x="686.527924" y="526.215964" style="fill: #d62728; stroke: #d62728"/>
     <use xlink:href="#m2976a7b404" x="739.515328" y="466.356733" style="fill: #d62728; stroke: #d62728"/>
     <use xlink:href="#m2976a7b404" x="792.502732" y="237.455219" style="fill: #d62728; stroke: #d62728"/>
     <use xlink:href="#m2976a7b404" x="845.490136" y="157.953167" style="fill: #d62728; stroke: #d62728"/>
     <use xlink:href="#m2976a7b404" x="882.526742" y="57.311894" style="fill: #d62728; stroke: #d62728"/>
    </g>
   </g>
   <g id="patch_3">
    <path d="M 120.36024 567.226635 
L 120.36024 33.03024 
" style="fill: none; stroke: #262626; stroke-width: 3; stroke-linejoin: miter; stroke-linecap: square"/>
   </g>
   <g id="patch_4">
    <path d="M 918.820385 567.226635 
L 918.820385 33.03024 
" style="fill: none; stroke: #262626; stroke-width: 3; stroke-linejoin: miter; stroke-linecap: square"/>
   </g>
   <g id="patch_5">
    <path d="M 120.36024 567.226635 
L 918.820385 567.226635 
" style="fill: none; stroke: #262626; stroke-width: 3; stroke-linejoin: miter; stroke-linecap: square"/>
   </g>
   <g id="patch_6">
    <path d="M 120.36024 33.03024 
L 918.820385 33.03024 
" style="fill: none; stroke: #262626; stroke-width: 3; stroke-linejoin: miter; stroke-linecap: square"/>
   </g>
   <g id="legend_1">
    <g id="patch_7">
     <path d="M 137.16024 337.789688 
L 312.70149 337.789688 
Q 317.50149 337.789688 317.50149 332.989688 
L 317.50149 267.267188 
Q 317.50149 262.467188 312.70149 262.467188 
L 137.16024 262.467188 
Q 132.36024 262.467188 132.36024 267.267188 
L 132.36024 332.989688 
Q 132.36024 337.789688 137.16024 337.789688 
z
" style="fill: #ffffff; opacity: 0.8; stroke: #cccccc; stroke-width: 1.5; stroke-linejoin: miter"/>
    </g>
    <g id="line2d_28">
     <path d="M 141.96024 280.845938 
L 165.96024 280.845938 
L 189.96024 280.845938 
" style="fill: none; stroke-dasharray: 18.5,8; stroke-dashoffset: 0; stroke: #d62728; stroke-width: 5"/>
     <g>
      <use xlink:href="#m2976a7b404" x="165.96024" y="280.845938" style="fill: #d62728; stroke: #d62728"/>
     </g>
    </g>
    <g id="text_16">
     <!-- Variance -->
     <g style="fill: #262626" transform="translate(209.16024 289.245938) scale(0.24 -0.24)">
      <use xlink:href="#Arial-BoldMT-56"/>
      <use xlink:href="#Arial-BoldMT-61" transform="translate(61.199219 0)"/>
      <use xlink:href="#Arial-BoldMT-72" transform="translate(116.814453 0)"/>
      <use xlink:href="#Arial-BoldMT-69" transform="translate(155.730469 0)"/>
      <use xlink:href="#Arial-BoldMT-61" transform="translate(183.513672 0)"/>
      <use xlink:href="#Arial-BoldMT-6e" transform="translate(239.128906 0)"/>
      <use xlink:href="#Arial-BoldMT-63" transform="translate(300.212891 0)"/>
      <use xlink:href="#Arial-BoldMT-65" transform="translate(355.828125 0)"/>
     </g>
    </g>
    <g id="line2d_29">
     <path d="M 141.96024 315.053438 
L 165.96024 315.053438 
L 189.96024 315.053438 
" style="fill: none; stroke: #9467bd; stroke-opacity: 0.8; stroke-width: 5; stroke-linecap: round"/>
     <defs>
      <path id="mdc5e2977d9" d="M 0 -6 
L -6 6 
L 6 6 
z
" style="stroke: #9467bd; stroke-opacity: 0.8; stroke-linejoin: miter"/>
     </defs>
     <g>
      <use xlink:href="#mdc5e2977d9" x="165.96024" y="315.053438" style="fill: #9467bd; fill-opacity: 0.8; stroke: #9467bd; stroke-opacity: 0.8; stroke-linejoin: miter"/>
     </g>
    </g>
    <g id="text_17">
     <!-- Overlap -->
     <g style="fill: #262626" transform="translate(209.16024 323.453438) scale(0.24 -0.24)">
      <defs>
       <path id="Arial-BoldMT-4f" d="M 278 2263 
Q 278 2963 488 3438 
Q 644 3788 914 4066 
Q 1184 4344 1506 4478 
Q 1934 4659 2494 4659 
Q 3506 4659 4114 4031 
Q 4722 3403 4722 2284 
Q 4722 1175 4119 548 
Q 3516 -78 2506 -78 
Q 1484 -78 881 545 
Q 278 1169 278 2263 
z
M 1231 2294 
Q 1231 1516 1590 1114 
Q 1950 713 2503 713 
Q 3056 713 3411 1111 
Q 3766 1509 3766 2306 
Q 3766 3094 3420 3481 
Q 3075 3869 2503 3869 
Q 1931 3869 1581 3476 
Q 1231 3084 1231 2294 
z
" transform="scale(0.015625)"/>
       <path id="Arial-BoldMT-76" d="M 1372 0 
L 34 3319 
L 956 3319 
L 1581 1625 
L 1763 1059 
Q 1834 1275 1853 1344 
Q 1897 1484 1947 1625 
L 2578 3319 
L 3481 3319 
L 2163 0 
L 1372 0 
z
" transform="scale(0.015625)"/>
       <path id="Arial-BoldMT-70" d="M 434 3319 
L 1253 3319 
L 1253 2831 
Q 1413 3081 1684 3237 
Q 1956 3394 2288 3394 
Q 2866 3394 3269 2941 
Q 3672 2488 3672 1678 
Q 3672 847 3265 386 
Q 2859 -75 2281 -75 
Q 2006 -75 1782 34 
Q 1559 144 1313 409 
L 1313 -1263 
L 434 -1263 
L 434 3319 
z
M 1303 1716 
Q 1303 1156 1525 889 
Q 1747 622 2066 622 
Q 2372 622 2575 867 
Q 2778 1113 2778 1672 
Q 2778 2194 2568 2447 
Q 2359 2700 2050 2700 
Q 1728 2700 1515 2451 
Q 1303 2203 1303 1716 
z
" transform="scale(0.015625)"/>
      </defs>
      <use xlink:href="#Arial-BoldMT-4f"/>
      <use xlink:href="#Arial-BoldMT-76" transform="translate(77.783203 0)"/>
      <use xlink:href="#Arial-BoldMT-65" transform="translate(133.398438 0)"/>
      <use xlink:href="#Arial-BoldMT-72" transform="translate(189.013672 0)"/>
      <use xlink:href="#Arial-BoldMT-6c" transform="translate(227.929688 0)"/>
      <use xlink:href="#Arial-BoldMT-61" transform="translate(255.712891 0)"/>
      <use xlink:href="#Arial-BoldMT-70" transform="translate(311.328125 0)"/>
     </g>
    </g>
   </g>
  </g>
  <g id="axes_2">
   <g id="matplotlib.axis_3">
    <g id="ytick_7">
     <g id="line2d_30">
      <defs>
       <path id="m40a919b708" d="M 0 0 
L 12 0 
" style="stroke: #262626; stroke-width: 4"/>
      </defs>
      <g>
       <use xlink:href="#m40a919b708" x="918.820385" y="527.006229" style="fill: #262626; stroke: #262626; stroke-width: 4"/>
      </g>
     </g>
     <g id="text_18">
      <!-- 0.0 -->
      <g style="fill: #9467bd" transform="translate(934.320385 537.027166) scale(0.28 -0.28)">
       <defs>
        <path id="Arial-BoldMT-2e" d="M 459 0 
L 459 878 
L 1338 878 
L 1338 0 
L 459 0 
z
" transform="scale(0.015625)"/>
       </defs>
       <use xlink:href="#Arial-BoldMT-30"/>
       <use xlink:href="#Arial-BoldMT-2e" transform="translate(55.615234 0)"/>
       <use xlink:href="#Arial-BoldMT-30" transform="translate(83.398438 0)"/>
      </g>
     </g>
    </g>
    <g id="ytick_8">
     <g id="line2d_31">
      <g>
       <use xlink:href="#m40a919b708" x="918.820385" y="437.114212" style="fill: #262626; stroke: #262626; stroke-width: 4"/>
      </g>
     </g>
     <g id="text_19">
      <!-- 0.2 -->
      <g style="fill: #9467bd" transform="translate(934.320385 447.13515) scale(0.28 -0.28)">
       <defs>
        <path id="Arial-BoldMT-32" d="M 3238 816 
L 3238 0 
L 159 0 
Q 209 463 459 877 
Q 709 1291 1447 1975 
Q 2041 2528 2175 2725 
Q 2356 2997 2356 3263 
Q 2356 3556 2198 3714 
Q 2041 3872 1763 3872 
Q 1488 3872 1325 3706 
Q 1163 3541 1138 3156 
L 263 3244 
Q 341 3969 753 4284 
Q 1166 4600 1784 4600 
Q 2463 4600 2850 4234 
Q 3238 3869 3238 3325 
Q 3238 3016 3127 2736 
Q 3016 2456 2775 2150 
Q 2616 1947 2200 1565 
Q 1784 1184 1673 1059 
Q 1563 934 1494 816 
L 3238 816 
z
" transform="scale(0.015625)"/>
       </defs>
       <use xlink:href="#Arial-BoldMT-30"/>
       <use xlink:href="#Arial-BoldMT-2e" transform="translate(55.615234 0)"/>
       <use xlink:href="#Arial-BoldMT-32" transform="translate(83.398438 0)"/>
      </g>
     </g>
    </g>
    <g id="ytick_9">
     <g id="line2d_32">
      <g>
       <use xlink:href="#m40a919b708" x="918.820385" y="347.222195" style="fill: #262626; stroke: #262626; stroke-width: 4"/>
      </g>
     </g>
     <g id="text_20">
      <!-- 0.4 -->
      <g style="fill: #9467bd" transform="translate(934.320385 357.243133) scale(0.28 -0.28)">
       <defs>
        <path id="Arial-BoldMT-34" d="M 1994 0 
L 1994 922 
L 119 922 
L 119 1691 
L 2106 4600 
L 2844 4600 
L 2844 1694 
L 3413 1694 
L 3413 922 
L 2844 922 
L 2844 0 
L 1994 0 
z
M 1994 1694 
L 1994 3259 
L 941 1694 
L 1994 1694 
z
" transform="scale(0.015625)"/>
       </defs>
       <use xlink:href="#Arial-BoldMT-30"/>
       <use xlink:href="#Arial-BoldMT-2e" transform="translate(55.615234 0)"/>
       <use xlink:href="#Arial-BoldMT-34" transform="translate(83.398438 0)"/>
      </g>
     </g>
    </g>
    <g id="ytick_10">
     <g id="line2d_33">
      <g>
       <use xlink:href="#m40a919b708" x="918.820385" y="257.330178" style="fill: #262626; stroke: #262626; stroke-width: 4"/>
      </g>
     </g>
     <g id="text_21">
      <!-- 0.6 -->
      <g style="fill: #9467bd" transform="translate(934.320385 267.351116) scale(0.28 -0.28)">
       <defs>
        <path id="Arial-BoldMT-36" d="M 3247 3459 
L 2397 3366 
Q 2366 3628 2234 3753 
Q 2103 3878 1894 3878 
Q 1616 3878 1423 3628 
Q 1231 3378 1181 2588 
Q 1509 2975 1997 2975 
Q 2547 2975 2939 2556 
Q 3331 2138 3331 1475 
Q 3331 772 2918 347 
Q 2506 -78 1859 -78 
Q 1166 -78 719 461 
Q 272 1000 272 2228 
Q 272 3488 737 4044 
Q 1203 4600 1947 4600 
Q 2469 4600 2811 4308 
Q 3153 4016 3247 3459 
z
M 1256 1544 
Q 1256 1116 1453 883 
Q 1650 650 1903 650 
Q 2147 650 2309 840 
Q 2472 1031 2472 1466 
Q 2472 1913 2297 2120 
Q 2122 2328 1859 2328 
Q 1606 2328 1431 2129 
Q 1256 1931 1256 1544 
z
" transform="scale(0.015625)"/>
       </defs>
       <use xlink:href="#Arial-BoldMT-30"/>
       <use xlink:href="#Arial-BoldMT-2e" transform="translate(55.615234 0)"/>
       <use xlink:href="#Arial-BoldMT-36" transform="translate(83.398438 0)"/>
      </g>
     </g>
    </g>
    <g id="ytick_11">
     <g id="line2d_34">
      <g>
       <use xlink:href="#m40a919b708" x="918.820385" y="167.438161" style="fill: #262626; stroke: #262626; stroke-width: 4"/>
      </g>
     </g>
     <g id="text_22">
      <!-- 0.8 -->
      <g style="fill: #9467bd" transform="translate(934.320385 177.459099) scale(0.28 -0.28)">
       <defs>
        <path id="Arial-BoldMT-38" d="M 1025 2472 
Q 684 2616 529 2867 
Q 375 3119 375 3419 
Q 375 3931 733 4265 
Q 1091 4600 1750 4600 
Q 2403 4600 2764 4265 
Q 3125 3931 3125 3419 
Q 3125 3100 2959 2851 
Q 2794 2603 2494 2472 
Q 2875 2319 3073 2025 
Q 3272 1731 3272 1347 
Q 3272 713 2867 316 
Q 2463 -81 1791 -81 
Q 1166 -81 750 247 
Q 259 634 259 1309 
Q 259 1681 443 1992 
Q 628 2303 1025 2472 
z
M 1206 3356 
Q 1206 3094 1354 2947 
Q 1503 2800 1750 2800 
Q 2000 2800 2150 2948 
Q 2300 3097 2300 3359 
Q 2300 3606 2151 3754 
Q 2003 3903 1759 3903 
Q 1506 3903 1356 3753 
Q 1206 3603 1206 3356 
z
M 1125 1394 
Q 1125 1031 1311 828 
Q 1497 625 1775 625 
Q 2047 625 2225 820 
Q 2403 1016 2403 1384 
Q 2403 1706 2222 1901 
Q 2041 2097 1763 2097 
Q 1441 2097 1283 1875 
Q 1125 1653 1125 1394 
z
" transform="scale(0.015625)"/>
       </defs>
       <use xlink:href="#Arial-BoldMT-30"/>
       <use xlink:href="#Arial-BoldMT-2e" transform="translate(55.615234 0)"/>
       <use xlink:href="#Arial-BoldMT-38" transform="translate(83.398438 0)"/>
      </g>
     </g>
    </g>
    <g id="ytick_12">
     <g id="line2d_35">
      <g>
       <use xlink:href="#m40a919b708" x="918.820385" y="77.546145" style="fill: #262626; stroke: #262626; stroke-width: 4"/>
      </g>
     </g>
     <g id="text_23">
      <!-- 1.0 -->
      <g style="fill: #9467bd" transform="translate(934.320385 87.567082) scale(0.28 -0.28)">
       <use xlink:href="#Arial-BoldMT-31"/>
       <use xlink:href="#Arial-BoldMT-2e" transform="translate(55.615234 0)"/>
       <use xlink:href="#Arial-BoldMT-30" transform="translate(83.398438 0)"/>
      </g>
     </g>
    </g>
    <g id="text_24">
     <!-- Min Overlap -->
     <g style="fill: #9467bd" transform="translate(999.079448 385.977656) rotate(-90) scale(0.3 -0.3)">
      <use xlink:href="#Arial-BoldMT-4d"/>
      <use xlink:href="#Arial-BoldMT-69" transform="translate(83.300781 0)"/>
      <use xlink:href="#Arial-BoldMT-6e" transform="translate(111.083984 0)"/>
      <use xlink:href="#Arial-BoldMT-20" transform="translate(172.167969 0)"/>
      <use xlink:href="#Arial-BoldMT-4f" transform="translate(199.951172 0)"/>
      <use xlink:href="#Arial-BoldMT-76" transform="translate(277.734375 0)"/>
      <use xlink:href="#Arial-BoldMT-65" transform="translate(333.349609 0)"/>
      <use xlink:href="#Arial-BoldMT-72" transform="translate(388.964844 0)"/>
      <use xlink:href="#Arial-BoldMT-6c" transform="translate(427.880859 0)"/>
      <use xlink:href="#Arial-BoldMT-61" transform="translate(455.664062 0)"/>
      <use xlink:href="#Arial-BoldMT-70" transform="translate(511.279297 0)"/>
     </g>
    </g>
   </g>
   <g id="line2d_36">
    <path d="M 156.653883 77.546606 
L 209.641287 77.546606 
L 262.628691 77.546606 
L 315.616095 77.546606 
L 368.603499 77.546606 
L 421.590903 87.189684 
L 474.578307 87.19573 
L 527.565712 87.193972 
L 580.553116 87.197409 
L 633.54052 87.189334 
L 686.527924 87.193672 
L 739.515328 87.168482 
L 792.502732 342.959538 
L 845.490136 202.371916 
L 882.526742 522.710269 
" clip-path="url(#p6419b8fa59)" style="fill: none; stroke: #9467bd; stroke-opacity: 0.8; stroke-width: 5; stroke-linecap: round"/>
    <g clip-path="url(#p6419b8fa59)">
     <use xlink:href="#mdc5e2977d9" x="156.653883" y="77.546606" style="fill: #9467bd; fill-opacity: 0.8; stroke: #9467bd; stroke-opacity: 0.8; stroke-linejoin: miter"/>
     <use xlink:href="#mdc5e2977d9" x="209.641287" y="77.546606" style="fill: #9467bd; fill-opacity: 0.8; stroke: #9467bd; stroke-opacity: 0.8; stroke-linejoin: miter"/>
     <use xlink:href="#mdc5e2977d9" x="262.628691" y="77.546606" style="fill: #9467bd; fill-opacity: 0.8; stroke: #9467bd; stroke-opacity: 0.8; stroke-linejoin: miter"/>
     <use xlink:href="#mdc5e2977d9" x="315.616095" y="77.546606" style="fill: #9467bd; fill-opacity: 0.8; stroke: #9467bd; stroke-opacity: 0.8; stroke-linejoin: miter"/>
     <use xlink:href="#mdc5e2977d9" x="368.603499" y="77.546606" style="fill: #9467bd; fill-opacity: 0.8; stroke: #9467bd; stroke-opacity: 0.8; stroke-linejoin: miter"/>
     <use xlink:href="#mdc5e2977d9" x="421.590903" y="87.189684" style="fill: #9467bd; fill-opacity: 0.8; stroke: #9467bd; stroke-opacity: 0.8; stroke-linejoin: miter"/>
     <use xlink:href="#mdc5e2977d9" x="474.578307" y="87.19573" style="fill: #9467bd; fill-opacity: 0.8; stroke: #9467bd; stroke-opacity: 0.8; stroke-linejoin: miter"/>
     <use xlink:href="#mdc5e2977d9" x="527.565712" y="87.193972" style="fill: #9467bd; fill-opacity: 0.8; stroke: #9467bd; stroke-opacity: 0.8; stroke-linejoin: miter"/>
     <use xlink:href="#mdc5e2977d9" x="580.553116" y="87.197409" style="fill: #9467bd; fill-opacity: 0.8; stroke: #9467bd; stroke-opacity: 0.8; stroke-linejoin: miter"/>
     <use xlink:href="#mdc5e2977d9" x="633.54052" y="87.189334" style="fill: #9467bd; fill-opacity: 0.8; stroke: #9467bd; stroke-opacity: 0.8; stroke-linejoin: miter"/>
     <use xlink:href="#mdc5e2977d9" x="686.527924" y="87.193672" style="fill: #9467bd; fill-opacity: 0.8; stroke: #9467bd; stroke-opacity: 0.8; stroke-linejoin: miter"/>
     <use xlink:href="#mdc5e2977d9" x="739.515328" y="87.168482" style="fill: #9467bd; fill-opacity: 0.8; stroke: #9467bd; stroke-opacity: 0.8; stroke-linejoin: miter"/>
     <use xlink:href="#mdc5e2977d9" x="792.502732" y="342.959538" style="fill: #9467bd; fill-opacity: 0.8; stroke: #9467bd; stroke-opacity: 0.8; stroke-linejoin: miter"/>
     <use xlink:href="#mdc5e2977d9" x="845.490136" y="202.371916" style="fill: #9467bd; fill-opacity: 0.8; stroke: #9467bd; stroke-opacity: 0.8; stroke-linejoin: miter"/>
     <use xlink:href="#mdc5e2977d9" x="882.526742" y="522.710269" style="fill: #9467bd; fill-opacity: 0.8; stroke: #9467bd; stroke-opacity: 0.8; stroke-linejoin: miter"/>
    </g>
   </g>
   <g id="patch_8">
    <path d="M 120.36024 567.226635 
L 120.36024 33.03024 
" style="fill: none; stroke: #262626; stroke-width: 3; stroke-linejoin: miter; stroke-linecap: square"/>
   </g>
   <g id="patch_9">
    <path d="M 918.820385 567.226635 
L 918.820385 33.03024 
" style="fill: none; stroke: #262626; stroke-width: 3; stroke-linejoin: miter; stroke-linecap: square"/>
   </g>
   <g id="patch_10">
    <path d="M 120.36024 567.226635 
L 918.820385 567.226635 
" style="fill: none; stroke: #262626; stroke-width: 3; stroke-linejoin: miter; stroke-linecap: square"/>
   </g>
   <g id="patch_11">
    <path d="M 120.36024 33.03024 
L 918.820385 33.03024 
" style="fill: none; stroke: #262626; stroke-width: 3; stroke-linejoin: miter; stroke-linecap: square"/>
   </g>
   <g id="text_25">
    <!-- Accuracy and Correctness -->
    <g style="fill: #262626" transform="translate(316.845313 26.29524) scale(0.32 -0.32)">
     <defs>
      <path id="Arial-BoldMT-41" d="M 4597 0 
L 3591 0 
L 3191 1041 
L 1359 1041 
L 981 0 
L 0 0 
L 1784 4581 
L 2763 4581 
L 4597 0 
z
M 2894 1813 
L 2263 3513 
L 1644 1813 
L 2894 1813 
z
" transform="scale(0.015625)"/>
      <path id="Arial-BoldMT-75" d="M 2644 0 
L 2644 497 
Q 2463 231 2167 78 
Q 1872 -75 1544 -75 
Q 1209 -75 943 72 
Q 678 219 559 484 
Q 441 750 441 1219 
L 441 3319 
L 1319 3319 
L 1319 1794 
Q 1319 1094 1367 936 
Q 1416 778 1544 686 
Q 1672 594 1869 594 
Q 2094 594 2272 717 
Q 2450 841 2515 1023 
Q 2581 1206 2581 1919 
L 2581 3319 
L 3459 3319 
L 3459 0 
L 2644 0 
z
" transform="scale(0.015625)"/>
      <path id="Arial-BoldMT-79" d="M 44 3319 
L 978 3319 
L 1772 963 
L 2547 3319 
L 3456 3319 
L 2284 125 
L 2075 -453 
Q 1959 -744 1854 -897 
Q 1750 -1050 1614 -1145 
Q 1478 -1241 1279 -1294 
Q 1081 -1347 831 -1347 
Q 578 -1347 334 -1294 
L 256 -606 
Q 463 -647 628 -647 
Q 934 -647 1081 -467 
Q 1228 -288 1306 -9 
L 44 3319 
z
" transform="scale(0.015625)"/>
      <path id="Arial-BoldMT-64" d="M 3503 0 
L 2688 0 
L 2688 488 
Q 2484 203 2207 64 
Q 1931 -75 1650 -75 
Q 1078 -75 670 386 
Q 263 847 263 1672 
Q 263 2516 659 2955 
Q 1056 3394 1663 3394 
Q 2219 3394 2625 2931 
L 2625 4581 
L 3503 4581 
L 3503 0 
z
M 1159 1731 
Q 1159 1200 1306 963 
Q 1519 619 1900 619 
Q 2203 619 2415 876 
Q 2628 1134 2628 1647 
Q 2628 2219 2422 2470 
Q 2216 2722 1894 2722 
Q 1581 2722 1370 2473 
Q 1159 2225 1159 1731 
z
" transform="scale(0.015625)"/>
      <path id="Arial-BoldMT-43" d="M 3397 1684 
L 4294 1400 
Q 4088 650 3608 286 
Q 3128 -78 2391 -78 
Q 1478 -78 890 545 
Q 303 1169 303 2250 
Q 303 3394 893 4026 
Q 1484 4659 2447 4659 
Q 3288 4659 3813 4163 
Q 4125 3869 4281 3319 
L 3366 3100 
Q 3284 3456 3026 3662 
Q 2769 3869 2400 3869 
Q 1891 3869 1573 3503 
Q 1256 3138 1256 2319 
Q 1256 1450 1568 1081 
Q 1881 713 2381 713 
Q 2750 713 3015 947 
Q 3281 1181 3397 1684 
z
" transform="scale(0.015625)"/>
      <path id="Arial-BoldMT-73" d="M 150 947 
L 1031 1081 
Q 1088 825 1259 692 
Q 1431 559 1741 559 
Q 2081 559 2253 684 
Q 2369 772 2369 919 
Q 2369 1019 2306 1084 
Q 2241 1147 2013 1200 
Q 950 1434 666 1628 
Q 272 1897 272 2375 
Q 272 2806 612 3100 
Q 953 3394 1669 3394 
Q 2350 3394 2681 3172 
Q 3013 2950 3138 2516 
L 2309 2363 
Q 2256 2556 2107 2659 
Q 1959 2763 1684 2763 
Q 1338 2763 1188 2666 
Q 1088 2597 1088 2488 
Q 1088 2394 1175 2328 
Q 1294 2241 1995 2081 
Q 2697 1922 2975 1691 
Q 3250 1456 3250 1038 
Q 3250 581 2869 253 
Q 2488 -75 1741 -75 
Q 1063 -75 667 200 
Q 272 475 150 947 
z
" transform="scale(0.015625)"/>
     </defs>
     <use xlink:href="#Arial-BoldMT-41"/>
     <use xlink:href="#Arial-BoldMT-63" transform="translate(72.216797 0)"/>
     <use xlink:href="#Arial-BoldMT-63" transform="translate(127.832031 0)"/>
     <use xlink:href="#Arial-BoldMT-75" transform="translate(183.447266 0)"/>
     <use xlink:href="#Arial-BoldMT-72" transform="translate(244.53125 0)"/>
     <use xlink:href="#Arial-BoldMT-61" transform="translate(283.447266 0)"/>
     <use xlink:href="#Arial-BoldMT-63" transform="translate(339.0625 0)"/>
     <use xlink:href="#Arial-BoldMT-79" transform="translate(394.677734 0)"/>
     <use xlink:href="#Arial-BoldMT-20" transform="translate(450.292969 0)"/>
     <use xlink:href="#Arial-BoldMT-61" transform="translate(478.076172 0)"/>
     <use xlink:href="#Arial-BoldMT-6e" transform="translate(533.691406 0)"/>
     <use xlink:href="#Arial-BoldMT-64" transform="translate(594.775391 0)"/>
     <use xlink:href="#Arial-BoldMT-20" transform="translate(655.859375 0)"/>
     <use xlink:href="#Arial-BoldMT-43" transform="translate(683.642578 0)"/>
     <use xlink:href="#Arial-BoldMT-6f" transform="translate(755.859375 0)"/>
     <use xlink:href="#Arial-BoldMT-72" transform="translate(816.943359 0)"/>
     <use xlink:href="#Arial-BoldMT-72" transform="translate(855.859375 0)"/>
     <use xlink:href="#Arial-BoldMT-65" transform="translate(894.775391 0)"/>
     <use xlink:href="#Arial-BoldMT-63" transform="translate(950.390625 0)"/>
     <use xlink:href="#Arial-BoldMT-74" transform="translate(1006.005859 0)"/>
     <use xlink:href="#Arial-BoldMT-6e" transform="translate(1039.306641 0)"/>
     <use xlink:href="#Arial-BoldMT-65" transform="translate(1100.390625 0)"/>
     <use xlink:href="#Arial-BoldMT-73" transform="translate(1156.005859 0)"/>
     <use xlink:href="#Arial-BoldMT-73" transform="translate(1211.621094 0)"/>
    </g>
   </g>
  </g>
 </g>
 <defs>
  <clipPath id="p6419b8fa59">
   <rect x="120.36024" y="33.03024" width="798.460145" height="534.196395"/>
  </clipPath>
 </defs>
</svg>
